Merritest-HeavyItalic.ufo
<glyph name="dollar" format="1">
  <advance width="1205"/>
  <unicode hex="0024"/>
  <outline>
    <contour>
      <point x="17" y="75" type="curve"/>
      <point x="79" y="393" type="line"/>
      <point x="283" y="393" type="line"/>
      <point x="292" y="174" type="line"/>
      <point x="343" y="136"/>
      <point x="411" y="106"/>
      <point x="501" y="106" type="curve" smooth="yes"/>
      <point x="701" y="106"/>
      <point x="760" y="202"/>
      <point x="760" y="315" type="curve" smooth="yes"/>
      <point x="760" y="443"/>
      <point x="680" y="516"/>
      <point x="494" y="635" type="curve" smooth="yes"/>
      <point x="317" y="748"/>
      <point x="164" y="891"/>
      <point x="164" y="1099" type="curve" smooth="yes"/>
      <point x="164" y="1370"/>
      <point x="377" y="1528"/>
      <point x="674" y="1547" type="curve"/>
      <point x="703" y="1729" type="line"/>
      <point x="884" y="1729" type="line"/>
      <point x="854" y="1545" type="line"/>
      <point x="998" y="1534"/>
      <point x="1086" y="1504"/>
      <point x="1138" y="1475" type="curve"/>
      <point x="1084" y="1173" type="line"/>
      <point x="893" y="1173" type="line"/>
      <point x="865" y="1371" type="line"/>
      <point x="817" y="1405"/>
      <point x="763" y="1423"/>
      <point x="691" y="1423" type="curve" smooth="yes"/>
      <point x="546" y="1423"/>
      <point x="481" y="1345"/>
      <point x="481" y="1240" type="curve" smooth="yes"/>
      <point x="481" y="1095"/>
      <point x="573" y="1008"/>
      <point x="769" y="887" type="curve" smooth="yes"/>
      <point x="937" y="783"/>
      <point x="1088" y="656"/>
      <point x="1088" y="445" type="curve" smooth="yes"/>
      <point x="1088" y="216"/>
      <point x="938" y="7"/>
      <point x="577" y="-20" type="curve"/>
      <point x="543" y="-230" type="line"/>
      <point x="363" y="-230" type="line"/>
      <point x="396" y="-19" type="line"/>
      <point x="212" y="-5"/>
      <point x="55" y="43"/>
    </contour>
    <contour>
      <point x="204" y="270" type="line"/>
      <point x="201" y="276" type="line"/>
    </contour>
  </outline>
</glyph>
<glyph name="parenright" format="1">
  <advance width="894"/>
  <unicode hex="0029"/>
  <outline>
    <contour>
      <point x="704" y="923" type="curve" smooth="yes"/>
      <point x="704" y="854"/>
      <point x="699" y="781"/>
      <point x="689" y="704" type="curve" smooth="yes"/>
      <point x="611" y="107"/>
      <point x="146" y="-290"/>
      <point x="48" y="-343" type="curve"/>
      <point x="-79" y="-254" type="line"/>
      <point x="5" y="-200"/>
      <point x="323" y="127"/>
      <point x="404" y="655" type="curve" smooth="yes"/>
      <point x="417" y="738"/>
      <point x="424" y="842"/>
      <point x="424" y="916" type="curve" smooth="yes"/>
      <point x="424" y="1357"/>
      <point x="238" y="1633"/>
      <point x="167" y="1693" type="curve"/>
      <point x="305" y="1777" type="line"/>
      <point x="322" y="1777" type="line"/>
      <point x="396" y="1727"/>
      <point x="704" y="1436"/>
    </contour>
  </outline>
</glyph>
<glyph name="comma" format="1">
  <advance width="556"/>
  <unicode hex="002C"/>
  <outline>
    <contour>
      <point x="88" y="78" type="curve"/>
      <point x="95" y="142" type="line"/>
      <point x="229" y="295" type="line"/>
      <point x="392" y="257"/>
      <point x="442" y="118"/>
      <point x="442" y="-4" type="curve" smooth="yes"/>
      <point x="442" y="-228"/>
      <point x="284" y="-417"/>
      <point x="48" y="-521" type="curve"/>
      <point x="-15" y="-432" type="line"/>
      <point x="-12" y="-411" type="line"/>
      <point x="98" y="-362"/>
      <point x="190" y="-213"/>
      <point x="190" y="-88" type="curve" smooth="yes"/>
      <point x="190" y="0"/>
      <point x="146" y="80"/>
    </contour>
  </outline>
</glyph>
<glyph name="hyphen" format="1">
  <advance width="1286"/>
  <unicode hex="002D"/>
  <outline>
    <contour>
      <point x="248" y="673" type="line"/>
      <point x="266" y="871" type="line"/>
      <point x="1123" y="871" type="line"/>
      <point x="1105" y="673" type="line"/>
    </contour>
  </outline>
</glyph>
<glyph name="slash" format="1">
  <advance width="854"/>
  <unicode hex="002F"/>
  <outline>
    <contour>
      <point x="110" y="-362" type="line"/>
      <point x="-122" y="-362" type="line"/>
      <point x="739" y="1597" type="line"/>
      <point x="973" y="1597" type="line"/>
    </contour>
  </outline>
</glyph>
<glyph name="zero" format="1">
  <advance width="1278"/>
  <unicode hex="0030"/>
  <outline>
    <contour>
      <point x="81" y="450" type="curve" smooth="yes"/>
      <point x="81" y="853"/>
      <point x="347" y="1162"/>
      <point x="724" y="1162" type="curve" smooth="yes"/>
      <point x="1076" y="1162"/>
      <point x="1207" y="971"/>
      <point x="1207" y="697" type="curve" smooth="yes"/>
      <point x="1207" y="321"/>
      <point x="965" y="-16"/>
      <point x="569" y="-16" type="curve" smooth="yes"/>
      <point x="219" y="-16"/>
      <point x="81" y="198"/>
    </contour>
    <contour>
      <point x="591" y="94" type="curve" smooth="yes"/>
      <point x="806" y="94"/>
      <point x="873" y="406"/>
      <point x="873" y="677" type="curve" smooth="yes"/>
      <point x="873" y="900"/>
      <point x="825" y="1053"/>
      <point x="697" y="1053" type="curve" smooth="yes"/>
      <point x="468" y="1053"/>
      <point x="415" y="694"/>
      <point x="415" y="466" type="curve" smooth="yes"/>
      <point x="415" y="266"/>
      <point x="463" y="94"/>
    </contour>
  </outline>
</glyph>
<glyph name="one" format="1">
  <advance width="930"/>
  <unicode hex="0031"/>
  <outline>
    <contour>
      <point x="61" y="0" type="line"/>
      <point x="71" y="106" type="line"/>
      <point x="272" y="136" type="line"/>
      <point x="376" y="887" type="line"/>
      <point x="299" y="868"/>
      <point x="221" y="850"/>
      <point x="134" y="835" type="curve"/>
      <point x="115" y="960" type="line"/>
      <point x="255" y="991"/>
      <point x="475" y="1089"/>
      <point x="581" y="1162" type="curve"/>
      <point x="744" y="1125" type="line"/>
      <point x="604" y="136" type="line"/>
      <point x="814" y="106" type="line"/>
      <point x="804" y="0" type="line"/>
    </contour>
  </outline>
</glyph>
<glyph name="two" format="1">
  <advance width="1249"/>
  <unicode hex="0032"/>
  <outline>
    <contour>
      <point x="75" y="0" type="line"/>
      <point x="42" y="136" type="line"/>
      <point x="377" y="340"/>
      <point x="714" y="608"/>
      <point x="714" y="776" type="curve" smooth="yes"/>
      <point x="714" y="862"/>
      <point x="678" y="956"/>
      <point x="552" y="956" type="curve" smooth="yes"/>
      <point x="414" y="956"/>
      <point x="280" y="878"/>
      <point x="188" y="770" type="curve"/>
      <point x="113" y="900" type="line"/>
      <point x="201" y="1017"/>
      <point x="374" y="1162"/>
      <point x="631" y="1162" type="curve" smooth="yes"/>
      <point x="965" y="1162"/>
      <point x="1064" y="971"/>
      <point x="1064" y="826" type="curve" smooth="yes"/>
      <point x="1064" y="552"/>
      <point x="701" y="302"/>
      <point x="387" y="151" type="curve"/>
      <point x="899" y="194" type="line"/>
      <point x="1051" y="395" type="line"/>
      <point x="1199" y="349" type="line"/>
      <point x="1078" y="0" type="line"/>
    </contour>
  </outline>
</glyph>
<glyph name="three" format="1">
  <advance width="1104"/>
  <unicode hex="0033"/>
  <outline>
    <contour>
      <point x="21" y="-168" type="line"/>
      <point x="61" y="-178"/>
      <point x="137" y="-184"/>
      <point x="168" y="-184" type="curve" smooth="yes"/>
      <point x="489" y="-184"/>
      <point x="615" y="-20"/>
      <point x="615" y="155" type="curve" smooth="yes"/>
      <point x="615" y="263"/>
      <point x="540" y="354"/>
      <point x="340" y="332" type="curve"/>
      <point x="231" y="302" type="line"/>
      <point x="252" y="475" type="line"/>
      <point x="430" y="510"/>
      <point x="633" y="658"/>
      <point x="633" y="815" type="curve" smooth="yes"/>
      <point x="633" y="867"/>
      <point x="594" y="959"/>
      <point x="488" y="959" type="curve" smooth="yes"/>
      <point x="355" y="959"/>
      <point x="251" y="909"/>
      <point x="161" y="833" type="curve"/>
      <point x="101" y="958" type="line"/>
      <point x="170" y="1035"/>
      <point x="361" y="1162"/>
      <point x="585" y="1162" type="curve" smooth="yes"/>
      <point x="785" y="1162"/>
      <point x="962" y="1057"/>
      <point x="962" y="871" type="curve" smooth="yes"/>
      <point x="962" y="690"/>
      <point x="815" y="547"/>
      <point x="614" y="482" type="curve"/>
      <point x="847" y="472"/>
      <point x="947" y="340"/>
      <point x="947" y="170" type="curve" smooth="yes"/>
      <point x="947" y="-170"/>
      <point x="648" y="-350"/>
      <point x="204" y="-350" type="curve" smooth="yes"/>
      <point x="136" y="-350"/>
      <point x="45" y="-338"/>
      <point x="-1" y="-327" type="curve"/>
    </contour>
  </outline>
</glyph>
<glyph name="seven" format="1">
  <advance width="1096"/>
  <unicode hex="0037"/>
  <outline>
    <contour>
      <point x="174" y="-244" type="line"/>
      <point x="833" y="981" type="line"/>
      <point x="419" y="959" type="line"/>
      <point x="316" y="728" type="line"/>
      <point x="78" y="732" type="line"/>
      <point x="165" y="1146" type="line"/>
      <point x="1087" y="1146" type="line"/>
      <point x="1119" y="1103" type="line"/>
      <point x="512" y="-340" type="line"/>
    </contour>
  </outline>
</glyph>
<glyph name="nine" format="1">
  <advance width="1247"/>
  <unicode hex="0039"/>
  <outline>
    <contour>
      <point x="185" y="-294" type="line"/>
      <point x="497" y="-198"/>
      <point x="670" y="17"/>
      <point x="766" y="268" type="curve"/>
      <point x="709" y="208"/>
      <point x="655" y="138"/>
      <point x="486" y="138" type="curve" smooth="yes"/>
      <point x="200" y="138"/>
      <point x="103" y="338"/>
      <point x="103" y="533" type="curve" smooth="yes"/>
      <point x="103" y="877"/>
      <point x="326" y="1161"/>
      <point x="685" y="1162" type="curve" smooth="yes"/>
      <point x="947" y="1162"/>
      <point x="1128" y="1024"/>
      <point x="1128" y="634" type="curve" smooth="yes"/>
      <point x="1128" y="126"/>
      <point x="722" y="-340"/>
      <point x="245" y="-431" type="curve"/>
    </contour>
    <contour>
      <point x="559" y="321" type="curve" smooth="yes"/>
      <point x="682" y="321"/>
      <point x="747" y="403"/>
      <point x="785" y="459" type="curve"/>
      <point x="803" y="534"/>
      <point x="811" y="618"/>
      <point x="811" y="693" type="curve" smooth="yes"/>
      <point x="811" y="870"/>
      <point x="782" y="1027"/>
      <point x="637" y="1027" type="curve" smooth="yes"/>
      <point x="473" y="1027"/>
      <point x="422" y="774"/>
      <point x="422" y="594" type="curve" smooth="yes"/>
      <point x="422" y="387"/>
      <point x="483" y="321"/>
    </contour>
  </outline>
</glyph>
<glyph name="colon" format="1">
  <advance width="556"/>
  <unicode hex="003A"/>
  <outline>
    <contour>
      <point x="167" y="950" type="curve" smooth="yes"/>
      <point x="167" y="1075"/>
      <point x="267" y="1150"/>
      <point x="358" y="1150" type="curve" smooth="yes"/>
      <point x="457" y="1150"/>
      <point x="506" y="1071"/>
      <point x="506" y="989" type="curve" smooth="yes"/>
      <point x="506" y="853"/>
      <point x="400" y="789"/>
      <point x="304" y="789" type="curve" smooth="yes"/>
      <point x="229" y="789"/>
      <point x="167" y="858"/>
    </contour>
    <contour>
      <point x="61" y="141" type="curve" smooth="yes"/>
      <point x="61" y="266"/>
      <point x="161" y="341"/>
      <point x="252" y="341" type="curve" smooth="yes"/>
      <point x="351" y="341"/>
      <point x="400" y="262"/>
      <point x="400" y="180" type="curve" smooth="yes"/>
      <point x="400" y="44"/>
      <point x="294" y="-20"/>
      <point x="198" y="-20" type="curve" smooth="yes"/>
      <point x="123" y="-20"/>
      <point x="61" y="49"/>
    </contour>
  </outline>
</glyph>
<glyph name="question" format="1">
  <advance width="951"/>
  <unicode hex="003F"/>
  <outline>
    <contour>
      <point x="297" y="481" type="line"/>
      <point x="255" y="526"/>
      <point x="226" y="611"/>
      <point x="226" y="707" type="curve" smooth="yes"/>
      <point x="226" y="857"/>
      <point x="356" y="941"/>
      <point x="506" y="1028" type="curve"/>
      <point x="621" y="1087"/>
      <point x="690" y="1147"/>
      <point x="726" y="1186" type="curve"/>
      <point x="739" y="1214"/>
      <point x="755" y="1268"/>
      <point x="757" y="1304" type="curve" smooth="yes"/>
      <point x="766" y="1475"/>
      <point x="629" y="1598"/>
      <point x="414" y="1598" type="curve" smooth="yes"/>
      <point x="340" y="1598"/>
      <point x="256" y="1569"/>
      <point x="198" y="1540" type="curve"/>
      <point x="259" y="1760" type="line"/>
      <point x="290" y="1790"/>
      <point x="457" y="1833"/>
      <point x="546" y="1833" type="curve" smooth="yes"/>
      <point x="934" y="1833"/>
      <point x="1024" y="1600"/>
      <point x="1024" y="1402" type="curve" smooth="yes"/>
      <point x="1024" y="922"/>
      <point x="492" y="947"/>
      <point x="464" y="688" type="curve" smooth="yes"/>
      <point x="457" y="620"/>
      <point x="473" y="564"/>
      <point x="483" y="529" type="curve"/>
      <point x="311" y="480" type="line"/>
    </contour>
    <contour>
      <point x="293" y="141" type="curve" smooth="yes"/>
      <point x="293" y="266"/>
      <point x="393" y="341"/>
      <point x="484" y="341" type="curve" smooth="yes"/>
      <point x="583" y="341"/>
      <point x="632" y="262"/>
      <point x="632" y="180" type="curve" smooth="yes"/>
      <point x="632" y="44"/>
      <point x="526" y="-20"/>
      <point x="430" y="-20" type="curve" smooth="yes"/>
      <point x="355" y="-20"/>
      <point x="293" y="49"/>
    </contour>
  </outline>
</glyph>
<glyph name="at" format="1">
  <advance width="1969"/>
  <unicode hex="0040"/>
  <outline>
    <contour>
      <point x="55" y="337" type="curve" smooth="yes"/>
      <point x="55" y="1079"/>
      <point x="657" y="1574"/>
      <point x="1196" y="1574" type="curve" smooth="yes"/>
      <point x="1608" y="1574"/>
      <point x="1912" y="1321"/>
      <point x="1912" y="913" type="curve" smooth="yes"/>
      <point x="1912" y="343"/>
      <point x="1607" y="-10"/>
      <point x="1294" y="-10" type="curve" smooth="yes"/>
      <point x="1203" y="-10"/>
      <point x="1169" y="76"/>
      <point x="1169" y="195" type="curve" smooth="yes"/>
      <point x="1169" y="242"/>
      <point x="1186" y="366"/>
      <point x="1207" y="457" type="curve"/>
      <point x="1117" y="244"/>
      <point x="961" y="7"/>
      <point x="813" y="7" type="curve" smooth="yes"/>
      <point x="648" y="7"/>
      <point x="485" y="144"/>
      <point x="485" y="441" type="curve" smooth="yes"/>
      <point x="485" y="761"/>
      <point x="699" y="1117"/>
      <point x="1089" y="1117" type="curve" smooth="yes"/>
      <point x="1144" y="1117"/>
      <point x="1239" y="1092"/>
      <point x="1295" y="1053" type="curve"/>
      <point x="1500" y="1103" type="line"/>
      <point x="1461" y="950"/>
      <point x="1410" y="631"/>
      <point x="1391" y="430" type="curve" smooth="yes"/>
      <point x="1381" y="327"/>
      <point x="1386" y="280"/>
      <point x="1386" y="239" type="curve" smooth="yes"/>
      <point x="1386" y="185"/>
      <point x="1403" y="173"/>
      <point x="1413" y="173" type="curve" smooth="yes"/>
      <point x="1581" y="173"/>
      <point x="1715" y="519"/>
      <point x="1715" y="823" type="curve" smooth="yes"/>
      <point x="1715" y="1237"/>
      <point x="1396" y="1405"/>
      <point x="1108" y="1405" type="curve" smooth="yes"/>
      <point x="599" y="1405"/>
      <point x="278" y="883"/>
      <point x="278" y="408" type="curve" smooth="yes"/>
      <point x="278" y="-71"/>
      <point x="597" y="-272"/>
      <point x="941" y="-272" type="curve" smooth="yes"/>
      <point x="1052" y="-272"/>
      <point x="1223" y="-242"/>
      <point x="1287" y="-211" type="curve"/>
      <point x="1330" y="-319" type="line"/>
      <point x="1236" y="-390"/>
      <point x="1080" y="-437"/>
      <point x="906" y="-437" type="curve" smooth="yes"/>
      <point x="448" y="-437"/>
      <point x="55" y="-201"/>
    </contour>
    <contour>
      <point x="738" y="447" type="curve" smooth="yes"/>
      <point x="738" y="360"/>
      <point x="772" y="226"/>
      <point x="854" y="226" type="curve" smooth="yes"/>
      <point x="964" y="226"/>
      <point x="1208" y="688"/>
      <point x="1232" y="882" type="curve"/>
      <point x="1212" y="921"/>
      <point x="1125" y="964"/>
      <point x="1069" y="964" type="curve" smooth="yes"/>
      <point x="845" y="964"/>
      <point x="738" y="693"/>
    </contour>
  </outline>
</glyph>
<glyph name="H" format="1">
  <advance width="1653"/>
  <unicode hex="0048"/>
  <outline>
    <contour>
      <point x="-21" y="0" type="line"/>
      <point x="-10" y="106" type="line"/>
      <point x="128" y="136" type="line"/>
      <point x="294" y="1394" type="line"/>
      <point x="149" y="1420" type="line"/>
      <point x="163" y="1530" type="line"/>
      <point x="838" y="1530" type="line"/>
      <point x="826" y="1420" type="line"/>
      <point x="646" y="1394" type="line"/>
      <point x="575" y="854" type="line"/>
      <point x="1127" y="854" type="line"/>
      <point x="1198" y="1394" type="line"/>
      <point x="1021" y="1420" type="line"/>
      <point x="1033" y="1530" type="line"/>
      <point x="1716" y="1530" type="line"/>
      <point x="1704" y="1420" type="line"/>
      <point x="1550" y="1394" type="line"/>
      <point x="1385" y="136" type="line"/>
      <point x="1542" y="106" type="line"/>
      <point x="1530" y="0" type="line"/>
      <point x="827" y="0" type="line"/>
      <point x="841" y="106" type="line"/>
      <point x="1032" y="136" type="line"/>
      <point x="1107" y="704" type="line"/>
      <point x="555" y="704" type="line"/>
      <point x="480" y="136" type="line"/>
      <point x="654" y="106" type="line"/>
      <point x="646" y="0" type="line"/>
    </contour>
  </outline>
</glyph>
<glyph name="I" format="1">
  <advance width="783"/>
  <unicode hex="0049"/>
  <outline>
    <contour>
      <point x="-18" y="0" type="line"/>
      <point x="-5" y="106" type="line"/>
      <point x="145" y="136" type="line"/>
      <point x="310" y="1394" type="line"/>
      <point x="163" y="1420" type="line"/>
      <point x="175" y="1530" type="line"/>
      <point x="846" y="1530" type="line"/>
      <point x="834" y="1420" type="line"/>
      <point x="662" y="1394" type="line"/>
      <point x="497" y="136" type="line"/>
      <point x="672" y="106" type="line"/>
      <point x="665" y="0" type="line"/>
    </contour>
  </outline>
</glyph>
<glyph name="L" format="1">
  <advance width="1271"/>
  <unicode hex="004C"/>
  <outline>
    <contour>
      <point x="-22" y="0" type="line"/>
      <point x="-10" y="106" type="line"/>
      <point x="128" y="136" type="line"/>
      <point x="293" y="1394" type="line"/>
      <point x="147" y="1420" type="line"/>
      <point x="160" y="1530" type="line"/>
      <point x="839" y="1530" type="line"/>
      <point x="827" y="1420" type="line"/>
      <point x="645" y="1394" type="line"/>
      <point x="479" y="129" type="line"/>
      <point x="828" y="149" type="line"/>
      <point x="1019" y="600" type="line"/>
      <point x="1200" y="577" type="line"/>
      <point x="1116" y="0" type="line"/>
    </contour>
  </outline>
</glyph>
<glyph name="M" format="1">
  <advance width="2017"/>
  <unicode hex="004D"/>
  <outline>
    <contour>
      <point x="-128" y="0" type="line"/>
      <point x="-116" y="106" type="line"/>
      <point x="65" y="136" type="line"/>
      <point x="391" y="1394" type="line"/>
      <point x="197" y="1420" type="line"/>
      <point x="213" y="1530" type="line"/>
      <point x="904" y="1530" type="line"/>
      <point x="1003" y="680" type="line"/>
      <point x="1024" y="509" type="line"/>
      <point x="1079" y="680" type="line"/>
      <point x="1413" y="1530" type="line"/>
      <point x="2033" y="1530" type="line"/>
      <point x="2020" y="1420" type="line"/>
      <point x="1834" y="1394" type="line"/>
      <point x="1794" y="136" type="line"/>
      <point x="1998" y="106" type="line"/>
      <point x="1990" y="0" type="line"/>
      <point x="1253" y="0" type="line"/>
      <point x="1262" y="108" type="line"/>
      <point x="1451" y="136" type="line"/>
      <point x="1508" y="996" type="line"/>
      <point x="1528" y="1394" type="line"/>
      <point x="1385" y="1044" type="line"/>
      <point x="946" y="-3" type="line"/>
      <point x="777" y="-18" type="line"/>
      <point x="641" y="1020" type="line"/>
      <point x="587" y="1395" type="line"/>
      <point x="500" y="1010" type="line"/>
      <point x="291" y="136" type="line"/>
      <point x="516" y="107" type="line"/>
      <point x="506" y="0" type="line"/>
    </contour>
  </outline>
</glyph>
<glyph name="N" format="1">
  <advance width="1545"/>
  <unicode hex="004E"/>
  <outline>
    <contour>
      <point x="-33" y="0" type="line"/>
      <point x="-25" y="106" type="line"/>
      <point x="124" y="136" type="line"/>
      <point x="310" y="1394" type="line"/>
      <point x="140" y="1420" type="line"/>
      <point x="156" y="1530" type="line"/>
      <point x="713" y="1530" type="line"/>
      <point x="1084" y="535" type="line"/>
      <point x="1162" y="305" type="line"/>
      <point x="1298" y="1394" type="line"/>
      <point x="1126" y="1420" type="line"/>
      <point x="1137" y="1530" type="line"/>
      <point x="1639" y="1530" type="line"/>
      <point x="1628" y="1420" type="line"/>
      <point x="1505" y="1394" type="line"/>
      <point x="1293" y="0" type="line"/>
      <point x="935" y="0" type="line"/>
      <point x="544" y="1028" type="line"/>
      <point x="466" y="1282" type="line"/>
      <point x="341" y="136" type="line"/>
      <point x="531" y="106" type="line"/>
      <point x="520" y="0" type="line"/>
    </contour>
  </outline>
</glyph>
<glyph name="Q" format="1">
  <advance width="1501"/>
  <unicode hex="0051"/>
  <outline>
    <contour>
      <point x="607" y="-19" type="curve"/>
      <point x="222" y="1"/>
      <point x="55" y="277"/>
      <point x="55" y="636" type="curve" smooth="yes"/>
      <point x="55" y="1098"/>
      <point x="311" y="1549"/>
      <point x="865" y="1549" type="curve" smooth="yes"/>
      <point x="1292" y="1549"/>
      <point x="1465" y="1237"/>
      <point x="1465" y="892" type="curve" smooth="yes"/>
      <point x="1465" y="482"/>
      <point x="1276" y="67"/>
      <point x="811" y="-8" type="curve"/>
      <point x="802" y="-166"/>
      <point x="928" y="-181"/>
      <point x="1090" y="-181" type="curve" smooth="yes"/>
      <point x="1151" y="-181"/>
      <point x="1294" y="-169"/>
      <point x="1379" y="-142" type="curve"/>
      <point x="1381" y="-328" type="line"/>
      <point x="1329" y="-368"/>
      <point x="1196" y="-439"/>
      <point x="993" y="-439" type="curve" smooth="yes"/>
      <point x="703" y="-439"/>
      <point x="546" y="-287"/>
    </contour>
    <contour>
      <point x="684" y="101" type="curve" smooth="yes"/>
      <point x="958" y="101"/>
      <point x="1084" y="450"/>
      <point x="1084" y="880" type="curve" smooth="yes"/>
      <point x="1084" y="1216"/>
      <point x="1017" y="1425"/>
      <point x="838" y="1425" type="curve" smooth="yes"/>
      <point x="577" y="1425"/>
      <point x="436" y="1036"/>
      <point x="436" y="648" type="curve" smooth="yes"/>
      <point x="436" y="391"/>
      <point x="471" y="101"/>
    </contour>
  </outline>
</glyph>
<glyph name="R" format="1">
  <advance width="1450"/>
  <unicode hex="0052"/>
  <outline>
    <contour>
      <point x="-22" y="0" type="line"/>
      <point x="-13" y="106" type="line"/>
      <point x="128" y="136" type="line"/>
      <point x="293" y="1394" type="line"/>
      <point x="148" y="1420" type="line"/>
      <point x="161" y="1530" type="line"/>
      <point x="472" y="1530" type="line" smooth="yes"/>
      <point x="606" y="1530"/>
      <point x="661" y="1546"/>
      <point x="839" y="1546" type="curve" smooth="yes"/>
      <point x="1213" y="1546"/>
      <point x="1365" y="1402"/>
      <point x="1365" y="1164" type="curve" smooth="yes"/>
      <point x="1365" y="951"/>
      <point x="1247" y="782"/>
      <point x="1044" y="705" type="curve"/>
      <point x="1096" y="646"/>
      <point x="1159" y="452"/>
      <point x="1190" y="369" type="curve"/>
      <point x="1271" y="190"/>
      <point x="1298" y="109"/>
      <point x="1421" y="106" type="curve"/>
      <point x="1411" y="-1" type="line"/>
      <point x="996" y="1" type="line"/>
      <point x="969" y="0"/>
      <point x="935" y="93"/>
      <point x="906" y="188" type="curve" smooth="yes"/>
      <point x="851" y="368"/>
      <point x="769" y="613"/>
      <point x="735" y="662" type="curve"/>
      <point x="735" y="662"/>
      <point x="610" y="661"/>
      <point x="542" y="661" type="curve"/>
      <point x="476" y="136" type="line"/>
      <point x="660" y="106" type="line"/>
      <point x="654" y="0" type="line"/>
    </contour>
    <contour>
      <point x="561" y="800" type="line"/>
      <point x="596" y="797"/>
      <point x="683" y="797"/>
      <point x="710" y="797" type="curve" smooth="yes"/>
      <point x="898" y="797"/>
      <point x="1017" y="935"/>
      <point x="1007" y="1186" type="curve" smooth="yes"/>
      <point x="1001" y="1343"/>
      <point x="906" y="1420"/>
      <point x="757" y="1420" type="curve" smooth="yes"/>
      <point x="735" y="1420"/>
      <point x="679" y="1417"/>
      <point x="642" y="1410" type="curve"/>
    </contour>
  </outline>
</glyph>
<glyph name="U" format="1">
  <advance width="1447"/>
  <unicode hex="0055"/>
  <outline>
    <contour>
      <point x="128" y="428" type="curve" smooth="yes"/>
      <point x="128" y="480"/>
      <point x="128" y="534"/>
      <point x="135" y="593" type="curve" smooth="yes"/>
      <point x="235" y="1394" type="line"/>
      <point x="91" y="1420" type="line"/>
      <point x="104" y="1530" type="line"/>
      <point x="808" y="1530" type="line"/>
      <point x="798" y="1421" type="line"/>
      <point x="601" y="1394" type="line"/>
      <point x="504" y="623" type="line"/>
      <point x="495" y="542"/>
      <point x="487" y="469"/>
      <point x="487" y="422" type="curve" smooth="yes"/>
      <point x="487" y="232"/>
      <point x="562" y="104"/>
      <point x="732" y="104" type="curve" smooth="yes"/>
      <point x="978" y="104"/>
      <point x="1076" y="311"/>
      <point x="1119" y="626" type="curve" smooth="yes"/>
      <point x="1223" y="1394" type="line"/>
      <point x="1055" y="1421" type="line"/>
      <point x="1066" y="1530" type="line"/>
      <point x="1550" y="1530" type="line"/>
      <point x="1535" y="1421" type="line"/>
      <point x="1406" y="1394" type="line"/>
      <point x="1309" y="627" type="line" smooth="yes"/>
      <point x="1249" y="156"/>
      <point x="1038" y="-20"/>
      <point x="670" y="-20" type="curve" smooth="yes"/>
      <point x="248" y="-20"/>
      <point x="128" y="179"/>
    </contour>
  </outline>
</glyph>
<glyph name="X" format="1">
  <advance width="1389"/>
  <unicode hex="0058"/>
  <outline>
    <contour>
      <point x="-76" y="0" type="line"/>
      <point x="-64" y="106" type="line"/>
      <point x="50" y="136" type="line"/>
      <point x="529" y="749" type="line"/>
      <point x="223" y="1394" type="line"/>
      <point x="104" y="1420" type="line"/>
      <point x="115" y="1530" type="line"/>
      <point x="776" y="1530" type="line"/>
      <point x="768" y="1421" type="line"/>
      <point x="624" y="1394" type="line"/>
      <point x="792" y="953" type="line"/>
      <point x="1088" y="1394" type="line"/>
      <point x="954" y="1420" type="line"/>
      <point x="960" y="1530" type="line"/>
      <point x="1482" y="1530" type="line"/>
      <point x="1472" y="1420" type="line"/>
      <point x="1336" y="1394" type="line"/>
      <point x="866" y="809" type="line"/>
      <point x="1201" y="136" type="line"/>
      <point x="1327" y="106" type="line"/>
      <point x="1317" y="0" type="line"/>
      <point x="625" y="0" type="line"/>
      <point x="634" y="106" type="line"/>
      <point x="790" y="136" type="line"/>
      <point x="610" y="591" type="line"/>
      <point x="307" y="136" type="line"/>
      <point x="459" y="106" type="line"/>
      <point x="449" y="0" type="line"/>
    </contour>
  </outline>
</glyph>
<glyph name="backslash" format="1">
  <advance width="854"/>
  <unicode hex="005C"/>
  <outline>
    <contour>
      <point x="602" y="-362" type="line"/>
      <point x="26" y="1597" type="line"/>
      <point x="254" y="1597" type="line"/>
      <point x="831" y="-362" type="line"/>
    </contour>
  </outline>
</glyph>
<glyph name="bracketright" format="1">
  <advance width="874"/>
  <unicode hex="005D"/>
  <outline>
    <contour>
      <point x="781" y="1535" type="curve" smooth="yes"/>
      <point x="573" y="37" type="line"/>
      <point x="548" y="-155"/>
      <point x="420" y="-215"/>
      <point x="262" y="-215" type="curve" smooth="yes"/>
      <point x="174" y="-215"/>
      <point x="2" y="-168"/>
      <point x="2" y="-168" type="curve"/>
      <point x="22" y="-45" type="line"/>
      <point x="297" y="-45" type="line"/>
      <point x="520" y="1611" type="line"/>
      <point x="245" y="1613" type="line"/>
      <point x="260" y="1741" type="line"/>
      <point x="351" y="1767"/>
      <point x="424" y="1788"/>
      <point x="533" y="1788" type="curve" smooth="yes"/>
      <point x="659" y="1788"/>
      <point x="785" y="1755"/>
      <point x="785" y="1645" type="curve" smooth="yes"/>
      <point x="785" y="1611"/>
      <point x="786" y="1575"/>
    </contour>
  </outline>
</glyph>
<glyph name="asciicircum" format="1">
  <advance width="1364"/>
  <unicode hex="005E"/>
  <outline>
    <contour>
      <point x="137" y="510" type="line"/>
      <point x="658" y="1531" type="line"/>
      <point x="915" y="1531" type="line"/>
      <point x="1192" y="510" type="line"/>
      <point x="937" y="510" type="line"/>
      <point x="758" y="1202" type="line"/>
      <point x="402" y="510" type="line"/>
    </contour>
  </outline>
</glyph>
<glyph name="underscore" format="1">
  <advance width="1335"/>
  <unicode hex="005F"/>
  <outline>
    <contour>
      <point x="-91" y="-187" type="line"/>
      <point x="1287" y="-187" type="line"/>
      <point x="1267" y="-338" type="line"/>
      <point x="-111" y="-338" type="line"/>
    </contour>
  </outline>
</glyph>
<glyph name="grave" format="1">
  <advance width="541"/>
  <unicode hex="0060"/>
  <outline>
    <contour>
      <point x="386" y="1241" type="line"/>
      <point x="303" y="1276"/>
      <point x="64" y="1454"/>
      <point x="0" y="1566" type="curve"/>
      <point x="203" y="1743" type="line"/>
      <point x="491" y="1311" type="line"/>
    </contour>
  </outline>
</glyph>
<glyph name="h" format="1">
  <advance width="1296"/>
  <unicode hex="0068"/>
  <outline>
    <contour>
      <point x="71" y="0" type="line"/>
      <point x="250" y="1482" type="line"/>
      <point x="123" y="1525" type="line"/>
      <point x="139" y="1608" type="line"/>
      <point x="548" y="1650" type="line"/>
      <point x="603" y="1623" type="line"/>
      <point x="516" y="915" type="line"/>
      <point x="604" y="1063"/>
      <point x="737" y="1163"/>
      <point x="900" y="1163" type="curve" smooth="yes"/>
      <point x="1054" y="1163"/>
      <point x="1165" y="1085"/>
      <point x="1165" y="861" type="curve" smooth="yes"/>
      <point x="1165" y="801"/>
      <point x="1135" y="617"/>
      <point x="1116" y="505" type="curve" smooth="yes"/>
      <point x="1099" y="403"/>
      <point x="1074" y="280"/>
      <point x="1074" y="206" type="curve" smooth="yes"/>
      <point x="1074" y="158"/>
      <point x="1093" y="151"/>
      <point x="1113" y="151" type="curve" smooth="yes"/>
      <point x="1135" y="151"/>
      <point x="1155" y="161"/>
      <point x="1203" y="197" type="curve"/>
      <point x="1231" y="124" type="line"/>
      <point x="1209" y="95"/>
      <point x="1111" y="-21"/>
      <point x="931" y="-21" type="curve" smooth="yes"/>
      <point x="751" y="-21"/>
      <point x="728" y="63"/>
      <point x="728" y="150" type="curve" smooth="yes"/>
      <point x="728" y="206"/>
      <point x="753" y="331"/>
      <point x="774" y="443" type="curve"/>
      <point x="793" y="550"/>
      <point x="821" y="709"/>
      <point x="819" y="825" type="curve" smooth="yes"/>
      <point x="817" y="935"/>
      <point x="793" y="965"/>
      <point x="740" y="965" type="curve" smooth="yes"/>
      <point x="658" y="965"/>
      <point x="552" y="844"/>
      <point x="490" y="705" type="curve"/>
      <point x="404" y="0" type="line"/>
    </contour>
  </outline>
</glyph>
<glyph name="i" format="1">
  <advance width="669"/>
  <unicode hex="0069"/>
  <outline>
    <contour>
      <point x="438" y="1338" type="curve" smooth="yes"/>
      <point x="349" y="1338"/>
      <point x="274" y="1422"/>
      <point x="276" y="1505" type="curve" smooth="yes"/>
      <point x="279" y="1614"/>
      <point x="351" y="1701"/>
      <point x="474" y="1701" type="curve" smooth="yes"/>
      <point x="580" y="1701"/>
      <point x="646" y="1620"/>
      <point x="644" y="1540" type="curve" smooth="yes"/>
      <point x="641" y="1429"/>
      <point x="580" y="1338"/>
    </contour>
    <contour>
      <point x="108" y="129" type="curve" smooth="yes"/>
      <point x="132" y="288"/>
      <point x="170" y="596"/>
      <point x="221" y="980" type="curve"/>
      <point x="57" y="1031" type="line"/>
      <point x="75" y="1112" type="line"/>
      <point x="521" y="1163" type="line"/>
      <point x="576" y="1139" type="line"/>
      <point x="448" y="227" type="line" smooth="yes"/>
      <point x="441" y="178"/>
      <point x="453" y="151"/>
      <point x="483" y="151" type="curve" smooth="yes"/>
      <point x="506" y="151"/>
      <point x="529" y="163"/>
      <point x="575" y="197" type="curve"/>
      <point x="603" y="124" type="line"/>
      <point x="579" y="94"/>
      <point x="482" y="-20"/>
      <point x="307" y="-20" type="curve" smooth="yes"/>
      <point x="165" y="-20"/>
      <point x="95" y="42"/>
    </contour>
  </outline>
</glyph>
<glyph name="k" format="1">
  <advance width="1158"/>
  <unicode hex="006B"/>
  <outline>
    <contour>
      <point x="63" y="0" type="line"/>
      <point x="258" y="1482" type="line"/>
      <point x="130" y="1525" type="line"/>
      <point x="147" y="1608" type="line"/>
      <point x="556" y="1650" type="line"/>
      <point x="611" y="1623" type="line"/>
      <point x="396" y="0" type="line"/>
    </contour>
    <contour>
      <point x="664" y="101" type="curve" smooth="yes"/>
      <point x="478" y="610" type="line"/>
      <point x="483" y="611" type="line"/>
      <point x="478" y="611" type="line"/>
      <point x="578" y="663"/>
      <point x="660" y="707"/>
      <point x="778" y="863" type="curve" smooth="yes"/>
      <point x="815" y="912"/>
      <point x="831" y="964"/>
      <point x="831" y="1028" type="curve" smooth="yes"/>
      <point x="831" y="1137"/>
      <point x="927" y="1163"/>
      <point x="996" y="1163" type="curve" smooth="yes"/>
      <point x="1081" y="1163"/>
      <point x="1126" y="1103"/>
      <point x="1126" y="1034" type="curve" smooth="yes"/>
      <point x="1126" y="960"/>
      <point x="1097" y="910"/>
      <point x="1069" y="872" type="curve"/>
      <point x="995" y="778"/>
      <point x="876" y="704"/>
      <point x="764" y="654" type="curve"/>
      <point x="948" y="274" type="line"/>
      <point x="980" y="213"/>
      <point x="1022" y="182"/>
      <point x="1055" y="182" type="curve" smooth="yes"/>
      <point x="1079" y="182"/>
      <point x="1132" y="198"/>
      <point x="1171" y="228" type="curve"/>
      <point x="1205" y="157" type="line"/>
      <point x="1166" y="109"/>
      <point x="1031" y="-19"/>
      <point x="861" y="-19" type="curve" smooth="yes"/>
      <point x="744" y="-19"/>
      <point x="690" y="30"/>
    </contour>
  </outline>
</glyph>
<glyph name="m" format="1">
  <advance width="1954"/>
  <unicode hex="006D"/>
  <outline>
    <contour>
      <point x="77" y="0" type="line"/>
      <point x="209" y="962" type="line"/>
      <point x="101" y="1022" type="line"/>
      <point x="118" y="1111" type="line"/>
      <point x="490" y="1163" type="line"/>
      <point x="543" y="1139" type="line"/>
      <point x="527" y="927" type="line"/>
      <point x="609" y="1060"/>
      <point x="736" y="1163"/>
      <point x="889" y="1163" type="curve" smooth="yes"/>
      <point x="1035" y="1163"/>
      <point x="1141" y="1099"/>
      <point x="1161" y="916" type="curve"/>
      <point x="1248" y="1073"/>
      <point x="1385" y="1163"/>
      <point x="1558" y="1163" type="curve" smooth="yes"/>
      <point x="1712" y="1163"/>
      <point x="1823" y="1085"/>
      <point x="1823" y="861" type="curve" smooth="yes"/>
      <point x="1823" y="801"/>
      <point x="1793" y="617"/>
      <point x="1774" y="505" type="curve" smooth="yes"/>
      <point x="1757" y="403"/>
      <point x="1732" y="280"/>
      <point x="1732" y="206" type="curve" smooth="yes"/>
      <point x="1732" y="158"/>
      <point x="1751" y="151"/>
      <point x="1771" y="151" type="curve" smooth="yes"/>
      <point x="1793" y="151"/>
      <point x="1813" y="161"/>
      <point x="1861" y="197" type="curve"/>
      <point x="1889" y="124" type="line"/>
      <point x="1867" y="95"/>
      <point x="1769" y="-21"/>
      <point x="1589" y="-21" type="curve" smooth="yes"/>
      <point x="1409" y="-21"/>
      <point x="1386" y="73"/>
      <point x="1386" y="150" type="curve" smooth="yes"/>
      <point x="1386" y="206"/>
      <point x="1411" y="331"/>
      <point x="1432" y="443" type="curve"/>
      <point x="1451" y="550"/>
      <point x="1479" y="709"/>
      <point x="1477" y="825" type="curve" smooth="yes"/>
      <point x="1475" y="935"/>
      <point x="1451" y="965"/>
      <point x="1398" y="965" type="curve" smooth="yes"/>
      <point x="1321" y="965"/>
      <point x="1224" y="882"/>
      <point x="1161" y="758" type="curve"/>
      <point x="1157" y="675"/>
      <point x="1148" y="582"/>
      <point x="1137" y="505" type="curve"/>
      <point x="1078" y="0" type="line"/>
      <point x="743" y="0" type="line"/>
      <point x="800" y="443" type="line" smooth="yes"/>
      <point x="814" y="552"/>
      <point x="833" y="704"/>
      <point x="830" y="820" type="curve" smooth="yes"/>
      <point x="827" y="945"/>
      <point x="800" y="965"/>
      <point x="737" y="965" type="curve" smooth="yes"/>
      <point x="667" y="965"/>
      <point x="565" y="864"/>
      <point x="502" y="742" type="curve"/>
      <point x="400" y="0" type="line"/>
    </contour>
  </outline>
</glyph>
<glyph name="q" format="1">
  <advance width="1227"/>
  <unicode hex="0071"/>
  <outline>
    <contour>
      <point x="404" y="-20" type="curve" smooth="yes"/>
      <point x="154" y="-20"/>
      <point x="60" y="172"/>
      <point x="60" y="402" type="curve" smooth="yes"/>
      <point x="60" y="791"/>
      <point x="274" y="1163"/>
      <point x="737" y="1163" type="curve" smooth="yes"/>
      <point x="824" y="1163"/>
      <point x="932" y="1137"/>
      <point x="991" y="1115" type="curve"/>
      <point x="990" y="1114" type="line"/>
      <point x="1007" y="1120" type="line"/>
      <point x="1153" y="1163" type="line"/>
      <point x="961" y="-274" type="line" smooth="yes"/>
      <point x="956" y="-310"/>
      <point x="967" y="-346"/>
      <point x="1001" y="-346" type="curve" smooth="yes"/>
      <point x="1024" y="-346"/>
      <point x="1047" y="-333"/>
      <point x="1091" y="-300" type="curve"/>
      <point x="1119" y="-373" type="line"/>
      <point x="1097" y="-403"/>
      <point x="998" y="-518"/>
      <point x="818" y="-518" type="curve" smooth="yes"/>
      <point x="661" y="-518"/>
      <point x="610" y="-428"/>
      <point x="616" y="-347" type="curve"/>
      <point x="679" y="84" type="line"/>
      <point x="617" y="28"/>
      <point x="527" y="-20"/>
    </contour>
    <contour>
      <point x="545" y="154" type="curve" smooth="yes"/>
      <point x="611" y="154"/>
      <point x="666" y="200"/>
      <point x="704" y="252" type="curve"/>
      <point x="815" y="1008" type="line"/>
      <point x="784" y="1019"/>
      <point x="750" y="1023"/>
      <point x="713" y="1023" type="curve" smooth="yes"/>
      <point x="470" y="1023"/>
      <point x="401" y="680"/>
      <point x="401" y="413" type="curve" smooth="yes"/>
      <point x="401" y="249"/>
      <point x="454" y="154"/>
    </contour>
  </outline>
</glyph>
<glyph name="r" format="1">
  <advance width="843"/>
  <unicode hex="0072"/>
  <outline>
    <contour>
      <point x="80" y="0" type="line"/>
      <point x="212" y="962" type="line"/>
      <point x="105" y="1022" type="line"/>
      <point x="122" y="1111" type="line"/>
      <point x="450" y="1163" type="line"/>
      <point x="503" y="1139" type="line"/>
      <point x="523" y="866" type="line"/>
      <point x="568" y="1024"/>
      <point x="657" y="1163"/>
      <point x="818" y="1163" type="curve" smooth="yes"/>
      <point x="853" y="1163"/>
      <point x="878" y="1150"/>
      <point x="888" y="1143" type="curve"/>
      <point x="819" y="786" type="line"/>
      <point x="806" y="802"/>
      <point x="750" y="817"/>
      <point x="712" y="817" type="curve" smooth="yes"/>
      <point x="632" y="817"/>
      <point x="575" y="800"/>
      <point x="508" y="760" type="curve"/>
      <point x="403" y="0" type="line"/>
    </contour>
  </outline>
</glyph>
<glyph name="v" format="1">
  <advance width="1083"/>
  <unicode hex="0076"/>
  <outline>
    <contour>
      <point x="324" y="-21" type="line"/>
      <point x="245" y="355" type="line"/>
      <point x="122" y="925" type="line" smooth="yes"/>
      <point x="114" y="966"/>
      <point x="101" y="980"/>
      <point x="79" y="981" type="curve" smooth="yes"/>
      <point x="53" y="982"/>
      <point x="23" y="963"/>
      <point x="4" y="948" type="curve"/>
      <point x="-25" y="1028" type="line"/>
      <point x="-6" y="1052"/>
      <point x="100" y="1163"/>
      <point x="243" y="1163" type="curve" smooth="yes"/>
      <point x="363" y="1163"/>
      <point x="429" y="1114"/>
      <point x="443" y="1026" type="curve"/>
      <point x="549" y="455" type="line"/>
      <point x="578" y="239" type="line"/>
      <point x="652" y="367" type="line"/>
      <point x="727" y="509"/>
      <point x="788" y="636"/>
      <point x="788" y="802" type="curve" smooth="yes"/>
      <point x="788" y="870"/>
      <point x="755" y="953"/>
      <point x="755" y="1025" type="curve" smooth="yes"/>
      <point x="755" y="1103"/>
      <point x="809" y="1163"/>
      <point x="913" y="1163" type="curve" smooth="yes"/>
      <point x="1061" y="1163"/>
      <point x="1084" y="1055"/>
      <point x="1086" y="947" type="curve" smooth="yes"/>
      <point x="1089" y="762"/>
      <point x="913" y="462"/>
      <point x="772" y="284" type="curve"/>
      <point x="516" y="-9" type="line"/>
    </contour>
  </outline>
</glyph>
<glyph name="x" format="1">
  <advance width="1030"/>
  <unicode hex="0078"/>
  <outline>
    <contour>
      <point x="-99" y="0" type="line"/>
      <point x="364" y="587" type="line"/>
      <point x="199" y="901" type="line" smooth="yes"/>
      <point x="179" y="939"/>
      <point x="153" y="984"/>
      <point x="121" y="984" type="curve" smooth="yes"/>
      <point x="83" y="984"/>
      <point x="67" y="981"/>
      <point x="41" y="965" type="curve"/>
      <point x="2" y="1049" type="line"/>
      <point x="21" y="1073"/>
      <point x="134" y="1163"/>
      <point x="308" y="1163" type="curve" smooth="yes"/>
      <point x="414" y="1163"/>
      <point x="482" y="1125"/>
      <point x="503" y="1058" type="curve"/>
      <point x="588" y="806" type="line"/>
      <point x="810" y="1155" type="line"/>
      <point x="1115" y="1155" type="line"/>
      <point x="668" y="587" type="line"/>
      <point x="827" y="299" type="line" smooth="yes"/>
      <point x="847" y="262"/>
      <point x="894" y="179"/>
      <point x="929" y="179" type="curve" smooth="yes"/>
      <point x="950" y="179"/>
      <point x="974" y="180"/>
      <point x="1026" y="217" type="curve"/>
      <point x="1071" y="133" type="line"/>
      <point x="1053" y="105"/>
      <point x="933" y="-20"/>
      <point x="726" y="-20" type="curve" smooth="yes"/>
      <point x="623" y="-20"/>
      <point x="571" y="22"/>
      <point x="548" y="85" type="curve"/>
      <point x="449" y="373" type="line"/>
      <point x="216" y="0" type="line"/>
    </contour>
  </outline>
</glyph>
<glyph name="braceleft" format="1">
  <advance width="1044"/>
  <unicode hex="007B"/>
  <outline>
    <contour>
      <point x="222" y="-83" type="curve" smooth="yes"/>
      <point x="223" y="-54"/>
      <point x="316" y="579"/>
      <point x="316" y="579" type="curve"/>
      <point x="316" y="601"/>
      <point x="296" y="625"/>
      <point x="264" y="646" type="curve" smooth="yes"/>
      <point x="221" y="675"/>
      <point x="158" y="700"/>
      <point x="99" y="714" type="curve"/>
      <point x="117" y="838" type="line"/>
      <point x="182" y="854"/>
      <point x="257" y="876"/>
      <point x="309" y="903" type="curve" smooth="yes"/>
      <point x="345" y="922"/>
      <point x="370" y="943"/>
      <point x="374" y="966" type="curve" smooth="yes"/>
      <point x="458" y="1513" type="line" smooth="yes"/>
      <point x="489" y="1711"/>
      <point x="616" y="1765"/>
      <point x="773" y="1765" type="curve" smooth="yes"/>
      <point x="862" y="1765"/>
      <point x="1033" y="1718"/>
      <point x="1033" y="1718" type="curve"/>
      <point x="1033" y="1718"/>
      <point x="1014" y="1620"/>
      <point x="1013" y="1601" type="curve"/>
      <point x="737" y="1601" type="line"/>
      <point x="641" y="970" type="line" smooth="yes"/>
      <point x="633" y="916"/>
      <point x="596" y="879"/>
      <point x="543" y="846" type="curve" smooth="yes"/>
      <point x="514" y="829"/>
      <point x="398" y="776"/>
      <point x="398" y="776" type="curve"/>
      <point x="457" y="745"/>
      <point x="511" y="714"/>
      <point x="540" y="684" type="curve" smooth="yes"/>
      <point x="570" y="653"/>
      <point x="587" y="616"/>
      <point x="581" y="575" type="curve" smooth="yes"/>
      <point x="486" y="-55" type="line"/>
      <point x="761" y="-55" type="line"/>
      <point x="758" y="-70"/>
      <point x="745" y="-179"/>
      <point x="745" y="-179" type="curve"/>
      <point x="654" y="-205"/>
      <point x="580" y="-226"/>
      <point x="470" y="-226" type="curve" smooth="yes"/>
      <point x="345" y="-226"/>
      <point x="221" y="-193"/>
    </contour>
  </outline>
</glyph>
<glyph name="asciitilde" format="1">
  <advance width="1137"/>
  <unicode hex="007E"/>
  <outline>
    <contour>
      <point x="192" y="757" type="curve"/>
      <point x="108" y="876" type="line"/>
      <point x="140" y="972"/>
      <point x="269" y="1086"/>
      <point x="420" y="1086" type="curve" smooth="yes"/>
      <point x="603" y="1086"/>
      <point x="659" y="934"/>
      <point x="782" y="934" type="curve" smooth="yes"/>
      <point x="871" y="934"/>
      <point x="927" y="971"/>
      <point x="974" y="1041" type="curve"/>
      <point x="1078" y="922" type="line"/>
      <point x="1049" y="814"/>
      <point x="907" y="692"/>
      <point x="756" y="692" type="curve" smooth="yes"/>
      <point x="563" y="692"/>
      <point x="509" y="854"/>
      <point x="384" y="854" type="curve" smooth="yes"/>
      <point x="315" y="854"/>
      <point x="239" y="827"/>
    </contour>
  </outline>
</glyph>
<glyph name="exclamdown" format="1">
  <advance width="716"/>
  <unicode hex="00A1"/>
  <outline>
    <contour>
      <point x="507" y="816" type="line"/>
      <point x="381" y="-434" type="line"/>
      <point x="46" y="-434" type="line"/>
      <point x="304" y="816" type="line"/>
    </contour>
    <contour>
      <point x="632" y="1203" type="curve" smooth="yes"/>
      <point x="632" y="1078"/>
      <point x="532" y="1003"/>
      <point x="441" y="1003" type="curve" smooth="yes"/>
      <point x="342" y="1003"/>
      <point x="293" y="1082"/>
      <point x="293" y="1164" type="curve" smooth="yes"/>
      <point x="293" y="1300"/>
      <point x="399" y="1364"/>
      <point x="495" y="1364" type="curve" smooth="yes"/>
      <point x="570" y="1364"/>
      <point x="632" y="1295"/>
    </contour>
  </outline>
</glyph>
<glyph name="cent" format="1">
  <advance width="1056"/>
  <unicode hex="00A2"/>
  <outline>
    <contour>
      <point x="403" y="-9" type="line"/>
      <point x="228" y="32"/>
      <point x="121" y="187"/>
      <point x="117" y="450" type="curve"/>
      <point x="111" y="751"/>
      <point x="276" y="1080"/>
      <point x="623" y="1149" type="curve"/>
      <point x="669" y="1358" type="line"/>
      <point x="819" y="1358" type="line"/>
      <point x="776" y="1163" type="line"/>
      <point x="856" y="1162"/>
      <point x="955" y="1149"/>
      <point x="1019" y="1125" type="curve"/>
      <point x="926" y="803" type="line"/>
      <point x="873" y="820"/>
      <point x="762" y="1006"/>
      <point x="691" y="1006" type="curve" smooth="yes"/>
      <point x="582" y="1006"/>
      <point x="450" y="782"/>
      <point x="458" y="460" type="curve" smooth="yes"/>
      <point x="463" y="250"/>
      <point x="517" y="169"/>
      <point x="633" y="169" type="curve" smooth="yes"/>
      <point x="762" y="169"/>
      <point x="834" y="228"/>
      <point x="887" y="297" type="curve"/>
      <point x="951" y="194" type="line"/>
      <point x="899" y="112"/>
      <point x="762" y="-3"/>
      <point x="551" y="-18" type="curve"/>
      <point x="515" y="-215" type="line"/>
      <point x="365" y="-215" type="line"/>
    </contour>
  </outline>
</glyph>
<glyph name="brokenbar" format="1">
  <advance width="854"/>
  <unicode hex="00A6"/>
  <outline>
    <contour>
      <point x="340" y="916" type="line"/>
      <point x="340" y="1780" type="line"/>
      <point x="553" y="1780" type="line"/>
      <point x="553" y="916" type="line"/>
    </contour>
    <contour>
      <point x="340" y="-186" type="line"/>
      <point x="340" y="678" type="line"/>
      <point x="553" y="678" type="line"/>
      <point x="553" y="-186" type="line"/>
    </contour>
  </outline>
</glyph>
<glyph name="logicalnot" format="1">
  <advance width="1370"/>
  <unicode hex="00AC"/>
  <outline>
    <contour>
      <point x="209" y="701" type="line"/>
      <point x="228" y="873" type="line"/>
      <point x="1208" y="873" type="line"/>
      <point x="1146" y="322" type="line"/>
      <point x="929" y="322" type="line"/>
      <point x="972" y="701" type="line"/>
    </contour>
  </outline>
</glyph>
<glyph name="mu" format="1">
  <advance width="1364"/>
  <unicode hex="00B5"/>
  <outline>
    <contour>
      <point x="367" y="56" type="curve"/>
      <point x="306" y="-372" type="line"/>
      <point x="41" y="-372" type="line"/>
      <point x="149" y="358" type="line"/>
      <point x="174" y="547"/>
      <point x="211" y="714"/>
      <point x="229" y="923" type="curve"/>
      <point x="229" y="972"/>
      <point x="205" y="981"/>
      <point x="186" y="981" type="curve" smooth="yes"/>
      <point x="159" y="981"/>
      <point x="133" y="966"/>
      <point x="112" y="949" type="curve"/>
      <point x="82" y="1028" type="line"/>
      <point x="106" y="1049"/>
      <point x="188" y="1163"/>
      <point x="389" y="1163" type="curve" smooth="yes"/>
      <point x="488" y="1163"/>
      <point x="574" y="1131"/>
      <point x="569" y="1034" type="curve" smooth="yes"/>
      <point x="563" y="928"/>
      <point x="543" y="798"/>
      <point x="525" y="681" type="curve" smooth="yes"/>
      <point x="506" y="563"/>
      <point x="486" y="479"/>
      <point x="486" y="353" type="curve" smooth="yes"/>
      <point x="486" y="204"/>
      <point x="554" y="170"/>
      <point x="609" y="170" type="curve" smooth="yes"/>
      <point x="702" y="170"/>
      <point x="733" y="236"/>
      <point x="773" y="288" type="curve"/>
      <point x="892" y="1155" type="line"/>
      <point x="1218" y="1155" type="line"/>
      <point x="1090" y="227" type="line" smooth="yes"/>
      <point x="1083" y="175"/>
      <point x="1099" y="151"/>
      <point x="1130" y="151" type="curve" smooth="yes"/>
      <point x="1159" y="151"/>
      <point x="1203" y="183"/>
      <point x="1222" y="197" type="curve"/>
      <point x="1250" y="124" type="line"/>
      <point x="1223" y="78"/>
      <point x="1118" y="-20"/>
      <point x="970" y="-20" type="curve" smooth="yes"/>
      <point x="890" y="-20"/>
      <point x="815" y="5"/>
      <point x="827" y="118" type="curve"/>
      <point x="793" y="85"/>
      <point x="733" y="-20"/>
      <point x="574" y="-20" type="curve" smooth="yes"/>
      <point x="495" y="-20"/>
      <point x="399" y="6"/>
    </contour>
  </outline>
</glyph>
<glyph name="guillemotright" format="1">
  <advance width="1878"/>
  <unicode hex="00BB"/>
  <outline>
    <contour>
      <point x="913" y="708" type="line"/>
      <point x="891" y="548" type="line"/>
      <point x="159" y="142" type="line"/>
      <point x="101" y="317" type="line"/>
      <point x="561" y="633" type="line"/>
      <point x="187" y="944" type="line"/>
      <point x="287" y="1096" type="line"/>
    </contour>
    <contour>
      <point x="1589" y="708" type="line"/>
      <point x="1567" y="548" type="line"/>
      <point x="835" y="142" type="line"/>
      <point x="777" y="317" type="line"/>
      <point x="1237" y="633" type="line"/>
      <point x="863" y="944" type="line"/>
      <point x="963" y="1096" type="line"/>
    </contour>
  </outline>
</glyph>
<glyph name="onequarter" format="1">
  <advance width="2560"/>
  <unicode hex="00BC"/>
  <outline>
    <contour>
      <point x="273" y="636" type="line"/>
      <point x="284" y="744" type="line"/>
      <point x="480" y="770" type="line"/>
      <point x="562" y="1375" type="line"/>
      <point x="341" y="1333" type="line"/>
      <point x="329" y="1446" type="line"/>
      <point x="449" y="1481"/>
      <point x="684" y="1604"/>
      <point x="735" y="1645" type="curve"/>
      <point x="854" y="1624" type="line"/>
      <point x="735" y="770" type="line"/>
      <point x="940" y="743" type="line"/>
      <point x="929" y="636" type="line"/>
    </contour>
    <contour>
      <point x="1896" y="-175" type="line"/>
      <point x="1943" y="156" type="line"/>
      <point x="1394" y="156" type="line"/>
      <point x="1357" y="251" type="line"/>
      <point x="1931" y="1114" type="line"/>
      <point x="2089" y="1115" type="line"/>
      <point x="2212" y="1011" type="line"/>
      <point x="1764" y="438" type="line"/>
      <point x="1637" y="304" type="line"/>
      <point x="1965" y="315" type="line"/>
      <point x="1998" y="547" type="line"/>
      <point x="2245" y="570" type="line"/>
      <point x="2212" y="324" type="line"/>
      <point x="2401" y="331" type="line"/>
      <point x="2381" y="156" type="line"/>
      <point x="2189" y="156" type="line"/>
      <point x="2144" y="-175" type="line"/>
    </contour>
    <contour>
      <point x="784" y="0" type="line"/>
      <point x="1465" y="1530" type="line"/>
      <point x="1684" y="1530" type="line"/>
      <point x="1003" y="0" type="line"/>
    </contour>
  </outline>
</glyph>
<glyph name="onehalf" format="1">
  <advance width="2560"/>
  <unicode hex="00BD"/>
  <outline>
    <contour>
      <point x="784" y="0" type="line"/>
      <point x="1465" y="1530" type="line"/>
      <point x="1684" y="1530" type="line"/>
      <point x="1003" y="0" type="line"/>
    </contour>
    <contour>
      <point x="273" y="636" type="line"/>
      <point x="284" y="744" type="line"/>
      <point x="480" y="770" type="line"/>
      <point x="562" y="1375" type="line"/>
      <point x="341" y="1333" type="line"/>
      <point x="329" y="1446" type="line"/>
      <point x="449" y="1481"/>
      <point x="684" y="1604"/>
      <point x="735" y="1645" type="curve"/>
      <point x="854" y="1624" type="line"/>
      <point x="735" y="770" type="line"/>
      <point x="940" y="743" type="line"/>
      <point x="929" y="636" type="line"/>
    </contour>
    <contour>
      <point x="1440" y="-78" type="line"/>
      <point x="1395" y="18" type="line"/>
      <point x="1546" y="108"/>
      <point x="1969" y="382"/>
      <point x="1969" y="618" type="curve" smooth="yes"/>
      <point x="1969" y="691"/>
      <point x="1909" y="769"/>
      <point x="1805" y="769" type="curve" smooth="yes"/>
      <point x="1704" y="769"/>
      <point x="1594" y="712"/>
      <point x="1514" y="621" type="curve"/>
      <point x="1434" y="735" type="line"/>
      <point x="1492" y="815"/>
      <point x="1685" y="950"/>
      <point x="1855" y="952" type="curve" smooth="yes"/>
      <point x="2170" y="956"/>
      <point x="2241" y="795"/>
      <point x="2241" y="661" type="curve" smooth="yes"/>
      <point x="2241" y="437"/>
      <point x="2069" y="269"/>
      <point x="1760" y="78" type="curve"/>
      <point x="2165" y="123" type="line"/>
      <point x="2260" y="258" type="line"/>
      <point x="2363" y="229" type="line"/>
      <point x="2268" y="-78" type="line"/>
    </contour>
  </outline>
</glyph>
<glyph name="Agrave" format="1">
  <advance width="1375"/>
  <unicode hex="00C0"/>
  <outline>
    <contour>
      <point x="-18" y="135" type="line"/>
      <point x="667" y="1530" type="line"/>
      <point x="1014" y="1530" type="line"/>
      <point x="1261" y="138" type="line"/>
      <point x="1422" y="106" type="line"/>
      <point x="1416" y="0" type="line"/>
      <point x="727" y="0" type="line"/>
      <point x="732" y="106" type="line"/>
      <point x="889" y="135" type="line"/>
      <point x="849" y="416" type="line"/>
      <point x="339" y="416" type="line"/>
      <point x="214" y="136" type="line"/>
      <point x="402" y="106" type="line"/>
      <point x="394" y="0" type="line"/>
      <point x="-164" y="0" type="line"/>
      <point x="-156" y="106" type="line"/>
    </contour>
    <contour>
      <point x="406" y="567" type="line"/>
      <point x="828" y="567" type="line"/>
      <point x="750" y="1117" type="line"/>
      <point x="741" y="1316" type="line"/>
    </contour>
    <contour>
      <point x="822" y="1570" type="line"/>
      <point x="726" y="1606"/>
      <point x="534" y="1722"/>
      <point x="475" y="1829" type="curve"/>
      <point x="662" y="2014" type="line"/>
      <point x="938" y="1672" type="line"/>
    </contour>
  </outline>
</glyph>
<glyph name="Aacute" format="1">
  <advance width="1375"/>
  <unicode hex="00C1"/>
  <outline>
    <contour>
      <point x="-18" y="135" type="line"/>
      <point x="667" y="1530" type="line"/>
      <point x="1014" y="1530" type="line"/>
      <point x="1261" y="138" type="line"/>
      <point x="1422" y="106" type="line"/>
      <point x="1416" y="0" type="line"/>
      <point x="727" y="0" type="line"/>
      <point x="732" y="106" type="line"/>
      <point x="889" y="135" type="line"/>
      <point x="849" y="416" type="line"/>
      <point x="339" y="416" type="line"/>
      <point x="214" y="136" type="line"/>
      <point x="402" y="106" type="line"/>
      <point x="394" y="0" type="line"/>
      <point x="-164" y="0" type="line"/>
      <point x="-156" y="106" type="line"/>
    </contour>
    <contour>
      <point x="406" y="567" type="line"/>
      <point x="828" y="567" type="line"/>
      <point x="750" y="1117" type="line"/>
      <point x="741" y="1316" type="line"/>
    </contour>
    <contour>
      <point x="831" y="1570" type="curve"/>
      <point x="715" y="1672" type="line"/>
      <point x="991" y="2014" type="line"/>
      <point x="1178" y="1829" type="line"/>
      <point x="1126" y="1728"/>
      <point x="927" y="1606"/>
    </contour>
  </outline>
</glyph>
<glyph name="Acircumflex" format="1">
  <advance width="1375"/>
  <unicode hex="00C2"/>
  <outline>
    <contour>
      <point x="-18" y="135" type="line"/>
      <point x="667" y="1530" type="line"/>
      <point x="1014" y="1530" type="line"/>
      <point x="1261" y="138" type="line"/>
      <point x="1422" y="106" type="line"/>
      <point x="1416" y="0" type="line"/>
      <point x="727" y="0" type="line"/>
      <point x="732" y="106" type="line"/>
      <point x="889" y="135" type="line"/>
      <point x="849" y="416" type="line"/>
      <point x="339" y="416" type="line"/>
      <point x="214" y="136" type="line"/>
      <point x="402" y="106" type="line"/>
      <point x="394" y="0" type="line"/>
      <point x="-164" y="0" type="line"/>
      <point x="-156" y="106" type="line"/>
    </contour>
    <contour>
      <point x="406" y="567" type="line"/>
      <point x="828" y="567" type="line"/>
      <point x="750" y="1117" type="line"/>
      <point x="741" y="1316" type="line"/>
    </contour>
    <contour>
      <point x="575" y="1600" type="line"/>
      <point x="468" y="1657" type="line"/>
      <point x="835" y="2014" type="line"/>
      <point x="1013" y="2014" type="line"/>
      <point x="1223" y="1657" type="line"/>
      <point x="1099" y="1599" type="line"/>
      <point x="898" y="1806" type="line"/>
    </contour>
  </outline>
</glyph>
<glyph name="Atilde" format="1">
  <advance width="1375"/>
  <unicode hex="00C3"/>
  <outline>
    <contour>
      <point x="-18" y="135" type="line"/>
      <point x="667" y="1530" type="line"/>
      <point x="1014" y="1530" type="line"/>
      <point x="1261" y="138" type="line"/>
      <point x="1422" y="106" type="line"/>
      <point x="1416" y="0" type="line"/>
      <point x="727" y="0" type="line"/>
      <point x="732" y="106" type="line"/>
      <point x="889" y="135" type="line"/>
      <point x="849" y="416" type="line"/>
      <point x="339" y="416" type="line"/>
      <point x="214" y="136" type="line"/>
      <point x="402" y="106" type="line"/>
      <point x="394" y="0" type="line"/>
      <point x="-164" y="0" type="line"/>
      <point x="-156" y="106" type="line"/>
    </contour>
    <contour>
      <point x="406" y="567" type="line"/>
      <point x="828" y="567" type="line"/>
      <point x="750" y="1117" type="line"/>
      <point x="741" y="1316" type="line"/>
    </contour>
    <contour>
      <point x="578" y="1677" type="curve"/>
      <point x="501" y="1801" type="line"/>
      <point x="542" y="1884"/>
      <point x="658" y="1970"/>
      <point x="758" y="1970" type="curve" smooth="yes"/>
      <point x="913" y="1970"/>
      <point x="938" y="1820"/>
      <point x="1037" y="1820" type="curve" smooth="yes"/>
      <point x="1111" y="1820"/>
      <point x="1151" y="1872"/>
      <point x="1189" y="1920" type="curve"/>
      <point x="1277" y="1789" type="line"/>
      <point x="1243" y="1702"/>
      <point x="1130" y="1608"/>
      <point x="1026" y="1608" type="curve" smooth="yes"/>
      <point x="849" y="1608"/>
      <point x="845" y="1755"/>
      <point x="725" y="1758" type="curve" smooth="yes"/>
      <point x="663" y="1759"/>
      <point x="616" y="1717"/>
    </contour>
  </outline>
</glyph>
<glyph name="Igrave" format="1">
  <advance width="783"/>
  <unicode hex="00CC"/>
  <outline>
    <contour>
      <point x="-18" y="0" type="line"/>
      <point x="-5" y="106" type="line"/>
      <point x="145" y="136" type="line"/>
      <point x="310" y="1394" type="line"/>
      <point x="163" y="1420" type="line"/>
      <point x="175" y="1530" type="line"/>
      <point x="846" y="1530" type="line"/>
      <point x="834" y="1420" type="line"/>
      <point x="662" y="1394" type="line"/>
      <point x="497" y="136" type="line"/>
      <point x="672" y="106" type="line"/>
      <point x="665" y="0" type="line"/>
    </contour>
    <contour>
      <point x="547" y="1570" type="line"/>
      <point x="451" y="1606"/>
      <point x="259" y="1722"/>
      <point x="200" y="1829" type="curve"/>
      <point x="387" y="2014" type="line"/>
      <point x="663" y="1672" type="line"/>
    </contour>
  </outline>
</glyph>
<glyph name="Idieresis" format="1">
  <advance width="783"/>
  <unicode hex="00CF"/>
  <outline>
    <contour>
      <point x="-18" y="0" type="line"/>
      <point x="-5" y="106" type="line"/>
      <point x="145" y="136" type="line"/>
      <point x="310" y="1394" type="line"/>
      <point x="163" y="1420" type="line"/>
      <point x="175" y="1530" type="line"/>
      <point x="846" y="1530" type="line"/>
      <point x="834" y="1420" type="line"/>
      <point x="662" y="1394" type="line"/>
      <point x="497" y="136" type="line"/>
      <point x="672" y="106" type="line"/>
      <point x="665" y="0" type="line"/>
    </contour>
    <contour>
      <point x="760" y="1661" type="curve" smooth="yes"/>
      <point x="680" y="1661"/>
      <point x="623" y="1725"/>
      <point x="625" y="1808" type="curve" smooth="yes"/>
      <point x="627" y="1917"/>
      <point x="691" y="1984"/>
      <point x="793" y="1984" type="curve" smooth="yes"/>
      <point x="888" y="1984"/>
      <point x="937" y="1923"/>
      <point x="935" y="1843" type="curve" smooth="yes"/>
      <point x="933" y="1732"/>
      <point x="878" y="1661"/>
    </contour>
    <contour>
      <point x="308" y="1661" type="curve" smooth="yes"/>
      <point x="228" y="1661"/>
      <point x="171" y="1725"/>
      <point x="173" y="1808" type="curve" smooth="yes"/>
      <point x="175" y="1917"/>
      <point x="239" y="1984"/>
      <point x="341" y="1984" type="curve" smooth="yes"/>
      <point x="436" y="1984"/>
      <point x="485" y="1923"/>
      <point x="483" y="1843" type="curve" smooth="yes"/>
      <point x="481" y="1732"/>
      <point x="426" y="1661"/>
    </contour>
  </outline>
</glyph>
<glyph name="Ntilde" format="1">
  <advance width="1545"/>
  <unicode hex="00D1"/>
  <outline>
    <contour>
      <point x="-33" y="0" type="line"/>
      <point x="-25" y="106" type="line"/>
      <point x="124" y="136" type="line"/>
      <point x="310" y="1394" type="line"/>
      <point x="140" y="1420" type="line"/>
      <point x="156" y="1530" type="line"/>
      <point x="713" y="1530" type="line"/>
      <point x="1084" y="535" type="line"/>
      <point x="1162" y="305" type="line"/>
      <point x="1298" y="1394" type="line"/>
      <point x="1126" y="1420" type="line"/>
      <point x="1137" y="1530" type="line"/>
      <point x="1639" y="1530" type="line"/>
      <point x="1628" y="1420" type="line"/>
      <point x="1505" y="1394" type="line"/>
      <point x="1293" y="0" type="line"/>
      <point x="935" y="0" type="line"/>
      <point x="544" y="1028" type="line"/>
      <point x="466" y="1282" type="line"/>
      <point x="341" y="136" type="line"/>
      <point x="531" y="106" type="line"/>
      <point x="520" y="0" type="line"/>
    </contour>
    <contour>
      <point x="688" y="1677" type="curve"/>
      <point x="611" y="1801" type="line"/>
      <point x="652" y="1884"/>
      <point x="768" y="1970"/>
      <point x="868" y="1970" type="curve" smooth="yes"/>
      <point x="1023" y="1970"/>
      <point x="1048" y="1820"/>
      <point x="1147" y="1820" type="curve" smooth="yes"/>
      <point x="1221" y="1820"/>
      <point x="1261" y="1872"/>
      <point x="1299" y="1920" type="curve"/>
      <point x="1387" y="1789" type="line"/>
      <point x="1353" y="1702"/>
      <point x="1240" y="1608"/>
      <point x="1136" y="1608" type="curve" smooth="yes"/>
      <point x="959" y="1608"/>
      <point x="955" y="1755"/>
      <point x="835" y="1758" type="curve" smooth="yes"/>
      <point x="773" y="1759"/>
      <point x="726" y="1717"/>
    </contour>
  </outline>
</glyph>
<glyph name="Oacute" format="1">
  <advance width="1500"/>
  <unicode hex="00D3"/>
  <outline>
    <contour>
      <point x="55" y="637" type="curve" smooth="yes"/>
      <point x="55" y="1099"/>
      <point x="311" y="1550"/>
      <point x="865" y="1550" type="curve" smooth="yes"/>
      <point x="1292" y="1550"/>
      <point x="1465" y="1238"/>
      <point x="1465" y="893" type="curve" smooth="yes"/>
      <point x="1465" y="440"/>
      <point x="1234" y="-20"/>
      <point x="655" y="-20" type="curve" smooth="yes"/>
      <point x="236" y="-20"/>
      <point x="55" y="264"/>
    </contour>
    <contour>
      <point x="684" y="102" type="curve" smooth="yes"/>
      <point x="958" y="102"/>
      <point x="1084" y="451"/>
      <point x="1084" y="881" type="curve" smooth="yes"/>
      <point x="1084" y="1217"/>
      <point x="1017" y="1426"/>
      <point x="838" y="1426" type="curve" smooth="yes"/>
      <point x="577" y="1426"/>
      <point x="436" y="1037"/>
      <point x="436" y="649" type="curve" smooth="yes"/>
      <point x="436" y="392"/>
      <point x="471" y="102"/>
    </contour>
    <contour>
      <point x="886" y="1570" type="curve"/>
      <point x="770" y="1672" type="line"/>
      <point x="1046" y="2014" type="line"/>
      <point x="1233" y="1829" type="line"/>
      <point x="1181" y="1728"/>
      <point x="982" y="1606"/>
    </contour>
  </outline>
</glyph>
<glyph name="Ocircumflex" format="1">
  <advance width="1500"/>
  <unicode hex="00D4"/>
  <outline>
    <contour>
      <point x="55" y="637" type="curve" smooth="yes"/>
      <point x="55" y="1099"/>
      <point x="311" y="1550"/>
      <point x="865" y="1550" type="curve" smooth="yes"/>
      <point x="1292" y="1550"/>
      <point x="1465" y="1238"/>
      <point x="1465" y="893" type="curve" smooth="yes"/>
      <point x="1465" y="440"/>
      <point x="1234" y="-20"/>
      <point x="655" y="-20" type="curve" smooth="yes"/>
      <point x="236" y="-20"/>
      <point x="55" y="264"/>
    </contour>
    <contour>
      <point x="684" y="102" type="curve" smooth="yes"/>
      <point x="958" y="102"/>
      <point x="1084" y="451"/>
      <point x="1084" y="881" type="curve" smooth="yes"/>
      <point x="1084" y="1217"/>
      <point x="1017" y="1426"/>
      <point x="838" y="1426" type="curve" smooth="yes"/>
      <point x="577" y="1426"/>
      <point x="436" y="1037"/>
      <point x="436" y="649" type="curve" smooth="yes"/>
      <point x="436" y="392"/>
      <point x="471" y="102"/>
    </contour>
    <contour>
      <point x="630" y="1600" type="line"/>
      <point x="523" y="1657" type="line"/>
      <point x="890" y="2014" type="line"/>
      <point x="1068" y="2014" type="line"/>
      <point x="1278" y="1657" type="line"/>
      <point x="1154" y="1599" type="line"/>
      <point x="953" y="1806" type="line"/>
    </contour>
  </outline>
</glyph>
<glyph name="Otilde" format="1">
  <advance width="1500"/>
  <unicode hex="00D5"/>
  <outline>
    <contour>
      <point x="55" y="637" type="curve" smooth="yes"/>
      <point x="55" y="1099"/>
      <point x="311" y="1550"/>
      <point x="865" y="1550" type="curve" smooth="yes"/>
      <point x="1292" y="1550"/>
      <point x="1465" y="1238"/>
      <point x="1465" y="893" type="curve" smooth="yes"/>
      <point x="1465" y="440"/>
      <point x="1234" y="-20"/>
      <point x="655" y="-20" type="curve" smooth="yes"/>
      <point x="236" y="-20"/>
      <point x="55" y="264"/>
    </contour>
    <contour>
      <point x="684" y="102" type="curve" smooth="yes"/>
      <point x="958" y="102"/>
      <point x="1084" y="451"/>
      <point x="1084" y="881" type="curve" smooth="yes"/>
      <point x="1084" y="1217"/>
      <point x="1017" y="1426"/>
      <point x="838" y="1426" type="curve" smooth="yes"/>
      <point x="577" y="1426"/>
      <point x="436" y="1037"/>
      <point x="436" y="649" type="curve" smooth="yes"/>
      <point x="436" y="392"/>
      <point x="471" y="102"/>
    </contour>
    <contour>
      <point x="633" y="1677" type="curve"/>
      <point x="556" y="1801" type="line"/>
      <point x="597" y="1884"/>
      <point x="713" y="1970"/>
      <point x="813" y="1970" type="curve" smooth="yes"/>
      <point x="968" y="1970"/>
      <point x="993" y="1820"/>
      <point x="1092" y="1820" type="curve" smooth="yes"/>
      <point x="1166" y="1820"/>
      <point x="1206" y="1872"/>
      <point x="1244" y="1920" type="curve"/>
      <point x="1332" y="1789" type="line"/>
      <point x="1298" y="1702"/>
      <point x="1185" y="1608"/>
      <point x="1081" y="1608" type="curve" smooth="yes"/>
      <point x="904" y="1608"/>
      <point x="900" y="1755"/>
      <point x="780" y="1758" type="curve" smooth="yes"/>
      <point x="718" y="1759"/>
      <point x="671" y="1717"/>
    </contour>
  </outline>
</glyph>
<glyph name="multiply" format="1">
  <advance width="1370"/>
  <unicode hex="00D7"/>
  <outline>
    <contour>
      <point x="332" y="286" type="curve"/>
      <point x="203" y="440" type="line"/>
      <point x="585" y="766" type="line"/>
      <point x="284" y="1093" type="line"/>
      <point x="447" y="1245" type="line"/>
      <point x="728" y="895" type="line"/>
      <point x="847" y="1007"/>
      <point x="978" y="1133"/>
      <point x="1096" y="1244" type="curve"/>
      <point x="1225" y="1090" type="line"/>
      <point x="843" y="764" type="line"/>
      <point x="1144" y="437" type="line"/>
      <point x="981" y="285" type="line"/>
      <point x="700" y="635" type="line"/>
      <point x="581" y="523"/>
      <point x="450" y="397"/>
    </contour>
  </outline>
</glyph>
<glyph name="Oslash" format="1">
  <advance width="1499"/>
  <unicode hex="00D8"/>
  <outline>
    <contour>
      <point x="110" y="-73" type="line"/>
      <point x="246" y="120" type="line"/>
      <point x="115" y="239"/>
      <point x="55" y="424"/>
      <point x="55" y="639" type="curve" smooth="yes"/>
      <point x="55" y="1101"/>
      <point x="311" y="1552"/>
      <point x="865" y="1552" type="curve" smooth="yes"/>
      <point x="982" y="1552"/>
      <point x="1080" y="1528"/>
      <point x="1161" y="1487" type="curve"/>
      <point x="1291" y="1670" type="line"/>
      <point x="1380" y="1621" type="line"/>
      <point x="1246" y="1432" type="line"/>
      <point x="1398" y="1310"/>
      <point x="1465" y="1109"/>
      <point x="1465" y="895" type="curve" smooth="yes"/>
      <point x="1465" y="442"/>
      <point x="1234" y="-18"/>
      <point x="655" y="-18" type="curve" smooth="yes"/>
      <point x="523" y="-18"/>
      <point x="415" y="10"/>
      <point x="328" y="60" type="curve"/>
      <point x="199" y="-122" type="line"/>
    </contour>
    <contour>
      <point x="454" y="389" type="curve"/>
      <point x="1017" y="1304" type="line"/>
      <point x="978" y="1384"/>
      <point x="920" y="1428"/>
      <point x="838" y="1428" type="curve" smooth="yes"/>
      <point x="577" y="1428"/>
      <point x="436" y="1039"/>
      <point x="436" y="651" type="curve" smooth="yes"/>
      <point x="436" y="563"/>
      <point x="440" y="471"/>
    </contour>
    <contour>
      <point x="489" y="257" type="line"/>
      <point x="525" y="165"/>
      <point x="586" y="104"/>
      <point x="684" y="104" type="curve" smooth="yes"/>
      <point x="958" y="104"/>
      <point x="1084" y="453"/>
      <point x="1084" y="883" type="curve" smooth="yes"/>
      <point x="1084" y="997"/>
      <point x="1076" y="1097"/>
      <point x="1059" y="1179" type="curve"/>
    </contour>
  </outline>
</glyph>
<glyph name="Udieresis" format="1">
  <advance width="1447"/>
  <unicode hex="00DC"/>
  <outline>
    <contour>
      <point x="128" y="428" type="curve" smooth="yes"/>
      <point x="128" y="480"/>
      <point x="128" y="534"/>
      <point x="135" y="593" type="curve" smooth="yes"/>
      <point x="235" y="1394" type="line"/>
      <point x="91" y="1420" type="line"/>
      <point x="104" y="1530" type="line"/>
      <point x="808" y="1530" type="line"/>
      <point x="798" y="1421" type="line"/>
      <point x="601" y="1394" type="line"/>
      <point x="504" y="623" type="line"/>
      <point x="495" y="542"/>
      <point x="487" y="469"/>
      <point x="487" y="422" type="curve" smooth="yes"/>
      <point x="487" y="232"/>
      <point x="562" y="104"/>
      <point x="732" y="104" type="curve" smooth="yes"/>
      <point x="978" y="104"/>
      <point x="1076" y="311"/>
      <point x="1119" y="626" type="curve" smooth="yes"/>
      <point x="1223" y="1394" type="line"/>
      <point x="1055" y="1421" type="line"/>
      <point x="1066" y="1530" type="line"/>
      <point x="1550" y="1530" type="line"/>
      <point x="1535" y="1421" type="line"/>
      <point x="1406" y="1394" type="line"/>
      <point x="1309" y="627" type="line" smooth="yes"/>
      <point x="1249" y="156"/>
      <point x="1038" y="-20"/>
      <point x="670" y="-20" type="curve" smooth="yes"/>
      <point x="248" y="-20"/>
      <point x="128" y="179"/>
    </contour>
    <contour>
      <point x="1166" y="1661" type="curve" smooth="yes"/>
      <point x="1086" y="1661"/>
      <point x="1029" y="1725"/>
      <point x="1031" y="1808" type="curve" smooth="yes"/>
      <point x="1033" y="1917"/>
      <point x="1097" y="1984"/>
      <point x="1199" y="1984" type="curve" smooth="yes"/>
      <point x="1294" y="1984"/>
      <point x="1343" y="1923"/>
      <point x="1341" y="1843" type="curve" smooth="yes"/>
      <point x="1339" y="1732"/>
      <point x="1284" y="1661"/>
    </contour>
    <contour>
      <point x="714" y="1661" type="curve" smooth="yes"/>
      <point x="634" y="1661"/>
      <point x="577" y="1725"/>
      <point x="579" y="1808" type="curve" smooth="yes"/>
      <point x="581" y="1917"/>
      <point x="645" y="1984"/>
      <point x="747" y="1984" type="curve" smooth="yes"/>
      <point x="842" y="1984"/>
      <point x="891" y="1923"/>
      <point x="889" y="1843" type="curve" smooth="yes"/>
      <point x="887" y="1732"/>
      <point x="832" y="1661"/>
    </contour>
  </outline>
</glyph>
<glyph name="Yacute" format="1">
  <advance width="1281"/>
  <unicode hex="00DD"/>
  <outline>
    <contour>
      <point x="161" y="0" type="line"/>
      <point x="173" y="106" type="line"/>
      <point x="403" y="136" type="line"/>
      <point x="461" y="605" type="line"/>
      <point x="130" y="1394" type="line"/>
      <point x="19" y="1420" type="line"/>
      <point x="31" y="1530" type="line"/>
      <point x="715" y="1530" type="line"/>
      <point x="698" y="1420" type="line"/>
      <point x="517" y="1394" type="line"/>
      <point x="689" y="908" type="line"/>
      <point x="742" y="785" type="line"/>
      <point x="797" y="881" type="line"/>
      <point x="1096" y="1394" type="line"/>
      <point x="932" y="1420" type="line"/>
      <point x="942" y="1530" type="line"/>
      <point x="1475" y="1530" type="line"/>
      <point x="1460" y="1420" type="line"/>
      <point x="1330" y="1394" type="line"/>
      <point x="815" y="605" type="line"/>
      <point x="754" y="136" type="line"/>
      <point x="999" y="106" type="line"/>
      <point x="989" y="0" type="line"/>
    </contour>
    <contour>
      <point x="814" y="1570" type="curve"/>
      <point x="698" y="1672" type="line"/>
      <point x="974" y="2014" type="line"/>
      <point x="1161" y="1829" type="line"/>
      <point x="1109" y="1728"/>
      <point x="910" y="1606"/>
    </contour>
  </outline>
</glyph>
<glyph name="Thorn" format="1">
  <advance width="1290"/>
  <unicode hex="00DE"/>
  <outline>
    <contour>
      <point x="-22" y="0" type="line"/>
      <point x="-11" y="106" type="line"/>
      <point x="127" y="136" type="line"/>
      <point x="287" y="1394" type="line"/>
      <point x="142" y="1420" type="line"/>
      <point x="156" y="1530" type="line"/>
      <point x="831" y="1530" type="line"/>
      <point x="819" y="1420" type="line"/>
      <point x="639" y="1394" type="line"/>
      <point x="614" y="1201" type="line"/>
      <point x="675" y="1205"/>
      <point x="737" y="1209"/>
      <point x="805" y="1209" type="curve" smooth="yes"/>
      <point x="1197" y="1209"/>
      <point x="1277" y="1046"/>
      <point x="1283" y="881" type="curve" smooth="yes"/>
      <point x="1291" y="663"/>
      <point x="1191" y="382"/>
      <point x="619" y="382" type="curve" smooth="yes"/>
      <point x="563" y="382"/>
      <point x="532" y="383"/>
      <point x="510" y="385" type="curve"/>
      <point x="479" y="136" type="line"/>
      <point x="653" y="106" type="line"/>
      <point x="645" y="0" type="line"/>
    </contour>
    <contour>
      <point x="527" y="519" type="line"/>
      <point x="563" y="518"/>
      <point x="594" y="519"/>
      <point x="637" y="519" type="curve" smooth="yes"/>
      <point x="811" y="519"/>
      <point x="961" y="617"/>
      <point x="953" y="855" type="curve"/>
      <point x="947" y="1003"/>
      <point x="869" y="1083"/>
      <point x="726" y="1083" type="curve" smooth="yes"/>
      <point x="699" y="1083"/>
      <point x="642" y="1080"/>
      <point x="598" y="1072" type="curve"/>
    </contour>
  </outline>
</glyph>
<glyph name="germandbls" format="1">
  <advance width="1193"/>
  <unicode hex="00DF"/>
  <outline>
    <contour>
      <point x="7" y="0" type="line"/>
      <point x="120" y="927" type="line"/>
      <point x="206" y="1527"/>
      <point x="534" y="1585"/>
      <point x="787" y="1585" type="curve" smooth="yes"/>
      <point x="998" y="1585"/>
      <point x="1194" y="1477"/>
      <point x="1194" y="1283" type="curve" smooth="yes"/>
      <point x="1194" y="969"/>
      <point x="887" y="1006"/>
      <point x="887" y="841" type="curve" smooth="yes"/>
      <point x="887" y="797"/>
      <point x="920" y="755"/>
      <point x="987" y="666" type="curve"/>
      <point x="1055" y="584"/>
      <point x="1158" y="491"/>
      <point x="1158" y="341" type="curve" smooth="yes"/>
      <point x="1158" y="114"/>
      <point x="988" y="-16"/>
      <point x="732" y="-16" type="curve" smooth="yes"/>
      <point x="571" y="-16"/>
      <point x="491" y="6"/>
      <point x="443" y="31" type="curve"/>
      <point x="469" y="218" type="line"/>
      <point x="497" y="178"/>
      <point x="584" y="115"/>
      <point x="656" y="116" type="curve" smooth="yes"/>
      <point x="743" y="117"/>
      <point x="819" y="131"/>
      <point x="819" y="285" type="curve" smooth="yes"/>
      <point x="819" y="364"/>
      <point x="768" y="459"/>
      <point x="727" y="523" type="curve"/>
      <point x="677" y="593"/>
      <point x="618" y="706"/>
      <point x="618" y="793" type="curve" smooth="yes"/>
      <point x="618" y="888"/>
      <point x="663" y="934"/>
      <point x="726" y="999" type="curve" smooth="yes"/>
      <point x="807" y="1082"/>
      <point x="864" y="1173"/>
      <point x="864" y="1287" type="curve" smooth="yes"/>
      <point x="864" y="1385"/>
      <point x="819" y="1464"/>
      <point x="727" y="1464" type="curve" smooth="yes"/>
      <point x="588" y="1464"/>
      <point x="494" y="1303"/>
      <point x="447" y="867" type="curve"/>
      <point x="340" y="0" type="line"/>
    </contour>
  </outline>
</glyph>
<glyph name="atilde" format="1">
  <advance width="1215"/>
  <unicode hex="00E3"/>
  <outline>
    <contour>
      <point x="60" y="402" type="curve" smooth="yes"/>
      <point x="60" y="791"/>
      <point x="293" y="1163"/>
      <point x="746" y="1163" type="curve" smooth="yes"/>
      <point x="826" y="1163"/>
      <point x="923" y="1141"/>
      <point x="984" y="1120" type="curve"/>
      <point x="1136" y="1163" type="line"/>
      <point x="1007" y="227" type="line"/>
      <point x="1001" y="173"/>
      <point x="1016" y="151"/>
      <point x="1046" y="151" type="curve" smooth="yes"/>
      <point x="1065" y="151"/>
      <point x="1091" y="160"/>
      <point x="1139" y="197" type="curve"/>
      <point x="1167" y="124" type="line"/>
      <point x="1142" y="88"/>
      <point x="1044" y="-20"/>
      <point x="887" y="-20" type="curve" smooth="yes"/>
      <point x="788" y="-20"/>
      <point x="720" y="24"/>
      <point x="717" y="106" type="curve"/>
      <point x="652" y="41"/>
      <point x="552" y="-20"/>
      <point x="413" y="-20" type="curve" smooth="yes"/>
      <point x="163" y="-20"/>
      <point x="60" y="172"/>
    </contour>
    <contour>
      <point x="554" y="154" type="curve" smooth="yes"/>
      <point x="601" y="154"/>
      <point x="644" y="177"/>
      <point x="680" y="209" type="curve"/>
      <point x="790" y="1017" type="line"/>
      <point x="768" y="1021"/>
      <point x="746" y="1023"/>
      <point x="722" y="1023" type="curve" smooth="yes"/>
      <point x="479" y="1023"/>
      <point x="406" y="680"/>
      <point x="406" y="413" type="curve" smooth="yes"/>
      <point x="406" y="249"/>
      <point x="463" y="154"/>
    </contour>
    <contour>
      <point x="462" y="1387" type="curve"/>
      <point x="385" y="1511" type="line"/>
      <point x="426" y="1594"/>
      <point x="542" y="1680"/>
      <point x="642" y="1680" type="curve" smooth="yes"/>
      <point x="797" y="1680"/>
      <point x="822" y="1530"/>
      <point x="921" y="1530" type="curve" smooth="yes"/>
      <point x="995" y="1530"/>
      <point x="1035" y="1582"/>
      <point x="1073" y="1630" type="curve"/>
      <point x="1161" y="1499" type="line"/>
      <point x="1127" y="1412"/>
      <point x="1014" y="1318"/>
      <point x="910" y="1318" type="curve" smooth="yes"/>
      <point x="733" y="1318"/>
      <point x="729" y="1465"/>
      <point x="609" y="1468" type="curve" smooth="yes"/>
      <point x="547" y="1469"/>
      <point x="500" y="1427"/>
    </contour>
  </outline>
</glyph>
<glyph name="aring" format="1">
  <advance width="1215"/>
  <unicode hex="00E5"/>
  <outline>
    <contour>
      <point x="60" y="402" type="curve" smooth="yes"/>
      <point x="60" y="791"/>
      <point x="293" y="1163"/>
      <point x="746" y="1163" type="curve" smooth="yes"/>
      <point x="826" y="1163"/>
      <point x="923" y="1141"/>
      <point x="984" y="1120" type="curve"/>
      <point x="1136" y="1163" type="line"/>
      <point x="1007" y="227" type="line"/>
      <point x="1001" y="173"/>
      <point x="1016" y="151"/>
      <point x="1046" y="151" type="curve" smooth="yes"/>
      <point x="1065" y="151"/>
      <point x="1091" y="160"/>
      <point x="1139" y="197" type="curve"/>
      <point x="1167" y="124" type="line"/>
      <point x="1142" y="88"/>
      <point x="1044" y="-20"/>
      <point x="887" y="-20" type="curve" smooth="yes"/>
      <point x="788" y="-20"/>
      <point x="720" y="24"/>
      <point x="717" y="106" type="curve"/>
      <point x="652" y="41"/>
      <point x="552" y="-20"/>
      <point x="413" y="-20" type="curve" smooth="yes"/>
      <point x="163" y="-20"/>
      <point x="60" y="172"/>
    </contour>
    <contour>
      <point x="554" y="154" type="curve" smooth="yes"/>
      <point x="601" y="154"/>
      <point x="644" y="177"/>
      <point x="680" y="209" type="curve"/>
      <point x="790" y="1017" type="line"/>
      <point x="768" y="1021"/>
      <point x="746" y="1023"/>
      <point x="722" y="1023" type="curve" smooth="yes"/>
      <point x="479" y="1023"/>
      <point x="406" y="680"/>
      <point x="406" y="413" type="curve" smooth="yes"/>
      <point x="406" y="249"/>
      <point x="463" y="154"/>
    </contour>
    <contour>
      <point x="768" y="1253" type="curve" smooth="yes"/>
      <point x="579" y="1253"/>
      <point x="459" y="1339"/>
      <point x="459" y="1497" type="curve" smooth="yes"/>
      <point x="459" y="1732"/>
      <point x="690" y="1804"/>
      <point x="845" y="1804" type="curve" smooth="yes"/>
      <point x="1020" y="1804"/>
      <point x="1148" y="1716"/>
      <point x="1148" y="1567" type="curve" smooth="yes"/>
      <point x="1148" y="1354"/>
      <point x="950" y="1253"/>
    </contour>
    <contour>
      <point x="790" y="1396" type="curve" smooth="yes"/>
      <point x="867" y="1396"/>
      <point x="955" y="1424"/>
      <point x="955" y="1539" type="curve" smooth="yes"/>
      <point x="955" y="1612"/>
      <point x="889" y="1664"/>
      <point x="820" y="1664" type="curve" smooth="yes"/>
      <point x="744" y="1664"/>
      <point x="653" y="1628"/>
      <point x="653" y="1520" type="curve" smooth="yes"/>
      <point x="653" y="1449"/>
      <point x="723" y="1396"/>
    </contour>
  </outline>
</glyph>
<glyph name="ccedilla" format="1">
  <advance width="944"/>
  <unicode hex="00E7"/>
  <outline>
    <contour>
      <point x="155" y="-303" type="line"/>
      <point x="172" y="-312"/>
      <point x="202" y="-319"/>
      <point x="233" y="-319" type="curve" smooth="yes"/>
      <point x="335" y="-319"/>
      <point x="410" y="-282"/>
      <point x="416" y="-154" type="curve" smooth="yes"/>
      <point x="418" y="-102"/>
      <point x="414" y="-55"/>
      <point x="409" y="-18" type="curve"/>
      <point x="197" y="-1"/>
      <point x="65" y="157"/>
      <point x="61" y="450" type="curve"/>
      <point x="55" y="789"/>
      <point x="264" y="1163"/>
      <point x="707" y="1163" type="curve" smooth="yes"/>
      <point x="789" y="1163"/>
      <point x="896" y="1151"/>
      <point x="963" y="1125" type="curve"/>
      <point x="870" y="803" type="line"/>
      <point x="817" y="820"/>
      <point x="706" y="1006"/>
      <point x="635" y="1006" type="curve" smooth="yes"/>
      <point x="526" y="1006"/>
      <point x="394" y="782"/>
      <point x="402" y="460" type="curve" smooth="yes"/>
      <point x="407" y="250"/>
      <point x="461" y="169"/>
      <point x="577" y="169" type="curve" smooth="yes"/>
      <point x="706" y="169"/>
      <point x="778" y="228"/>
      <point x="831" y="297" type="curve"/>
      <point x="895" y="194" type="line"/>
      <point x="851" y="123"/>
      <point x="742" y="28"/>
      <point x="578" y="-6" type="curve"/>
      <point x="599" y="-65"/>
      <point x="616" y="-166"/>
      <point x="616" y="-238" type="curve" smooth="yes"/>
      <point x="616" y="-388"/>
      <point x="536" y="-484"/>
      <point x="318" y="-484" type="curve" smooth="yes"/>
      <point x="265" y="-484"/>
      <point x="142" y="-472"/>
      <point x="120" y="-456" type="curve"/>
    </contour>
  </outline>
</glyph>
<glyph name="igrave" format="1">
  <advance width="669"/>
  <unicode hex="00EC"/>
  <outline>
    <contour>
      <point x="108" y="129" type="curve" smooth="yes"/>
      <point x="132" y="288"/>
      <point x="170" y="596"/>
      <point x="221" y="980" type="curve"/>
      <point x="57" y="1031" type="line"/>
      <point x="75" y="1112" type="line"/>
      <point x="521" y="1163" type="line"/>
      <point x="576" y="1139" type="line"/>
      <point x="448" y="227" type="line" smooth="yes"/>
      <point x="441" y="178"/>
      <point x="453" y="151"/>
      <point x="483" y="151" type="curve" smooth="yes"/>
      <point x="506" y="151"/>
      <point x="529" y="163"/>
      <point x="575" y="197" type="curve"/>
      <point x="603" y="124" type="line"/>
      <point x="579" y="94"/>
      <point x="482" y="-20"/>
      <point x="307" y="-20" type="curve" smooth="yes"/>
      <point x="165" y="-20"/>
      <point x="95" y="42"/>
    </contour>
    <contour>
      <point x="359" y="1241" type="line"/>
      <point x="276" y="1276"/>
      <point x="37" y="1454"/>
      <point x="-27" y="1566" type="curve"/>
      <point x="176" y="1743" type="line"/>
      <point x="464" y="1311" type="line"/>
    </contour>
  </outline>
</glyph>
<glyph name="idieresis" format="1">
  <advance width="669"/>
  <unicode hex="00EF"/>
  <outline>
    <contour>
      <point x="108" y="129" type="curve" smooth="yes"/>
      <point x="132" y="288"/>
      <point x="170" y="596"/>
      <point x="221" y="980" type="curve"/>
      <point x="57" y="1031" type="line"/>
      <point x="75" y="1112" type="line"/>
      <point x="521" y="1163" type="line"/>
      <point x="576" y="1139" type="line"/>
      <point x="448" y="227" type="line" smooth="yes"/>
      <point x="441" y="178"/>
      <point x="453" y="151"/>
      <point x="483" y="151" type="curve" smooth="yes"/>
      <point x="506" y="151"/>
      <point x="529" y="163"/>
      <point x="575" y="197" type="curve"/>
      <point x="603" y="124" type="line"/>
      <point x="579" y="94"/>
      <point x="482" y="-20"/>
      <point x="307" y="-20" type="curve" smooth="yes"/>
      <point x="165" y="-20"/>
      <point x="95" y="42"/>
    </contour>
    <contour>
      <point x="642" y="1338" type="curve" smooth="yes"/>
      <point x="562" y="1338"/>
      <point x="497" y="1422"/>
      <point x="499" y="1505" type="curve" smooth="yes"/>
      <point x="501" y="1614"/>
      <point x="563" y="1701"/>
      <point x="675" y="1701" type="curve" smooth="yes"/>
      <point x="770" y="1701"/>
      <point x="827" y="1620"/>
      <point x="825" y="1540" type="curve" smooth="yes"/>
      <point x="823" y="1429"/>
      <point x="770" y="1338"/>
    </contour>
    <contour>
      <point x="190" y="1338" type="curve" smooth="yes"/>
      <point x="110" y="1338"/>
      <point x="45" y="1422"/>
      <point x="47" y="1505" type="curve" smooth="yes"/>
      <point x="49" y="1614"/>
      <point x="111" y="1701"/>
      <point x="223" y="1701" type="curve" smooth="yes"/>
      <point x="318" y="1701"/>
      <point x="375" y="1620"/>
      <point x="373" y="1540" type="curve" smooth="yes"/>
      <point x="371" y="1429"/>
      <point x="318" y="1338"/>
    </contour>
  </outline>
</glyph>
<glyph name="oacute" format="1">
  <advance width="1197"/>
  <unicode hex="00F3"/>
  <outline>
    <contour>
      <point x="61" y="439" type="curve"/>
      <point x="48" y="832"/>
      <point x="293" y="1163"/>
      <point x="686" y="1163" type="curve" smooth="yes"/>
      <point x="970" y="1163"/>
      <point x="1122" y="994"/>
      <point x="1131" y="703" type="curve" smooth="yes"/>
      <point x="1144" y="310"/>
      <point x="898" y="-20"/>
      <point x="505" y="-20" type="curve" smooth="yes"/>
      <point x="220" y="-20"/>
      <point x="72" y="148"/>
    </contour>
    <contour>
      <point x="550" y="107" type="curve" smooth="yes"/>
      <point x="729" y="107"/>
      <point x="779" y="446"/>
      <point x="772" y="707" type="curve" smooth="yes"/>
      <point x="766" y="938"/>
      <point x="729" y="1025"/>
      <point x="651" y="1025" type="curve" smooth="yes"/>
      <point x="471" y="1025"/>
      <point x="410" y="688"/>
      <point x="418" y="435" type="curve" smooth="yes"/>
      <point x="425" y="202"/>
      <point x="456" y="107"/>
    </contour>
    <contour>
      <point x="691" y="1231" type="curve"/>
      <point x="588" y="1312" type="line"/>
      <point x="905" y="1743" type="line"/>
      <point x="1097" y="1556" type="line"/>
      <point x="1061" y="1488"/>
      <point x="810" y="1277"/>
    </contour>
  </outline>
</glyph>
<glyph name="ocircumflex" format="1">
  <advance width="1197"/>
  <unicode hex="00F4"/>
  <outline>
    <contour>
      <point x="61" y="439" type="curve"/>
      <point x="48" y="832"/>
      <point x="293" y="1163"/>
      <point x="686" y="1163" type="curve" smooth="yes"/>
      <point x="970" y="1163"/>
      <point x="1122" y="994"/>
      <point x="1131" y="703" type="curve" smooth="yes"/>
      <point x="1144" y="310"/>
      <point x="898" y="-20"/>
      <point x="505" y="-20" type="curve" smooth="yes"/>
      <point x="220" y="-20"/>
      <point x="72" y="148"/>
    </contour>
    <contour>
      <point x="550" y="107" type="curve" smooth="yes"/>
      <point x="729" y="107"/>
      <point x="779" y="446"/>
      <point x="772" y="707" type="curve" smooth="yes"/>
      <point x="766" y="938"/>
      <point x="729" y="1025"/>
      <point x="651" y="1025" type="curve" smooth="yes"/>
      <point x="471" y="1025"/>
      <point x="410" y="688"/>
      <point x="418" y="435" type="curve" smooth="yes"/>
      <point x="425" y="202"/>
      <point x="456" y="107"/>
    </contour>
    <contour>
      <point x="440" y="1239" type="line"/>
      <point x="333" y="1296" type="line"/>
      <point x="700" y="1670" type="line"/>
      <point x="878" y="1670" type="line"/>
      <point x="1088" y="1296" type="line"/>
      <point x="964" y="1238" type="line"/>
      <point x="763" y="1432" type="line"/>
    </contour>
  </outline>
</glyph>
<glyph name="otilde" format="1">
  <advance width="1197"/>
  <unicode hex="00F5"/>
  <outline>
    <contour>
      <point x="61" y="439" type="curve"/>
      <point x="48" y="832"/>
      <point x="293" y="1163"/>
      <point x="686" y="1163" type="curve" smooth="yes"/>
      <point x="970" y="1163"/>
      <point x="1122" y="994"/>
      <point x="1131" y="703" type="curve" smooth="yes"/>
      <point x="1144" y="310"/>
      <point x="898" y="-20"/>
      <point x="505" y="-20" type="curve" smooth="yes"/>
      <point x="220" y="-20"/>
      <point x="72" y="148"/>
    </contour>
    <contour>
      <point x="550" y="107" type="curve" smooth="yes"/>
      <point x="729" y="107"/>
      <point x="779" y="446"/>
      <point x="772" y="707" type="curve" smooth="yes"/>
      <point x="766" y="938"/>
      <point x="729" y="1025"/>
      <point x="651" y="1025" type="curve" smooth="yes"/>
      <point x="471" y="1025"/>
      <point x="410" y="688"/>
      <point x="418" y="435" type="curve" smooth="yes"/>
      <point x="425" y="202"/>
      <point x="456" y="107"/>
    </contour>
    <contour>
      <point x="401" y="1387" type="curve"/>
      <point x="324" y="1511" type="line"/>
      <point x="365" y="1594"/>
      <point x="481" y="1680"/>
      <point x="581" y="1680" type="curve" smooth="yes"/>
      <point x="736" y="1680"/>
      <point x="761" y="1530"/>
      <point x="860" y="1530" type="curve" smooth="yes"/>
      <point x="934" y="1530"/>
      <point x="974" y="1582"/>
      <point x="1012" y="1630" type="curve"/>
      <point x="1100" y="1499" type="line"/>
      <point x="1066" y="1412"/>
      <point x="953" y="1318"/>
      <point x="849" y="1318" type="curve" smooth="yes"/>
      <point x="672" y="1318"/>
      <point x="668" y="1465"/>
      <point x="548" y="1468" type="curve" smooth="yes"/>
      <point x="486" y="1469"/>
      <point x="439" y="1427"/>
    </contour>
  </outline>
</glyph>
<glyph name="odieresis" format="1">
  <advance width="1197"/>
  <unicode hex="00F6"/>
  <outline>
    <contour>
      <point x="61" y="439" type="curve"/>
      <point x="48" y="832"/>
      <point x="293" y="1163"/>
      <point x="686" y="1163" type="curve" smooth="yes"/>
      <point x="970" y="1163"/>
      <point x="1122" y="994"/>
      <point x="1131" y="703" type="curve" smooth="yes"/>
      <point x="1144" y="310"/>
      <point x="898" y="-20"/>
      <point x="505" y="-20" type="curve" smooth="yes"/>
      <point x="220" y="-20"/>
      <point x="72" y="148"/>
    </contour>
    <contour>
      <point x="550" y="107" type="curve" smooth="yes"/>
      <point x="729" y="107"/>
      <point x="779" y="446"/>
      <point x="772" y="707" type="curve" smooth="yes"/>
      <point x="766" y="938"/>
      <point x="729" y="1025"/>
      <point x="651" y="1025" type="curve" smooth="yes"/>
      <point x="471" y="1025"/>
      <point x="410" y="688"/>
      <point x="418" y="435" type="curve" smooth="yes"/>
      <point x="425" y="202"/>
      <point x="456" y="107"/>
    </contour>
    <contour>
      <point x="929" y="1338" type="curve" smooth="yes"/>
      <point x="849" y="1338"/>
      <point x="784" y="1422"/>
      <point x="786" y="1505" type="curve" smooth="yes"/>
      <point x="788" y="1614"/>
      <point x="850" y="1701"/>
      <point x="962" y="1701" type="curve" smooth="yes"/>
      <point x="1057" y="1701"/>
      <point x="1114" y="1620"/>
      <point x="1112" y="1540" type="curve" smooth="yes"/>
      <point x="1110" y="1429"/>
      <point x="1057" y="1338"/>
    </contour>
    <contour>
      <point x="477" y="1338" type="curve" smooth="yes"/>
      <point x="397" y="1338"/>
      <point x="332" y="1422"/>
      <point x="334" y="1505" type="curve" smooth="yes"/>
      <point x="336" y="1614"/>
      <point x="398" y="1701"/>
      <point x="510" y="1701" type="curve" smooth="yes"/>
      <point x="605" y="1701"/>
      <point x="662" y="1620"/>
      <point x="660" y="1540" type="curve" smooth="yes"/>
      <point x="658" y="1429"/>
      <point x="605" y="1338"/>
    </contour>
  </outline>
</glyph>
<glyph name="oslash" format="1">
  <advance width="1197"/>
  <unicode hex="00F8"/>
  <outline>
    <contour>
      <point x="79" y="-83" type="line"/>
      <point x="199" y="85" type="line"/>
      <point x="113" y="163"/>
      <point x="68" y="284"/>
      <point x="62" y="441" type="curve" smooth="yes"/>
      <point x="49" y="834"/>
      <point x="294" y="1165"/>
      <point x="687" y="1165" type="curve" smooth="yes"/>
      <point x="770" y="1165"/>
      <point x="842" y="1150"/>
      <point x="902" y="1122" type="curve"/>
      <point x="1031" y="1303" type="line"/>
      <point x="1120" y="1254" type="line"/>
      <point x="988" y="1067" type="line"/>
      <point x="1078" y="988"/>
      <point x="1127" y="865"/>
      <point x="1132" y="705" type="curve" smooth="yes"/>
      <point x="1145" y="312"/>
      <point x="899" y="-18"/>
      <point x="506" y="-18" type="curve" smooth="yes"/>
      <point x="418" y="-18"/>
      <point x="344" y="-2"/>
      <point x="282" y="28" type="curve"/>
      <point x="168" y="-132" type="line"/>
    </contour>
    <contour>
      <point x="420" y="395" type="curve"/>
      <point x="750" y="923" type="line"/>
      <point x="730" y="996"/>
      <point x="698" y="1027"/>
      <point x="652" y="1027" type="curve" smooth="yes"/>
      <point x="472" y="1027"/>
      <point x="411" y="690"/>
      <point x="419" y="437" type="curve" smooth="yes"/>
      <point x="419" y="422"/>
      <point x="420" y="409"/>
    </contour>
    <contour>
      <point x="438" y="236" type="line"/>
      <point x="457" y="147"/>
      <point x="491" y="109"/>
      <point x="551" y="109" type="curve" smooth="yes"/>
      <point x="730" y="109"/>
      <point x="780" y="448"/>
      <point x="773" y="709" type="curve"/>
      <point x="771" y="766" type="line"/>
    </contour>
  </outline>
</glyph>
<glyph name="Abreve" format="1">
  <advance width="1375"/>
  <unicode hex="0102"/>
  <outline>
    <contour>
      <point x="-18" y="135" type="line"/>
      <point x="667" y="1530" type="line"/>
      <point x="1014" y="1530" type="line"/>
      <point x="1261" y="138" type="line"/>
      <point x="1422" y="106" type="line"/>
      <point x="1416" y="0" type="line"/>
      <point x="727" y="0" type="line"/>
      <point x="732" y="106" type="line"/>
      <point x="889" y="135" type="line"/>
      <point x="849" y="416" type="line"/>
      <point x="339" y="416" type="line"/>
      <point x="214" y="136" type="line"/>
      <point x="402" y="106" type="line"/>
      <point x="394" y="0" type="line"/>
      <point x="-164" y="0" type="line"/>
      <point x="-156" y="106" type="line"/>
    </contour>
    <contour>
      <point x="406" y="567" type="line"/>
      <point x="828" y="567" type="line"/>
      <point x="750" y="1117" type="line"/>
      <point x="741" y="1316" type="line"/>
    </contour>
    <contour>
      <point x="821" y="1633" type="curve" smooth="yes"/>
      <point x="583" y="1633"/>
      <point x="509" y="1796"/>
      <point x="509" y="1946" type="curve" smooth="yes"/>
      <point x="509" y="1969"/>
      <point x="511" y="1992"/>
      <point x="514" y="2014" type="curve"/>
      <point x="698" y="2014" type="line"/>
      <point x="698" y="2000"/>
      <point x="697" y="1985"/>
      <point x="697" y="1969" type="curve" smooth="yes"/>
      <point x="697" y="1909"/>
      <point x="710" y="1850"/>
      <point x="826" y="1850" type="curve" smooth="yes"/>
      <point x="973" y="1850"/>
      <point x="985" y="1934"/>
      <point x="988" y="2014" type="curve"/>
      <point x="1170" y="2014" type="line"/>
      <point x="1171" y="2003"/>
      <point x="1171" y="1991"/>
      <point x="1171" y="1980" type="curve" smooth="yes"/>
      <point x="1171" y="1821"/>
      <point x="1073" y="1633"/>
    </contour>
  </outline>
</glyph>
<glyph name="ccaron" format="1">
  <advance width="942"/>
  <unicode hex="010D"/>
  <outline>
    <contour>
      <point x="447" y="-20" type="curve" smooth="yes"/>
      <point x="212" y="-20"/>
      <point x="64" y="139"/>
      <point x="59" y="450" type="curve" smooth="yes"/>
      <point x="53" y="789"/>
      <point x="262" y="1163"/>
      <point x="705" y="1163" type="curve" smooth="yes"/>
      <point x="787" y="1163"/>
      <point x="894" y="1151"/>
      <point x="961" y="1125" type="curve"/>
      <point x="868" y="803" type="line"/>
      <point x="815" y="820"/>
      <point x="704" y="1006"/>
      <point x="633" y="1006" type="curve" smooth="yes"/>
      <point x="524" y="1006"/>
      <point x="392" y="782"/>
      <point x="400" y="460" type="curve" smooth="yes"/>
      <point x="405" y="250"/>
      <point x="459" y="169"/>
      <point x="575" y="169" type="curve" smooth="yes"/>
      <point x="704" y="169"/>
      <point x="776" y="228"/>
      <point x="829" y="297" type="curve"/>
      <point x="893" y="194" type="line"/>
      <point x="838" y="106"/>
      <point x="684" y="-20"/>
    </contour>
    <contour>
      <point x="549" y="1238" type="line"/>
      <point x="339" y="1612" type="line"/>
      <point x="463" y="1670" type="line"/>
      <point x="664" y="1460" type="line"/>
      <point x="987" y="1669" type="line"/>
      <point x="1094" y="1612" type="line"/>
      <point x="726" y="1238" type="line"/>
    </contour>
  </outline>
</glyph>
<glyph name="emacron" format="1">
  <advance width="1048"/>
  <unicode hex="0113"/>
  <outline>
    <contour>
      <point x="61" y="430" type="curve" smooth="yes"/>
      <point x="59" y="857"/>
      <point x="343" y="1163"/>
      <point x="710" y="1163" type="curve" smooth="yes"/>
      <point x="938" y="1163"/>
      <point x="1033" y="1054"/>
      <point x="1039" y="913" type="curve"/>
      <point x="1049" y="583"/>
      <point x="672" y="461"/>
      <point x="420" y="455" type="curve"/>
      <point x="420" y="247"/>
      <point x="491" y="159"/>
      <point x="607" y="159" type="curve" smooth="yes"/>
      <point x="766" y="159"/>
      <point x="852" y="246"/>
      <point x="905" y="315" type="curve"/>
      <point x="969" y="212" type="line"/>
      <point x="914" y="124"/>
      <point x="756" y="-20"/>
      <point x="499" y="-20" type="curve" smooth="yes"/>
      <point x="178" y="-20"/>
      <point x="62" y="202"/>
    </contour>
    <contour>
      <point x="420" y="575" type="curve"/>
      <point x="537" y="582"/>
      <point x="724" y="689"/>
      <point x="718" y="886" type="curve"/>
      <point x="714" y="977"/>
      <point x="689" y="1025"/>
      <point x="636" y="1025" type="curve" smooth="yes"/>
      <point x="482" y="1025"/>
      <point x="431" y="761"/>
    </contour>
    <contour>
      <point x="397" y="1405" type="line"/>
      <point x="397" y="1614" type="line"/>
      <point x="968" y="1614" type="line"/>
      <point x="968" y="1405" type="line"/>
    </contour>
  </outline>
</glyph>
<glyph name="Ebreve" format="1">
  <advance width="1329"/>
  <unicode hex="0114"/>
  <outline>
    <contour>
      <point x="-46" y="0" type="line"/>
      <point x="-32" y="106" type="line"/>
      <point x="128" y="136" type="line"/>
      <point x="292" y="1394" type="line"/>
      <point x="147" y="1420" type="line"/>
      <point x="158" y="1530" type="line"/>
      <point x="1276" y="1530" type="line"/>
      <point x="1240" y="1160" type="line"/>
      <point x="1018" y="1160" type="line"/>
      <point x="984" y="1384" type="line"/>
      <point x="645" y="1410" type="line"/>
      <point x="573" y="881" type="line"/>
      <point x="1017" y="905" type="line"/>
      <point x="994" y="687" type="line"/>
      <point x="553" y="712" type="line"/>
      <point x="475" y="136" type="line"/>
      <point x="938" y="171" type="line"/>
      <point x="1055" y="468" type="line"/>
      <point x="1268" y="454" type="line"/>
      <point x="1198" y="0" type="line"/>
    </contour>
    <contour>
      <point x="827" y="1633" type="curve" smooth="yes"/>
      <point x="589" y="1633"/>
      <point x="515" y="1796"/>
      <point x="515" y="1946" type="curve" smooth="yes"/>
      <point x="515" y="1969"/>
      <point x="517" y="1992"/>
      <point x="520" y="2014" type="curve"/>
      <point x="704" y="2014" type="line"/>
      <point x="704" y="2000"/>
      <point x="703" y="1985"/>
      <point x="703" y="1969" type="curve" smooth="yes"/>
      <point x="703" y="1909"/>
      <point x="716" y="1850"/>
      <point x="832" y="1850" type="curve" smooth="yes"/>
      <point x="979" y="1850"/>
      <point x="991" y="1934"/>
      <point x="994" y="2014" type="curve"/>
      <point x="1176" y="2014" type="line"/>
      <point x="1177" y="2003"/>
      <point x="1177" y="1991"/>
      <point x="1177" y="1980" type="curve" smooth="yes"/>
      <point x="1177" y="1821"/>
      <point x="1079" y="1633"/>
    </contour>
  </outline>
</glyph>
<glyph name="ebreve" format="1">
  <advance width="1048"/>
  <unicode hex="0115"/>
  <outline>
    <contour>
      <point x="61" y="430" type="curve" smooth="yes"/>
      <point x="59" y="857"/>
      <point x="343" y="1163"/>
      <point x="710" y="1163" type="curve" smooth="yes"/>
      <point x="938" y="1163"/>
      <point x="1033" y="1054"/>
      <point x="1039" y="913" type="curve"/>
      <point x="1049" y="583"/>
      <point x="672" y="461"/>
      <point x="420" y="455" type="curve"/>
      <point x="420" y="247"/>
      <point x="491" y="159"/>
      <point x="607" y="159" type="curve" smooth="yes"/>
      <point x="766" y="159"/>
      <point x="852" y="246"/>
      <point x="905" y="315" type="curve"/>
      <point x="969" y="212" type="line"/>
      <point x="914" y="124"/>
      <point x="756" y="-20"/>
      <point x="499" y="-20" type="curve" smooth="yes"/>
      <point x="178" y="-20"/>
      <point x="62" y="202"/>
    </contour>
    <contour>
      <point x="420" y="575" type="curve"/>
      <point x="537" y="582"/>
      <point x="724" y="689"/>
      <point x="718" y="886" type="curve"/>
      <point x="714" y="977"/>
      <point x="689" y="1025"/>
      <point x="636" y="1025" type="curve" smooth="yes"/>
      <point x="482" y="1025"/>
      <point x="431" y="761"/>
    </contour>
    <contour>
      <point x="718" y="1300" type="curve" smooth="yes"/>
      <point x="480" y="1300"/>
      <point x="406" y="1463"/>
      <point x="406" y="1613" type="curve" smooth="yes"/>
      <point x="406" y="1636"/>
      <point x="408" y="1659"/>
      <point x="411" y="1681" type="curve"/>
      <point x="595" y="1681" type="line"/>
      <point x="595" y="1667"/>
      <point x="594" y="1652"/>
      <point x="594" y="1636" type="curve" smooth="yes"/>
      <point x="594" y="1576"/>
      <point x="607" y="1517"/>
      <point x="723" y="1517" type="curve" smooth="yes"/>
      <point x="870" y="1517"/>
      <point x="882" y="1601"/>
      <point x="885" y="1681" type="curve"/>
      <point x="1067" y="1681" type="line"/>
      <point x="1068" y="1670"/>
      <point x="1068" y="1658"/>
      <point x="1068" y="1647" type="curve" smooth="yes"/>
      <point x="1068" y="1488"/>
      <point x="970" y="1300"/>
    </contour>
  </outline>
</glyph>
<glyph name="edotaccent" format="1">
  <advance width="1048"/>
  <unicode hex="0117"/>
  <outline>
    <contour>
      <point x="61" y="430" type="curve" smooth="yes"/>
      <point x="59" y="857"/>
      <point x="343" y="1163"/>
      <point x="710" y="1163" type="curve" smooth="yes"/>
      <point x="938" y="1163"/>
      <point x="1033" y="1054"/>
      <point x="1039" y="913" type="curve"/>
      <point x="1049" y="583"/>
      <point x="672" y="461"/>
      <point x="420" y="455" type="curve"/>
      <point x="420" y="247"/>
      <point x="491" y="159"/>
      <point x="607" y="159" type="curve" smooth="yes"/>
      <point x="766" y="159"/>
      <point x="852" y="246"/>
      <point x="905" y="315" type="curve"/>
      <point x="969" y="212" type="line"/>
      <point x="914" y="124"/>
      <point x="756" y="-20"/>
      <point x="499" y="-20" type="curve" smooth="yes"/>
      <point x="178" y="-20"/>
      <point x="62" y="202"/>
    </contour>
    <contour>
      <point x="420" y="575" type="curve"/>
      <point x="537" y="582"/>
      <point x="724" y="689"/>
      <point x="718" y="886" type="curve"/>
      <point x="714" y="977"/>
      <point x="689" y="1025"/>
      <point x="636" y="1025" type="curve" smooth="yes"/>
      <point x="482" y="1025"/>
      <point x="431" y="761"/>
    </contour>
    <contour>
      <point x="708" y="1338" type="curve" smooth="yes"/>
      <point x="619" y="1338"/>
      <point x="544" y="1422"/>
      <point x="546" y="1505" type="curve" smooth="yes"/>
      <point x="549" y="1614"/>
      <point x="621" y="1701"/>
      <point x="744" y="1701" type="curve" smooth="yes"/>
      <point x="850" y="1701"/>
      <point x="916" y="1620"/>
      <point x="914" y="1540" type="curve" smooth="yes"/>
      <point x="911" y="1429"/>
      <point x="850" y="1338"/>
    </contour>
  </outline>
</glyph>
<glyph name="Eogonek" format="1">
  <advance width="1329"/>
  <unicode hex="0118"/>
  <outline>
    <contour>
      <point x="-46" y="0" type="line"/>
      <point x="-32" y="106" type="line"/>
      <point x="128" y="136" type="line"/>
      <point x="292" y="1394" type="line"/>
      <point x="147" y="1420" type="line"/>
      <point x="158" y="1530" type="line"/>
      <point x="1276" y="1530" type="line"/>
      <point x="1240" y="1160" type="line"/>
      <point x="1018" y="1160" type="line"/>
      <point x="984" y="1384" type="line"/>
      <point x="645" y="1410" type="line"/>
      <point x="573" y="881" type="line"/>
      <point x="1017" y="905" type="line"/>
      <point x="994" y="687" type="line"/>
      <point x="553" y="712" type="line"/>
      <point x="475" y="136" type="line"/>
      <point x="938" y="171" type="line"/>
      <point x="1055" y="468" type="line"/>
      <point x="1268" y="454" type="line"/>
      <point x="1198" y="0" type="line"/>
      <point x="1110" y="0" type="line"/>
      <point x="1000" y="-74"/>
      <point x="916" y="-152"/>
      <point x="916" y="-215" type="curve" smooth="yes"/>
      <point x="916" y="-272"/>
      <point x="944" y="-287"/>
      <point x="983" y="-287" type="curve" smooth="yes"/>
      <point x="1038" y="-287"/>
      <point x="1080" y="-256"/>
      <point x="1136" y="-212" type="curve"/>
      <point x="1172" y="-326" type="line"/>
      <point x="1091" y="-409"/>
      <point x="973" y="-480"/>
      <point x="828" y="-480" type="curve" smooth="yes"/>
      <point x="699" y="-480"/>
      <point x="635" y="-411"/>
      <point x="635" y="-306" type="curve" smooth="yes"/>
      <point x="635" y="-273"/>
      <point x="654" y="-220"/>
      <point x="680" y="-182" type="curve" smooth="yes"/>
      <point x="749" y="-81"/>
      <point x="823" y="-34"/>
      <point x="891" y="0" type="curve"/>
    </contour>
  </outline>
</glyph>
<glyph name="eogonek" format="1">
  <advance width="1048"/>
  <unicode hex="0119"/>
  <outline>
    <contour>
      <point x="381" y="-192" type="curve" smooth="yes"/>
      <point x="425" y="-121"/>
      <point x="478" y="-64"/>
      <point x="532" y="-19" type="curve"/>
      <point x="521" y="-19"/>
      <point x="510" y="-20"/>
      <point x="499" y="-20" type="curve" smooth="yes"/>
      <point x="178" y="-20"/>
      <point x="62" y="202"/>
      <point x="61" y="430" type="curve" smooth="yes"/>
      <point x="59" y="857"/>
      <point x="343" y="1163"/>
      <point x="710" y="1163" type="curve" smooth="yes"/>
      <point x="938" y="1163"/>
      <point x="1033" y="1054"/>
      <point x="1039" y="913" type="curve"/>
      <point x="1049" y="583"/>
      <point x="672" y="461"/>
      <point x="420" y="455" type="curve"/>
      <point x="420" y="247"/>
      <point x="491" y="159"/>
      <point x="607" y="159" type="curve" smooth="yes"/>
      <point x="766" y="159"/>
      <point x="852" y="246"/>
      <point x="905" y="315" type="curve"/>
      <point x="969" y="212" type="line"/>
      <point x="952" y="185"/>
      <point x="926" y="153"/>
      <point x="890" y="121" type="curve"/>
      <point x="893" y="121" type="line"/>
      <point x="767" y="31"/>
      <point x="627" y="-111"/>
      <point x="627" y="-205" type="curve" smooth="yes"/>
      <point x="627" y="-262"/>
      <point x="655" y="-287"/>
      <point x="694" y="-287" type="curve" smooth="yes"/>
      <point x="749" y="-287"/>
      <point x="791" y="-256"/>
      <point x="847" y="-212" type="curve"/>
      <point x="883" y="-326" type="line"/>
      <point x="802" y="-409"/>
      <point x="684" y="-480"/>
      <point x="539" y="-480" type="curve" smooth="yes"/>
      <point x="410" y="-480"/>
      <point x="346" y="-411"/>
      <point x="346" y="-306" type="curve" smooth="yes"/>
      <point x="346" y="-276"/>
      <point x="359" y="-226"/>
    </contour>
    <contour>
      <point x="420" y="575" type="curve"/>
      <point x="537" y="582"/>
      <point x="724" y="689"/>
      <point x="718" y="886" type="curve"/>
      <point x="714" y="977"/>
      <point x="689" y="1025"/>
      <point x="636" y="1025" type="curve" smooth="yes"/>
      <point x="482" y="1025"/>
      <point x="431" y="761"/>
    </contour>
  </outline>
</glyph>
<glyph name="gbreve" format="1">
  <advance width="1218"/>
  <unicode hex="011F"/>
  <outline>
    <contour>
      <point x="153" y="-258" type="line"/>
      <point x="173" y="-277"/>
      <point x="308" y="-349"/>
      <point x="426" y="-349" type="curve" smooth="yes"/>
      <point x="562" y="-349"/>
      <point x="634" y="-327"/>
      <point x="655" y="-145" type="curve" smooth="yes"/>
      <point x="680" y="73" type="line"/>
      <point x="617" y="22"/>
      <point x="528" y="-20"/>
      <point x="413" y="-20" type="curve" smooth="yes"/>
      <point x="163" y="-20"/>
      <point x="60" y="172"/>
      <point x="60" y="402" type="curve" smooth="yes"/>
      <point x="60" y="791"/>
      <point x="293" y="1163"/>
      <point x="746" y="1163" type="curve" smooth="yes"/>
      <point x="830" y="1163"/>
      <point x="934" y="1138"/>
      <point x="994" y="1117" type="curve"/>
      <point x="1156" y="1163" type="line"/>
      <point x="989" y="-77" type="line"/>
      <point x="945" y="-429"/>
      <point x="638" y="-518"/>
      <point x="370" y="-518" type="curve" smooth="yes"/>
      <point x="272" y="-518"/>
      <point x="142" y="-492"/>
      <point x="102" y="-473" type="curve"/>
    </contour>
    <contour>
      <point x="554" y="154" type="curve" smooth="yes"/>
      <point x="609" y="154"/>
      <point x="660" y="186"/>
      <point x="699" y="227" type="curve"/>
      <point x="814" y="1012" type="line"/>
      <point x="786" y="1020"/>
      <point x="755" y="1023"/>
      <point x="722" y="1023" type="curve" smooth="yes"/>
      <point x="479" y="1023"/>
      <point x="406" y="680"/>
      <point x="406" y="413" type="curve" smooth="yes"/>
      <point x="406" y="249"/>
      <point x="463" y="154"/>
    </contour>
    <contour>
      <point x="813" y="1300" type="curve" smooth="yes"/>
      <point x="575" y="1300"/>
      <point x="501" y="1463"/>
      <point x="501" y="1613" type="curve" smooth="yes"/>
      <point x="501" y="1636"/>
      <point x="503" y="1659"/>
      <point x="506" y="1681" type="curve"/>
      <point x="690" y="1681" type="line"/>
      <point x="690" y="1667"/>
      <point x="689" y="1652"/>
      <point x="689" y="1636" type="curve" smooth="yes"/>
      <point x="689" y="1576"/>
      <point x="702" y="1517"/>
      <point x="818" y="1517" type="curve" smooth="yes"/>
      <point x="965" y="1517"/>
      <point x="977" y="1601"/>
      <point x="980" y="1681" type="curve"/>
      <point x="1162" y="1681" type="line"/>
      <point x="1163" y="1670"/>
      <point x="1163" y="1658"/>
      <point x="1163" y="1647" type="curve" smooth="yes"/>
      <point x="1163" y="1488"/>
      <point x="1065" y="1300"/>
    </contour>
  </outline>
</glyph>
<glyph name="Hcircumflex" format="1">
  <advance width="1653"/>
  <unicode hex="0124"/>
  <outline>
    <contour>
      <point x="-21" y="0" type="line"/>
      <point x="-10" y="106" type="line"/>
      <point x="128" y="136" type="line"/>
      <point x="294" y="1394" type="line"/>
      <point x="149" y="1420" type="line"/>
      <point x="163" y="1530" type="line"/>
      <point x="838" y="1530" type="line"/>
      <point x="826" y="1420" type="line"/>
      <point x="646" y="1394" type="line"/>
      <point x="575" y="854" type="line"/>
      <point x="1127" y="854" type="line"/>
      <point x="1198" y="1394" type="line"/>
      <point x="1021" y="1420" type="line"/>
      <point x="1033" y="1530" type="line"/>
      <point x="1716" y="1530" type="line"/>
      <point x="1704" y="1420" type="line"/>
      <point x="1550" y="1394" type="line"/>
      <point x="1385" y="136" type="line"/>
      <point x="1542" y="106" type="line"/>
      <point x="1530" y="0" type="line"/>
      <point x="827" y="0" type="line"/>
      <point x="841" y="106" type="line"/>
      <point x="1032" y="136" type="line"/>
      <point x="1107" y="704" type="line"/>
      <point x="555" y="704" type="line"/>
      <point x="480" y="136" type="line"/>
      <point x="654" y="106" type="line"/>
      <point x="646" y="0" type="line"/>
    </contour>
    <contour>
      <point x="738" y="1600" type="line"/>
      <point x="631" y="1657" type="line"/>
      <point x="998" y="2014" type="line"/>
      <point x="1176" y="2014" type="line"/>
      <point x="1386" y="1657" type="line"/>
      <point x="1262" y="1599" type="line"/>
      <point x="1061" y="1806" type="line"/>
    </contour>
  </outline>
</glyph>
<glyph name="hbar" format="1">
  <advance width="1300"/>
  <unicode hex="0127"/>
  <outline>
    <contour>
      <point x="72" y="0" type="line"/>
      <point x="224" y="1262" type="line"/>
      <point x="92" y="1262" type="line"/>
      <point x="108" y="1392" type="line"/>
      <point x="240" y="1392" type="line"/>
      <point x="251" y="1482" type="line"/>
      <point x="124" y="1525" type="line"/>
      <point x="140" y="1608" type="line"/>
      <point x="549" y="1650" type="line"/>
      <point x="604" y="1623" type="line"/>
      <point x="575" y="1392" type="line"/>
      <point x="790" y="1392" type="line"/>
      <point x="774" y="1262" type="line"/>
      <point x="559" y="1262" type="line"/>
      <point x="517" y="915" type="line"/>
      <point x="605" y="1063"/>
      <point x="738" y="1163"/>
      <point x="901" y="1163" type="curve" smooth="yes"/>
      <point x="1055" y="1163"/>
      <point x="1166" y="1085"/>
      <point x="1166" y="861" type="curve" smooth="yes"/>
      <point x="1166" y="801"/>
      <point x="1136" y="617"/>
      <point x="1117" y="505" type="curve" smooth="yes"/>
      <point x="1100" y="403"/>
      <point x="1075" y="280"/>
      <point x="1075" y="206" type="curve" smooth="yes"/>
      <point x="1075" y="158"/>
      <point x="1094" y="151"/>
      <point x="1114" y="151" type="curve" smooth="yes"/>
      <point x="1136" y="151"/>
      <point x="1156" y="161"/>
      <point x="1204" y="197" type="curve"/>
      <point x="1232" y="124" type="line"/>
      <point x="1210" y="95"/>
      <point x="1112" y="-21"/>
      <point x="932" y="-21" type="curve" smooth="yes"/>
      <point x="752" y="-21"/>
      <point x="729" y="63"/>
      <point x="729" y="150" type="curve" smooth="yes"/>
      <point x="729" y="206"/>
      <point x="754" y="331"/>
      <point x="775" y="443" type="curve"/>
      <point x="794" y="550"/>
      <point x="822" y="709"/>
      <point x="820" y="825" type="curve" smooth="yes"/>
      <point x="818" y="935"/>
      <point x="794" y="965"/>
      <point x="741" y="965" type="curve" smooth="yes"/>
      <point x="659" y="965"/>
      <point x="553" y="844"/>
      <point x="491" y="705" type="curve"/>
      <point x="405" y="0" type="line"/>
    </contour>
  </outline>
</glyph>
<glyph name="Itilde" format="1">
  <advance width="783"/>
  <unicode hex="0128"/>
  <outline>
    <contour>
      <point x="-18" y="0" type="line"/>
      <point x="-5" y="106" type="line"/>
      <point x="145" y="136" type="line"/>
      <point x="310" y="1394" type="line"/>
      <point x="163" y="1420" type="line"/>
      <point x="175" y="1530" type="line"/>
      <point x="846" y="1530" type="line"/>
      <point x="834" y="1420" type="line"/>
      <point x="662" y="1394" type="line"/>
      <point x="497" y="136" type="line"/>
      <point x="672" y="106" type="line"/>
      <point x="665" y="0" type="line"/>
    </contour>
    <contour>
      <point x="303" y="1677" type="curve"/>
      <point x="226" y="1801" type="line"/>
      <point x="267" y="1884"/>
      <point x="383" y="1970"/>
      <point x="483" y="1970" type="curve" smooth="yes"/>
      <point x="638" y="1970"/>
      <point x="663" y="1820"/>
      <point x="762" y="1820" type="curve" smooth="yes"/>
      <point x="836" y="1820"/>
      <point x="876" y="1872"/>
      <point x="914" y="1920" type="curve"/>
      <point x="1002" y="1789" type="line"/>
      <point x="968" y="1702"/>
      <point x="855" y="1608"/>
      <point x="751" y="1608" type="curve" smooth="yes"/>
      <point x="574" y="1608"/>
      <point x="570" y="1755"/>
      <point x="450" y="1758" type="curve" smooth="yes"/>
      <point x="388" y="1759"/>
      <point x="341" y="1717"/>
    </contour>
  </outline>
</glyph>
<glyph name="Ibreve" format="1">
  <advance width="783"/>
  <unicode hex="012C"/>
  <outline>
    <contour>
      <point x="-18" y="0" type="line"/>
      <point x="-5" y="106" type="line"/>
      <point x="145" y="136" type="line"/>
      <point x="310" y="1394" type="line"/>
      <point x="163" y="1420" type="line"/>
      <point x="175" y="1530" type="line"/>
      <point x="846" y="1530" type="line"/>
      <point x="834" y="1420" type="line"/>
      <point x="662" y="1394" type="line"/>
      <point x="497" y="136" type="line"/>
      <point x="672" y="106" type="line"/>
      <point x="665" y="0" type="line"/>
    </contour>
    <contour>
      <point x="546" y="1633" type="curve" smooth="yes"/>
      <point x="308" y="1633"/>
      <point x="234" y="1796"/>
      <point x="234" y="1946" type="curve" smooth="yes"/>
      <point x="234" y="1969"/>
      <point x="236" y="1992"/>
      <point x="239" y="2014" type="curve"/>
      <point x="423" y="2014" type="line"/>
      <point x="423" y="2000"/>
      <point x="422" y="1985"/>
      <point x="422" y="1969" type="curve" smooth="yes"/>
      <point x="422" y="1909"/>
      <point x="435" y="1850"/>
      <point x="551" y="1850" type="curve" smooth="yes"/>
      <point x="698" y="1850"/>
      <point x="710" y="1934"/>
      <point x="713" y="2014" type="curve"/>
      <point x="895" y="2014" type="line"/>
      <point x="896" y="2003"/>
      <point x="896" y="1991"/>
      <point x="896" y="1980" type="curve" smooth="yes"/>
      <point x="896" y="1821"/>
      <point x="798" y="1633"/>
    </contour>
  </outline>
</glyph>
<glyph name="ibreve" format="1">
  <advance width="669"/>
  <unicode hex="012D"/>
  <outline>
    <contour>
      <point x="108" y="129" type="curve" smooth="yes"/>
      <point x="132" y="288"/>
      <point x="170" y="596"/>
      <point x="221" y="980" type="curve"/>
      <point x="57" y="1031" type="line"/>
      <point x="75" y="1112" type="line"/>
      <point x="521" y="1163" type="line"/>
      <point x="576" y="1139" type="line"/>
      <point x="448" y="227" type="line" smooth="yes"/>
      <point x="441" y="178"/>
      <point x="453" y="151"/>
      <point x="483" y="151" type="curve" smooth="yes"/>
      <point x="506" y="151"/>
      <point x="529" y="163"/>
      <point x="575" y="197" type="curve"/>
      <point x="603" y="124" type="line"/>
      <point x="579" y="94"/>
      <point x="482" y="-20"/>
      <point x="307" y="-20" type="curve" smooth="yes"/>
      <point x="165" y="-20"/>
      <point x="95" y="42"/>
    </contour>
    <contour>
      <point x="428" y="1300" type="curve" smooth="yes"/>
      <point x="190" y="1300"/>
      <point x="116" y="1463"/>
      <point x="116" y="1613" type="curve" smooth="yes"/>
      <point x="116" y="1636"/>
      <point x="118" y="1659"/>
      <point x="121" y="1681" type="curve"/>
      <point x="305" y="1681" type="line"/>
      <point x="305" y="1667"/>
      <point x="304" y="1652"/>
      <point x="304" y="1636" type="curve" smooth="yes"/>
      <point x="304" y="1576"/>
      <point x="317" y="1517"/>
      <point x="433" y="1517" type="curve" smooth="yes"/>
      <point x="580" y="1517"/>
      <point x="592" y="1601"/>
      <point x="595" y="1681" type="curve"/>
      <point x="777" y="1681" type="line"/>
      <point x="778" y="1670"/>
      <point x="778" y="1658"/>
      <point x="778" y="1647" type="curve" smooth="yes"/>
      <point x="778" y="1488"/>
      <point x="680" y="1300"/>
    </contour>
  </outline>
</glyph>
<glyph name="Iogonek" format="1">
  <advance width="706"/>
  <unicode hex="012E"/>
  <outline>
    <contour>
      <point x="-73" y="0" type="line"/>
      <point x="-60" y="106" type="line"/>
      <point x="90" y="136" type="line"/>
      <point x="255" y="1394" type="line"/>
      <point x="108" y="1420" type="line"/>
      <point x="120" y="1530" type="line"/>
      <point x="791" y="1530" type="line"/>
      <point x="779" y="1420" type="line"/>
      <point x="607" y="1394" type="line"/>
      <point x="442" y="136" type="line"/>
      <point x="617" y="106" type="line"/>
      <point x="610" y="0" type="line"/>
      <point x="387" y="0" type="line"/>
      <point x="277" y="-74"/>
      <point x="193" y="-152"/>
      <point x="193" y="-215" type="curve" smooth="yes"/>
      <point x="193" y="-272"/>
      <point x="221" y="-287"/>
      <point x="260" y="-287" type="curve" smooth="yes"/>
      <point x="315" y="-287"/>
      <point x="357" y="-256"/>
      <point x="413" y="-212" type="curve"/>
      <point x="449" y="-326" type="line"/>
      <point x="368" y="-409"/>
      <point x="250" y="-480"/>
      <point x="105" y="-480" type="curve" smooth="yes"/>
      <point x="-24" y="-480"/>
      <point x="-88" y="-411"/>
      <point x="-88" y="-306" type="curve" smooth="yes"/>
      <point x="-88" y="-273"/>
      <point x="-69" y="-220"/>
      <point x="-43" y="-182" type="curve" smooth="yes"/>
      <point x="26" y="-81"/>
      <point x="100" y="-34"/>
      <point x="168" y="0" type="curve"/>
    </contour>
  </outline>
</glyph>
<glyph name="Idotaccent" format="1">
  <advance width="783"/>
  <unicode hex="0130"/>
  <outline>
    <contour>
      <point x="-18" y="0" type="line"/>
      <point x="-5" y="106" type="line"/>
      <point x="145" y="136" type="line"/>
      <point x="310" y="1394" type="line"/>
      <point x="163" y="1420" type="line"/>
      <point x="175" y="1530" type="line"/>
      <point x="846" y="1530" type="line"/>
      <point x="834" y="1420" type="line"/>
      <point x="662" y="1394" type="line"/>
      <point x="497" y="136" type="line"/>
      <point x="672" y="106" type="line"/>
      <point x="665" y="0" type="line"/>
    </contour>
    <contour>
      <point x="531" y="1612" type="curve" smooth="yes"/>
      <point x="442" y="1612"/>
      <point x="357" y="1696"/>
      <point x="359" y="1779" type="curve" smooth="yes"/>
      <point x="362" y="1888"/>
      <point x="444" y="1975"/>
      <point x="567" y="1975" type="curve" smooth="yes"/>
      <point x="673" y="1975"/>
      <point x="749" y="1894"/>
      <point x="747" y="1814" type="curve" smooth="yes"/>
      <point x="744" y="1703"/>
      <point x="673" y="1612"/>
    </contour>
  </outline>
</glyph>
<glyph name="IJ" format="1">
  <advance width="1531"/>
  <unicode hex="0132"/>
  <outline>
    <contour>
      <point x="-18" y="0" type="line"/>
      <point x="-5" y="106" type="line"/>
      <point x="145" y="136" type="line"/>
      <point x="310" y="1394" type="line"/>
      <point x="163" y="1420" type="line"/>
      <point x="175" y="1530" type="line"/>
      <point x="846" y="1530" type="line"/>
      <point x="834" y="1420" type="line"/>
      <point x="662" y="1394" type="line"/>
      <point x="497" y="136" type="line"/>
      <point x="672" y="106" type="line"/>
      <point x="665" y="0" type="line"/>
    </contour>
    <contour>
      <point x="898" y="86" type="curve" smooth="yes"/>
      <point x="971" y="476"/>
      <point x="1032" y="958"/>
      <point x="1080" y="1393" type="curve"/>
      <point x="927" y="1420" type="line"/>
      <point x="942" y="1530" type="line"/>
      <point x="1608" y="1530" type="line"/>
      <point x="1597" y="1420" type="line"/>
      <point x="1429" y="1394" type="line"/>
      <point x="1360" y="833"/>
      <point x="1280" y="170"/>
      <point x="1247" y="75" type="curve" smooth="yes"/>
      <point x="1165" y="-160"/>
      <point x="909" y="-306"/>
      <point x="630" y="-345" type="curve"/>
      <point x="578" y="-237" type="line"/>
      <point x="796" y="-170"/>
      <point x="873" y="-45"/>
    </contour>
  </outline>
</glyph>
<glyph name="Jcircumflex" format="1">
  <advance width="748"/>
  <unicode hex="0134"/>
  <outline>
    <contour>
      <point x="115" y="86" type="curve" smooth="yes"/>
      <point x="188" y="476"/>
      <point x="249" y="958"/>
      <point x="297" y="1393" type="curve"/>
      <point x="144" y="1420" type="line"/>
      <point x="159" y="1530" type="line"/>
      <point x="825" y="1530" type="line"/>
      <point x="814" y="1420" type="line"/>
      <point x="646" y="1394" type="line"/>
      <point x="577" y="833"/>
      <point x="497" y="170"/>
      <point x="464" y="75" type="curve" smooth="yes"/>
      <point x="382" y="-160"/>
      <point x="126" y="-306"/>
      <point x="-153" y="-345" type="curve"/>
      <point x="-205" y="-237" type="line"/>
      <point x="13" y="-170"/>
      <point x="90" y="-45"/>
    </contour>
    <contour>
      <point x="272" y="1600" type="line"/>
      <point x="165" y="1657" type="line"/>
      <point x="532" y="2014" type="line"/>
      <point x="710" y="2014" type="line"/>
      <point x="920" y="1657" type="line"/>
      <point x="796" y="1599" type="line"/>
      <point x="595" y="1806" type="line"/>
    </contour>
  </outline>
</glyph>
<glyph name="Kcommaaccent" format="1">
  <advance width="1477"/>
  <unicode hex="0136"/>
  <outline>
    <contour>
      <point x="-31" y="0" type="line"/>
      <point x="-18" y="106" type="line"/>
      <point x="128" y="136" type="line"/>
      <point x="293" y="1394" type="line"/>
      <point x="148" y="1420" type="line"/>
      <point x="162" y="1530" type="line"/>
      <point x="837" y="1530" type="line"/>
      <point x="825" y="1420" type="line"/>
      <point x="645" y="1394" type="line"/>
      <point x="556" y="721" type="line"/>
      <point x="1180" y="1394" type="line"/>
      <point x="1035" y="1421" type="line"/>
      <point x="1046" y="1530" type="line"/>
      <point x="1547" y="1530" type="line"/>
      <point x="1535" y="1420" type="line"/>
      <point x="1418" y="1394" type="line"/>
      <point x="951" y="924" type="line"/>
      <point x="1011" y="834"/>
      <point x="1123" y="573"/>
      <point x="1178" y="465" type="curve" smooth="yes"/>
      <point x="1273" y="276"/>
      <point x="1330" y="161"/>
      <point x="1377" y="136" type="curve"/>
      <point x="1494" y="106" type="line"/>
      <point x="1482" y="0" type="line"/>
      <point x="1048" y="0" type="line"/>
      <point x="988" y="7"/>
      <point x="969" y="46"/>
      <point x="906" y="204" type="curve" smooth="yes"/>
      <point x="853" y="335"/>
      <point x="788" y="541"/>
      <point x="716" y="686" type="curve"/>
      <point x="527" y="495" type="line"/>
      <point x="480" y="136" type="line"/>
      <point x="654" y="106" type="line"/>
      <point x="645" y="0" type="line"/>
    </contour>
    <contour>
      <point x="615" y="-139" type="line"/>
      <point x="769" y="-35" type="line"/>
      <point x="859" y="-54"/>
      <point x="927" y="-142"/>
      <point x="927" y="-247" type="curve" smooth="yes"/>
      <point x="927" y="-418"/>
      <point x="803" y="-539"/>
      <point x="700" y="-558" type="curve"/>
      <point x="600" y="-488" type="line"/>
      <point x="603" y="-462" type="line"/>
      <point x="626" y="-449"/>
      <point x="671" y="-405"/>
      <point x="671" y="-333" type="curve" smooth="yes"/>
      <point x="671" y="-283"/>
      <point x="643" y="-236"/>
      <point x="604" y="-232" type="curve"/>
    </contour>
  </outline>
</glyph>
<glyph name="Lacute" format="1">
  <advance width="1271"/>
  <unicode hex="0139"/>
  <outline>
    <contour>
      <point x="-22" y="0" type="line"/>
      <point x="-10" y="106" type="line"/>
      <point x="128" y="136" type="line"/>
      <point x="293" y="1394" type="line"/>
      <point x="147" y="1420" type="line"/>
      <point x="160" y="1530" type="line"/>
      <point x="839" y="1530" type="line"/>
      <point x="827" y="1420" type="line"/>
      <point x="645" y="1394" type="line"/>
      <point x="479" y="129" type="line"/>
      <point x="828" y="149" type="line"/>
      <point x="1019" y="600" type="line"/>
      <point x="1200" y="577" type="line"/>
      <point x="1116" y="0" type="line"/>
    </contour>
    <contour>
      <point x="601" y="1572" type="curve"/>
      <point x="485" y="1674" type="line"/>
      <point x="761" y="2016" type="line"/>
      <point x="948" y="1831" type="line"/>
      <point x="896" y="1730"/>
      <point x="697" y="1608"/>
    </contour>
  </outline>
</glyph>
<glyph name="lcommaaccent" format="1">
  <advance width="635"/>
  <unicode hex="013C"/>
  <outline>
    <contour>
      <point x="83" y="115" type="curve" smooth="yes"/>
      <point x="83" y="139"/>
      <point x="89" y="176"/>
      <point x="91" y="192" type="curve" smooth="yes"/>
      <point x="262" y="1482" type="line"/>
      <point x="130" y="1525" type="line"/>
      <point x="150" y="1608" type="line"/>
      <point x="556" y="1650" type="line"/>
      <point x="607" y="1623" type="line"/>
      <point x="423" y="227" type="line" smooth="yes"/>
      <point x="416" y="180"/>
      <point x="426" y="151"/>
      <point x="458" y="151" type="curve" smooth="yes"/>
      <point x="479" y="151"/>
      <point x="498" y="158"/>
      <point x="550" y="197" type="curve"/>
      <point x="578" y="124" type="line"/>
      <point x="556" y="95"/>
      <point x="462" y="-20"/>
      <point x="298" y="-20" type="curve" smooth="yes"/>
      <point x="190" y="-20"/>
      <point x="85" y="17"/>
    </contour>
    <contour>
      <point x="68" y="-141" type="line"/>
      <point x="222" y="-37" type="line"/>
      <point x="312" y="-56"/>
      <point x="380" y="-144"/>
      <point x="380" y="-249" type="curve" smooth="yes"/>
      <point x="380" y="-420"/>
      <point x="256" y="-541"/>
      <point x="153" y="-560" type="curve"/>
      <point x="53" y="-490" type="line"/>
      <point x="56" y="-464" type="line"/>
      <point x="79" y="-451"/>
      <point x="124" y="-407"/>
      <point x="124" y="-335" type="curve" smooth="yes"/>
      <point x="124" y="-285"/>
      <point x="96" y="-238"/>
      <point x="57" y="-234" type="curve"/>
    </contour>
  </outline>
</glyph>
<glyph name="Lcaron" format="1">
  <advance width="1271"/>
  <unicode hex="013D"/>
  <outline>
    <contour>
      <point x="-22" y="0" type="line"/>
      <point x="-10" y="106" type="line"/>
      <point x="128" y="136" type="line"/>
      <point x="293" y="1394" type="line"/>
      <point x="147" y="1420" type="line"/>
      <point x="160" y="1530" type="line"/>
      <point x="839" y="1530" type="line"/>
      <point x="827" y="1420" type="line"/>
      <point x="645" y="1394" type="line"/>
      <point x="479" y="129" type="line"/>
      <point x="828" y="149" type="line"/>
      <point x="1019" y="600" type="line"/>
      <point x="1200" y="577" type="line"/>
      <point x="1116" y="0" type="line"/>
    </contour>
    <contour>
      <point x="950" y="1035" type="line"/>
      <point x="944" y="1060" type="line"/>
      <point x="967" y="1123"/>
      <point x="985" y="1245"/>
      <point x="985" y="1361" type="curve" smooth="yes"/>
      <point x="985" y="1436"/>
      <point x="981" y="1532"/>
      <point x="961" y="1562" type="curve"/>
      <point x="980" y="1604" type="line"/>
      <point x="1187" y="1650" type="line"/>
      <point x="1212" y="1623"/>
      <point x="1225" y="1541"/>
      <point x="1225" y="1461" type="curve" smooth="yes"/>
      <point x="1225" y="1305"/>
      <point x="1175" y="1106"/>
      <point x="1080" y="1005" type="curve"/>
    </contour>
  </outline>
</glyph>
<glyph name="lcaron" format="1">
  <advance width="756"/>
  <unicode hex="013E"/>
  <outline>
    <contour>
      <point x="83" y="117" type="curve" smooth="yes"/>
      <point x="83" y="141"/>
      <point x="89" y="178"/>
      <point x="91" y="194" type="curve" smooth="yes"/>
      <point x="262" y="1484" type="line"/>
      <point x="130" y="1527" type="line"/>
      <point x="150" y="1610" type="line"/>
      <point x="556" y="1652" type="line"/>
      <point x="607" y="1625" type="line"/>
      <point x="423" y="229" type="line" smooth="yes"/>
      <point x="416" y="182"/>
      <point x="426" y="153"/>
      <point x="458" y="153" type="curve" smooth="yes"/>
      <point x="479" y="153"/>
      <point x="498" y="160"/>
      <point x="550" y="199" type="curve"/>
      <point x="578" y="126" type="line"/>
      <point x="556" y="97"/>
      <point x="462" y="-18"/>
      <point x="298" y="-18" type="curve" smooth="yes"/>
      <point x="190" y="-18"/>
      <point x="85" y="19"/>
    </contour>
    <contour>
      <point x="706" y="1035" type="line"/>
      <point x="700" y="1060" type="line"/>
      <point x="723" y="1123"/>
      <point x="741" y="1245"/>
      <point x="741" y="1361" type="curve" smooth="yes"/>
      <point x="741" y="1436"/>
      <point x="737" y="1532"/>
      <point x="717" y="1562" type="curve"/>
      <point x="736" y="1604" type="line"/>
      <point x="943" y="1650" type="line"/>
      <point x="968" y="1623"/>
      <point x="981" y="1541"/>
      <point x="981" y="1461" type="curve" smooth="yes"/>
      <point x="981" y="1305"/>
      <point x="931" y="1106"/>
      <point x="836" y="1005" type="curve"/>
    </contour>
  </outline>
</glyph>
<glyph name="ldot" format="1">
  <advance width="809"/>
  <unicode hex="0140"/>
  <outline>
    <contour>
      <point x="83" y="115" type="curve" smooth="yes"/>
      <point x="83" y="139"/>
      <point x="89" y="176"/>
      <point x="91" y="192" type="curve" smooth="yes"/>
      <point x="262" y="1482" type="line"/>
      <point x="130" y="1525" type="line"/>
      <point x="150" y="1608" type="line"/>
      <point x="556" y="1650" type="line"/>
      <point x="607" y="1623" type="line"/>
      <point x="423" y="227" type="line" smooth="yes"/>
      <point x="416" y="180"/>
      <point x="426" y="151"/>
      <point x="458" y="151" type="curve" smooth="yes"/>
      <point x="479" y="151"/>
      <point x="498" y="158"/>
      <point x="550" y="197" type="curve"/>
      <point x="578" y="124" type="line"/>
      <point x="556" y="95"/>
      <point x="462" y="-20"/>
      <point x="298" y="-20" type="curve" smooth="yes"/>
      <point x="190" y="-20"/>
      <point x="85" y="17"/>
    </contour>
    <contour>
      <point x="575" y="787" type="curve" smooth="yes"/>
      <point x="575" y="912"/>
      <point x="675" y="987"/>
      <point x="766" y="987" type="curve" smooth="yes"/>
      <point x="865" y="987"/>
      <point x="914" y="908"/>
      <point x="914" y="826" type="curve" smooth="yes"/>
      <point x="914" y="690"/>
      <point x="808" y="626"/>
      <point x="712" y="626" type="curve" smooth="yes"/>
      <point x="637" y="626"/>
      <point x="575" y="695"/>
    </contour>
  </outline>
</glyph>
<glyph name="Lslash" format="1">
  <advance width="1272"/>
  <unicode hex="0141"/>
  <outline>
    <contour>
      <point x="-21" y="2" type="line"/>
      <point x="-9" y="108" type="line"/>
      <point x="129" y="138" type="line"/>
      <point x="182" y="540" type="line"/>
      <point x="37" y="483" type="line"/>
      <point x="1" y="601" type="line"/>
      <point x="200" y="682" type="line"/>
      <point x="294" y="1396" type="line"/>
      <point x="148" y="1422" type="line"/>
      <point x="161" y="1532" type="line"/>
      <point x="840" y="1532" type="line"/>
      <point x="828" y="1422" type="line"/>
      <point x="646" y="1396" type="line"/>
      <point x="572" y="833" type="line"/>
      <point x="877" y="957" type="line"/>
      <point x="912" y="830" type="line"/>
      <point x="553" y="687" type="line"/>
      <point x="480" y="131" type="line"/>
      <point x="829" y="151" type="line"/>
      <point x="1020" y="602" type="line"/>
      <point x="1201" y="579" type="line"/>
      <point x="1117" y="2" type="line"/>
    </contour>
  </outline>
</glyph>
<glyph name="nacute" format="1">
  <advance width="1308"/>
  <unicode hex="0144"/>
  <outline>
    <contour>
      <point x="83" y="0" type="line"/>
      <point x="214" y="962" type="line"/>
      <point x="107" y="1022" type="line"/>
      <point x="123" y="1111" type="line"/>
      <point x="497" y="1163" type="line"/>
      <point x="549" y="1139" type="line"/>
      <point x="533" y="929" type="line"/>
      <point x="621" y="1069"/>
      <point x="750" y="1163"/>
      <point x="908" y="1163" type="curve" smooth="yes"/>
      <point x="1062" y="1163"/>
      <point x="1173" y="1085"/>
      <point x="1173" y="861" type="curve" smooth="yes"/>
      <point x="1173" y="801"/>
      <point x="1143" y="617"/>
      <point x="1124" y="505" type="curve" smooth="yes"/>
      <point x="1107" y="403"/>
      <point x="1082" y="280"/>
      <point x="1082" y="206" type="curve" smooth="yes"/>
      <point x="1082" y="158"/>
      <point x="1101" y="151"/>
      <point x="1121" y="151" type="curve" smooth="yes"/>
      <point x="1143" y="151"/>
      <point x="1163" y="161"/>
      <point x="1211" y="197" type="curve"/>
      <point x="1239" y="124" type="line"/>
      <point x="1217" y="95"/>
      <point x="1119" y="-21"/>
      <point x="939" y="-21" type="curve" smooth="yes"/>
      <point x="759" y="-21"/>
      <point x="736" y="73"/>
      <point x="736" y="150" type="curve" smooth="yes"/>
      <point x="736" y="206"/>
      <point x="761" y="331"/>
      <point x="782" y="443" type="curve"/>
      <point x="801" y="550"/>
      <point x="829" y="709"/>
      <point x="827" y="825" type="curve" smooth="yes"/>
      <point x="825" y="935"/>
      <point x="801" y="965"/>
      <point x="748" y="965" type="curve" smooth="yes"/>
      <point x="669" y="965"/>
      <point x="568" y="853"/>
      <point x="506" y="721" type="curve"/>
      <point x="407" y="0" type="line"/>
    </contour>
    <contour>
      <point x="748" y="1231" type="curve"/>
      <point x="645" y="1312" type="line"/>
      <point x="962" y="1743" type="line"/>
      <point x="1154" y="1556" type="line"/>
      <point x="1118" y="1488"/>
      <point x="867" y="1277"/>
    </contour>
  </outline>
</glyph>
<glyph name="Ncommaaccent" format="1">
  <advance width="1545"/>
  <unicode hex="0145"/>
  <outline>
    <contour>
      <point x="-33" y="0" type="line"/>
      <point x="-25" y="106" type="line"/>
      <point x="124" y="136" type="line"/>
      <point x="310" y="1394" type="line"/>
      <point x="140" y="1420" type="line"/>
      <point x="156" y="1530" type="line"/>
      <point x="713" y="1530" type="line"/>
      <point x="1084" y="535" type="line"/>
      <point x="1162" y="305" type="line"/>
      <point x="1298" y="1394" type="line"/>
      <point x="1126" y="1420" type="line"/>
      <point x="1137" y="1530" type="line"/>
      <point x="1639" y="1530" type="line"/>
      <point x="1628" y="1420" type="line"/>
      <point x="1505" y="1394" type="line"/>
      <point x="1293" y="0" type="line"/>
      <point x="935" y="0" type="line"/>
      <point x="544" y="1028" type="line"/>
      <point x="466" y="1282" type="line"/>
      <point x="341" y="136" type="line"/>
      <point x="531" y="106" type="line"/>
      <point x="520" y="0" type="line"/>
    </contour>
    <contour>
      <point x="554" y="-141" type="line"/>
      <point x="708" y="-37" type="line"/>
      <point x="798" y="-56"/>
      <point x="866" y="-144"/>
      <point x="866" y="-249" type="curve" smooth="yes"/>
      <point x="866" y="-420"/>
      <point x="742" y="-541"/>
      <point x="639" y="-560" type="curve"/>
      <point x="539" y="-490" type="line"/>
      <point x="542" y="-464" type="line"/>
      <point x="565" y="-451"/>
      <point x="610" y="-407"/>
      <point x="610" y="-335" type="curve" smooth="yes"/>
      <point x="610" y="-285"/>
      <point x="582" y="-238"/>
      <point x="543" y="-234" type="curve"/>
    </contour>
  </outline>
</glyph>
<glyph name="ncommaaccent" format="1">
  <advance width="1308"/>
  <unicode hex="0146"/>
  <outline>
    <contour>
      <point x="83" y="0" type="line"/>
      <point x="214" y="962" type="line"/>
      <point x="107" y="1022" type="line"/>
      <point x="123" y="1111" type="line"/>
      <point x="497" y="1163" type="line"/>
      <point x="549" y="1139" type="line"/>
      <point x="533" y="929" type="line"/>
      <point x="621" y="1069"/>
      <point x="750" y="1163"/>
      <point x="908" y="1163" type="curve" smooth="yes"/>
      <point x="1062" y="1163"/>
      <point x="1173" y="1085"/>
      <point x="1173" y="861" type="curve" smooth="yes"/>
      <point x="1173" y="801"/>
      <point x="1143" y="617"/>
      <point x="1124" y="505" type="curve" smooth="yes"/>
      <point x="1107" y="403"/>
      <point x="1082" y="280"/>
      <point x="1082" y="206" type="curve" smooth="yes"/>
      <point x="1082" y="158"/>
      <point x="1101" y="151"/>
      <point x="1121" y="151" type="curve" smooth="yes"/>
      <point x="1143" y="151"/>
      <point x="1163" y="161"/>
      <point x="1211" y="197" type="curve"/>
      <point x="1239" y="124" type="line"/>
      <point x="1217" y="95"/>
      <point x="1119" y="-21"/>
      <point x="939" y="-21" type="curve" smooth="yes"/>
      <point x="759" y="-21"/>
      <point x="736" y="73"/>
      <point x="736" y="150" type="curve" smooth="yes"/>
      <point x="736" y="206"/>
      <point x="761" y="331"/>
      <point x="782" y="443" type="curve"/>
      <point x="801" y="550"/>
      <point x="829" y="709"/>
      <point x="827" y="825" type="curve" smooth="yes"/>
      <point x="825" y="935"/>
      <point x="801" y="965"/>
      <point x="748" y="965" type="curve" smooth="yes"/>
      <point x="669" y="965"/>
      <point x="568" y="853"/>
      <point x="506" y="721" type="curve"/>
      <point x="407" y="0" type="line"/>
    </contour>
    <contour>
      <point x="423" y="-141" type="line"/>
      <point x="577" y="-37" type="line"/>
      <point x="667" y="-56"/>
      <point x="735" y="-144"/>
      <point x="735" y="-249" type="curve" smooth="yes"/>
      <point x="735" y="-420"/>
      <point x="611" y="-541"/>
      <point x="508" y="-560" type="curve"/>
      <point x="408" y="-490" type="line"/>
      <point x="411" y="-464" type="line"/>
      <point x="434" y="-451"/>
      <point x="479" y="-407"/>
      <point x="479" y="-335" type="curve" smooth="yes"/>
      <point x="479" y="-285"/>
      <point x="451" y="-238"/>
      <point x="412" y="-234" type="curve"/>
    </contour>
  </outline>
</glyph>
<glyph name="Eng" format="1">
  <advance width="1545"/>
  <unicode hex="014A"/>
  <outline>
    <contour>
      <point x="-33" y="0" type="line"/>
      <point x="-25" y="106" type="line"/>
      <point x="124" y="136" type="line"/>
      <point x="305" y="1394" type="line"/>
      <point x="135" y="1420" type="line"/>
      <point x="151" y="1530" type="line"/>
      <point x="708" y="1530" type="line"/>
      <point x="1099" y="620" type="line"/>
      <point x="1170" y="370" type="line"/>
      <point x="1293" y="1394" type="line"/>
      <point x="1121" y="1420" type="line"/>
      <point x="1132" y="1530" type="line"/>
      <point x="1634" y="1530" type="line"/>
      <point x="1623" y="1420" type="line"/>
      <point x="1500" y="1394" type="line"/>
      <point x="1293" y="0" type="line" smooth="yes"/>
      <point x="1258" y="-239"/>
      <point x="1073" y="-467"/>
      <point x="762" y="-485" type="curve"/>
      <point x="714" y="-367" type="line"/>
      <point x="842" y="-343"/>
      <point x="1020" y="-201"/>
      <point x="1006" y="0" type="curve"/>
      <point x="539" y="1028" type="line"/>
      <point x="461" y="1282" type="line"/>
      <point x="341" y="136" type="line"/>
      <point x="531" y="106" type="line"/>
      <point x="520" y="0" type="line"/>
    </contour>
  </outline>
</glyph>
<glyph name="Obreve" format="1">
  <advance width="1500"/>
  <unicode hex="014E"/>
  <outline>
    <contour>
      <point x="55" y="637" type="curve" smooth="yes"/>
      <point x="55" y="1099"/>
      <point x="311" y="1550"/>
      <point x="865" y="1550" type="curve" smooth="yes"/>
      <point x="1292" y="1550"/>
      <point x="1465" y="1238"/>
      <point x="1465" y="893" type="curve" smooth="yes"/>
      <point x="1465" y="440"/>
      <point x="1234" y="-20"/>
      <point x="655" y="-20" type="curve" smooth="yes"/>
      <point x="236" y="-20"/>
      <point x="55" y="264"/>
    </contour>
    <contour>
      <point x="684" y="102" type="curve" smooth="yes"/>
      <point x="958" y="102"/>
      <point x="1084" y="451"/>
      <point x="1084" y="881" type="curve" smooth="yes"/>
      <point x="1084" y="1217"/>
      <point x="1017" y="1426"/>
      <point x="838" y="1426" type="curve" smooth="yes"/>
      <point x="577" y="1426"/>
      <point x="436" y="1037"/>
      <point x="436" y="649" type="curve" smooth="yes"/>
      <point x="436" y="392"/>
      <point x="471" y="102"/>
    </contour>
    <contour>
      <point x="876" y="1633" type="curve" smooth="yes"/>
      <point x="638" y="1633"/>
      <point x="564" y="1796"/>
      <point x="564" y="1946" type="curve" smooth="yes"/>
      <point x="564" y="1969"/>
      <point x="566" y="1992"/>
      <point x="569" y="2014" type="curve"/>
      <point x="753" y="2014" type="line"/>
      <point x="753" y="2000"/>
      <point x="752" y="1985"/>
      <point x="752" y="1969" type="curve" smooth="yes"/>
      <point x="752" y="1909"/>
      <point x="765" y="1850"/>
      <point x="881" y="1850" type="curve" smooth="yes"/>
      <point x="1028" y="1850"/>
      <point x="1040" y="1934"/>
      <point x="1043" y="2014" type="curve"/>
      <point x="1225" y="2014" type="line"/>
      <point x="1226" y="2003"/>
      <point x="1226" y="1991"/>
      <point x="1226" y="1980" type="curve" smooth="yes"/>
      <point x="1226" y="1821"/>
      <point x="1128" y="1633"/>
    </contour>
  </outline>
</glyph>
<glyph name="obreve" format="1">
  <advance width="1197"/>
  <unicode hex="014F"/>
  <outline>
    <contour>
      <point x="61" y="439" type="curve"/>
      <point x="48" y="832"/>
      <point x="293" y="1163"/>
      <point x="686" y="1163" type="curve" smooth="yes"/>
      <point x="970" y="1163"/>
      <point x="1122" y="994"/>
      <point x="1131" y="703" type="curve" smooth="yes"/>
      <point x="1144" y="310"/>
      <point x="898" y="-20"/>
      <point x="505" y="-20" type="curve" smooth="yes"/>
      <point x="220" y="-20"/>
      <point x="72" y="148"/>
    </contour>
    <contour>
      <point x="550" y="107" type="curve" smooth="yes"/>
      <point x="729" y="107"/>
      <point x="779" y="446"/>
      <point x="772" y="707" type="curve" smooth="yes"/>
      <point x="766" y="938"/>
      <point x="729" y="1025"/>
      <point x="651" y="1025" type="curve" smooth="yes"/>
      <point x="471" y="1025"/>
      <point x="410" y="688"/>
      <point x="418" y="435" type="curve" smooth="yes"/>
      <point x="425" y="202"/>
      <point x="456" y="107"/>
    </contour>
    <contour>
      <point x="715" y="1300" type="curve" smooth="yes"/>
      <point x="477" y="1300"/>
      <point x="403" y="1463"/>
      <point x="403" y="1613" type="curve" smooth="yes"/>
      <point x="403" y="1636"/>
      <point x="405" y="1659"/>
      <point x="408" y="1681" type="curve"/>
      <point x="592" y="1681" type="line"/>
      <point x="592" y="1667"/>
      <point x="591" y="1652"/>
      <point x="591" y="1636" type="curve" smooth="yes"/>
      <point x="591" y="1576"/>
      <point x="604" y="1517"/>
      <point x="720" y="1517" type="curve" smooth="yes"/>
      <point x="867" y="1517"/>
      <point x="879" y="1601"/>
      <point x="882" y="1681" type="curve"/>
      <point x="1064" y="1681" type="line"/>
      <point x="1065" y="1670"/>
      <point x="1065" y="1658"/>
      <point x="1065" y="1647" type="curve" smooth="yes"/>
      <point x="1065" y="1488"/>
      <point x="967" y="1300"/>
    </contour>
  </outline>
</glyph>
<glyph name="Ohungarumlaut" format="1">
  <advance width="1500"/>
  <unicode hex="0150"/>
  <outline>
    <contour>
      <point x="55" y="637" type="curve" smooth="yes"/>
      <point x="55" y="1099"/>
      <point x="311" y="1550"/>
      <point x="865" y="1550" type="curve" smooth="yes"/>
      <point x="1292" y="1550"/>
      <point x="1465" y="1238"/>
      <point x="1465" y="893" type="curve" smooth="yes"/>
      <point x="1465" y="440"/>
      <point x="1234" y="-20"/>
      <point x="655" y="-20" type="curve" smooth="yes"/>
      <point x="236" y="-20"/>
      <point x="55" y="264"/>
    </contour>
    <contour>
      <point x="684" y="102" type="curve" smooth="yes"/>
      <point x="958" y="102"/>
      <point x="1084" y="451"/>
      <point x="1084" y="881" type="curve" smooth="yes"/>
      <point x="1084" y="1217"/>
      <point x="1017" y="1426"/>
      <point x="838" y="1426" type="curve" smooth="yes"/>
      <point x="577" y="1426"/>
      <point x="436" y="1037"/>
      <point x="436" y="649" type="curve" smooth="yes"/>
      <point x="436" y="392"/>
      <point x="471" y="102"/>
    </contour>
    <contour>
      <point x="1077" y="1570" type="curve"/>
      <point x="978" y="1645" type="line"/>
      <point x="1260" y="2014" type="line"/>
      <point x="1420" y="1881" type="line"/>
      <point x="1352" y="1765"/>
      <point x="1200" y="1608"/>
    </contour>
    <contour>
      <point x="592" y="1570" type="curve"/>
      <point x="488" y="1645" type="line"/>
      <point x="770" y="2014" type="line"/>
      <point x="933" y="1882" type="line"/>
      <point x="882" y="1766"/>
      <point x="706" y="1607"/>
    </contour>
  </outline>
</glyph>
<glyph name="OE" format="1">
  <advance width="2340"/>
  <unicode hex="0152"/>
  <outline>
    <contour>
      <point x="55" y="637" type="curve" smooth="yes"/>
      <point x="55" y="1099"/>
      <point x="301" y="1550"/>
      <point x="855" y="1550" type="curve" smooth="yes"/>
      <point x="1079" y="1550"/>
      <point x="1211" y="1464"/>
      <point x="1286" y="1332" type="curve"/>
      <point x="1311" y="1530" type="line"/>
      <point x="2274" y="1530" type="line"/>
      <point x="2238" y="1160" type="line"/>
      <point x="2026" y="1160" type="line"/>
      <point x="1992" y="1384" type="line"/>
      <point x="1643" y="1410" type="line"/>
      <point x="1576" y="881" type="line"/>
      <point x="2020" y="905" type="line"/>
      <point x="1997" y="687" type="line"/>
      <point x="1556" y="712" type="line"/>
      <point x="1478" y="136" type="line"/>
      <point x="1957" y="171" type="line"/>
      <point x="2074" y="468" type="line"/>
      <point x="2287" y="454" type="line"/>
      <point x="2217" y="0" type="line"/>
      <point x="1120" y="0" type="line"/>
      <point x="1140" y="165" type="line"/>
      <point x="1028" y="52"/>
      <point x="869" y="-20"/>
      <point x="645" y="-20" type="curve" smooth="yes"/>
      <point x="226" y="-20"/>
      <point x="55" y="264"/>
    </contour>
    <contour>
      <point x="674" y="102" type="curve" smooth="yes"/>
      <point x="948" y="102"/>
      <point x="1074" y="451"/>
      <point x="1074" y="881" type="curve" smooth="yes"/>
      <point x="1074" y="1217"/>
      <point x="1007" y="1426"/>
      <point x="828" y="1426" type="curve" smooth="yes"/>
      <point x="567" y="1426"/>
      <point x="426" y="1037"/>
      <point x="426" y="649" type="curve" smooth="yes"/>
      <point x="426" y="392"/>
      <point x="461" y="102"/>
    </contour>
  </outline>
</glyph>
<glyph name="oe" format="1">
  <advance width="1744"/>
  <unicode hex="0153"/>
  <outline>
    <contour>
      <point x="61" y="439" type="curve" smooth="yes"/>
      <point x="47" y="832"/>
      <point x="288" y="1163"/>
      <point x="691" y="1163" type="curve" smooth="yes"/>
      <point x="841" y="1163"/>
      <point x="949" y="1116"/>
      <point x="1019" y="1028" type="curve"/>
      <point x="1126" y="1114"/>
      <point x="1259" y="1163"/>
      <point x="1406" y="1163" type="curve" smooth="yes"/>
      <point x="1634" y="1163"/>
      <point x="1730" y="1054"/>
      <point x="1735" y="913" type="curve" smooth="yes"/>
      <point x="1747" y="583"/>
      <point x="1368" y="461"/>
      <point x="1116" y="455" type="curve"/>
      <point x="1116" y="247"/>
      <point x="1187" y="159"/>
      <point x="1303" y="159" type="curve" smooth="yes"/>
      <point x="1462" y="159"/>
      <point x="1548" y="246"/>
      <point x="1601" y="315" type="curve"/>
      <point x="1665" y="212" type="line"/>
      <point x="1610" y="124"/>
      <point x="1452" y="-20"/>
      <point x="1195" y="-20" type="curve" smooth="yes"/>
      <point x="1047" y="-20"/>
      <point x="942" y="27"/>
      <point x="873" y="100" type="curve"/>
      <point x="772" y="24"/>
      <point x="644" y="-20"/>
      <point x="500" y="-20" type="curve" smooth="yes"/>
      <point x="215" y="-20"/>
      <point x="71" y="148"/>
    </contour>
    <contour>
      <point x="1116" y="575" type="curve"/>
      <point x="1233" y="582"/>
      <point x="1421" y="689"/>
      <point x="1414" y="886" type="curve" smooth="yes"/>
      <point x="1411" y="977"/>
      <point x="1385" y="1025"/>
      <point x="1332" y="1025" type="curve" smooth="yes"/>
      <point x="1178" y="1025"/>
      <point x="1127" y="761"/>
    </contour>
    <contour>
      <point x="545" y="107" type="curve" smooth="yes"/>
      <point x="663" y="107"/>
      <point x="730" y="245"/>
      <point x="757" y="429" type="curve"/>
      <point x="757" y="430" type="line"/>
      <point x="756" y="489"/>
      <point x="762" y="545"/>
      <point x="772" y="599" type="curve"/>
      <point x="776" y="858"/>
      <point x="754" y="1025"/>
      <point x="650" y="1025" type="curve" smooth="yes"/>
      <point x="470" y="1025"/>
      <point x="410" y="684"/>
      <point x="418" y="431" type="curve" smooth="yes"/>
      <point x="425" y="218"/>
      <point x="451" y="107"/>
    </contour>
  </outline>
</glyph>
<glyph name="rcommaaccent" format="1">
  <advance width="843"/>
  <unicode hex="0157"/>
  <outline>
    <contour>
      <point x="80" y="0" type="line"/>
      <point x="212" y="962" type="line"/>
      <point x="105" y="1022" type="line"/>
      <point x="122" y="1111" type="line"/>
      <point x="450" y="1163" type="line"/>
      <point x="503" y="1139" type="line"/>
      <point x="523" y="866" type="line"/>
      <point x="568" y="1024"/>
      <point x="657" y="1163"/>
      <point x="818" y="1163" type="curve" smooth="yes"/>
      <point x="853" y="1163"/>
      <point x="878" y="1150"/>
      <point x="888" y="1143" type="curve"/>
      <point x="819" y="786" type="line"/>
      <point x="806" y="802"/>
      <point x="750" y="817"/>
      <point x="712" y="817" type="curve" smooth="yes"/>
      <point x="632" y="817"/>
      <point x="575" y="800"/>
      <point x="508" y="760" type="curve"/>
      <point x="403" y="0" type="line"/>
    </contour>
    <contour>
      <point x="78" y="-141" type="line"/>
      <point x="232" y="-37" type="line"/>
      <point x="322" y="-56"/>
      <point x="390" y="-144"/>
      <point x="390" y="-249" type="curve" smooth="yes"/>
      <point x="390" y="-420"/>
      <point x="266" y="-541"/>
      <point x="163" y="-560" type="curve"/>
      <point x="63" y="-490" type="line"/>
      <point x="66" y="-464" type="line"/>
      <point x="89" y="-451"/>
      <point x="134" y="-407"/>
      <point x="134" y="-335" type="curve" smooth="yes"/>
      <point x="134" y="-285"/>
      <point x="106" y="-238"/>
      <point x="67" y="-234" type="curve"/>
    </contour>
  </outline>
</glyph>
<glyph name="Scircumflex" format="1">
  <advance width="1157"/>
  <unicode hex="015C"/>
  <outline>
    <contour>
      <point x="15" y="75" type="curve"/>
      <point x="75" y="393" type="line"/>
      <point x="281" y="393" type="line"/>
      <point x="292" y="172" type="line"/>
      <point x="341" y="135"/>
      <point x="407" y="106"/>
      <point x="496" y="106" type="curve" smooth="yes"/>
      <point x="696" y="106"/>
      <point x="750" y="196"/>
      <point x="750" y="309" type="curve" smooth="yes"/>
      <point x="750" y="437"/>
      <point x="677" y="514"/>
      <point x="491" y="633" type="curve" smooth="yes"/>
      <point x="314" y="746"/>
      <point x="166" y="894"/>
      <point x="166" y="1102" type="curve" smooth="yes"/>
      <point x="166" y="1392"/>
      <point x="406" y="1549"/>
      <point x="735" y="1549" type="curve" smooth="yes"/>
      <point x="952" y="1549"/>
      <point x="1070" y="1512"/>
      <point x="1134" y="1475" type="curve"/>
      <point x="1080" y="1173" type="line"/>
      <point x="889" y="1173" type="line"/>
      <point x="859" y="1371" type="line"/>
      <point x="812" y="1405"/>
      <point x="761" y="1423"/>
      <point x="690" y="1423" type="curve" smooth="yes"/>
      <point x="545" y="1423"/>
      <point x="483" y="1350"/>
      <point x="483" y="1245" type="curve" smooth="yes"/>
      <point x="483" y="1100"/>
      <point x="571" y="1012"/>
      <point x="766" y="889" type="curve" smooth="yes"/>
      <point x="934" y="783"/>
      <point x="1078" y="643"/>
      <point x="1078" y="442" type="curve" smooth="yes"/>
      <point x="1078" y="201"/>
      <point x="891" y="-23"/>
      <point x="491" y="-23" type="curve" smooth="yes"/>
      <point x="267" y="-23"/>
      <point x="60" y="38"/>
    </contour>
    <contour>
      <point x="487" y="1600" type="line"/>
      <point x="380" y="1657" type="line"/>
      <point x="747" y="2014" type="line"/>
      <point x="925" y="2014" type="line"/>
      <point x="1135" y="1657" type="line"/>
      <point x="1011" y="1599" type="line"/>
      <point x="810" y="1806" type="line"/>
    </contour>
  </outline>
</glyph>
<glyph name="Scedilla" format="1">
  <advance width="1181"/>
  <unicode hex="015E"/>
  <outline>
    <contour>
      <point x="27" y="75" type="curve"/>
      <point x="87" y="393" type="line"/>
      <point x="293" y="393" type="line"/>
      <point x="304" y="172" type="line"/>
      <point x="353" y="135"/>
      <point x="419" y="106"/>
      <point x="508" y="106" type="curve" smooth="yes"/>
      <point x="708" y="106"/>
      <point x="762" y="196"/>
      <point x="762" y="309" type="curve" smooth="yes"/>
      <point x="762" y="437"/>
      <point x="689" y="514"/>
      <point x="503" y="633" type="curve" smooth="yes"/>
      <point x="326" y="746"/>
      <point x="178" y="894"/>
      <point x="178" y="1102" type="curve" smooth="yes"/>
      <point x="178" y="1392"/>
      <point x="418" y="1549"/>
      <point x="747" y="1549" type="curve" smooth="yes"/>
      <point x="964" y="1549"/>
      <point x="1082" y="1512"/>
      <point x="1146" y="1475" type="curve"/>
      <point x="1092" y="1173" type="line"/>
      <point x="901" y="1173" type="line"/>
      <point x="871" y="1371" type="line"/>
      <point x="824" y="1405"/>
      <point x="773" y="1423"/>
      <point x="702" y="1423" type="curve" smooth="yes"/>
      <point x="557" y="1423"/>
      <point x="495" y="1350"/>
      <point x="495" y="1245" type="curve" smooth="yes"/>
      <point x="495" y="1100"/>
      <point x="583" y="1012"/>
      <point x="778" y="889" type="curve" smooth="yes"/>
      <point x="946" y="783"/>
      <point x="1090" y="643"/>
      <point x="1090" y="442" type="curve" smooth="yes"/>
      <point x="1090" y="215"/>
      <point x="925" y="4"/>
      <point x="573" y="-20" type="curve"/>
      <point x="591" y="-80"/>
      <point x="606" y="-171"/>
      <point x="606" y="-238" type="curve" smooth="yes"/>
      <point x="606" y="-388"/>
      <point x="526" y="-484"/>
      <point x="308" y="-484" type="curve" smooth="yes"/>
      <point x="255" y="-484"/>
      <point x="132" y="-472"/>
      <point x="110" y="-456" type="curve"/>
      <point x="145" y="-303" type="line"/>
      <point x="162" y="-312"/>
      <point x="192" y="-319"/>
      <point x="223" y="-319" type="curve" smooth="yes"/>
      <point x="325" y="-319"/>
      <point x="400" y="-282"/>
      <point x="406" y="-154" type="curve" smooth="yes"/>
      <point x="408" y="-103"/>
      <point x="404" y="-55"/>
      <point x="399" y="-19" type="curve"/>
      <point x="218" y="-4"/>
      <point x="65" y="44"/>
    </contour>
  </outline>
</glyph>
<glyph name="scedilla" format="1">
  <advance width="873"/>
  <unicode hex="015F"/>
  <outline>
    <contour>
      <point x="3" y="49" type="curve"/>
      <point x="51" y="250" type="line"/>
      <point x="95" y="208"/>
      <point x="200" y="134"/>
      <point x="318" y="134" type="curve" smooth="yes"/>
      <point x="390" y="134"/>
      <point x="476" y="165"/>
      <point x="476" y="257" type="curve" smooth="yes"/>
      <point x="476" y="338"/>
      <point x="409" y="398"/>
      <point x="295" y="477" type="curve" smooth="yes"/>
      <point x="202" y="541"/>
      <point x="99" y="638"/>
      <point x="99" y="825" type="curve" smooth="yes"/>
      <point x="99" y="1046"/>
      <point x="304" y="1163"/>
      <point x="568" y="1163" type="curve" smooth="yes"/>
      <point x="677" y="1163"/>
      <point x="794" y="1141"/>
      <point x="828" y="1126" type="curve"/>
      <point x="785" y="919" type="line"/>
      <point x="759" y="949"/>
      <point x="688" y="1019"/>
      <point x="581" y="1019" type="curve" smooth="yes"/>
      <point x="496" y="1019"/>
      <point x="421" y="982"/>
      <point x="421" y="902" type="curve" smooth="yes"/>
      <point x="421" y="821"/>
      <point x="478" y="768"/>
      <point x="601" y="680" type="curve" smooth="yes"/>
      <point x="708" y="603"/>
      <point x="803" y="498"/>
      <point x="803" y="329" type="curve" smooth="yes"/>
      <point x="803" y="128"/>
      <point x="649" y="25"/>
      <point x="464" y="-8" type="curve"/>
      <point x="484" y="-67"/>
      <point x="501" y="-167"/>
      <point x="501" y="-238" type="curve" smooth="yes"/>
      <point x="501" y="-388"/>
      <point x="421" y="-484"/>
      <point x="203" y="-484" type="curve" smooth="yes"/>
      <point x="150" y="-484"/>
      <point x="27" y="-472"/>
      <point x="5" y="-456" type="curve"/>
      <point x="40" y="-303" type="line"/>
      <point x="57" y="-312"/>
      <point x="87" y="-319"/>
      <point x="118" y="-319" type="curve" smooth="yes"/>
      <point x="220" y="-319"/>
      <point x="295" y="-282"/>
      <point x="301" y="-154" type="curve" smooth="yes"/>
      <point x="303" y="-103"/>
      <point x="300" y="-55"/>
      <point x="295" y="-19" type="curve"/>
      <point x="173" y="-14"/>
      <point x="38" y="21"/>
    </contour>
  </outline>
</glyph>
<glyph name="scaron" format="1">
  <advance width="873"/>
  <unicode hex="0161"/>
  <outline>
    <contour>
      <point x="3" y="49" type="curve"/>
      <point x="51" y="250" type="line"/>
      <point x="95" y="208"/>
      <point x="200" y="134"/>
      <point x="318" y="134" type="curve" smooth="yes"/>
      <point x="390" y="134"/>
      <point x="476" y="165"/>
      <point x="476" y="257" type="curve" smooth="yes"/>
      <point x="476" y="338"/>
      <point x="409" y="398"/>
      <point x="295" y="477" type="curve" smooth="yes"/>
      <point x="202" y="541"/>
      <point x="99" y="638"/>
      <point x="99" y="825" type="curve" smooth="yes"/>
      <point x="99" y="1046"/>
      <point x="304" y="1163"/>
      <point x="568" y="1163" type="curve" smooth="yes"/>
      <point x="677" y="1163"/>
      <point x="794" y="1141"/>
      <point x="828" y="1126" type="curve"/>
      <point x="785" y="919" type="line"/>
      <point x="759" y="949"/>
      <point x="688" y="1019"/>
      <point x="581" y="1019" type="curve" smooth="yes"/>
      <point x="496" y="1019"/>
      <point x="421" y="982"/>
      <point x="421" y="902" type="curve" smooth="yes"/>
      <point x="421" y="821"/>
      <point x="478" y="768"/>
      <point x="601" y="680" type="curve" smooth="yes"/>
      <point x="708" y="603"/>
      <point x="803" y="498"/>
      <point x="803" y="329" type="curve" smooth="yes"/>
      <point x="803" y="79"/>
      <point x="565" y="-20"/>
      <point x="324" y="-20" type="curve" smooth="yes"/>
      <point x="195" y="-20"/>
      <point x="41" y="19"/>
    </contour>
    <contour>
      <point x="429" y="1238" type="line"/>
      <point x="219" y="1612" type="line"/>
      <point x="343" y="1670" type="line"/>
      <point x="544" y="1460" type="line"/>
      <point x="867" y="1669" type="line"/>
      <point x="974" y="1612" type="line"/>
      <point x="606" y="1238" type="line"/>
    </contour>
  </outline>
</glyph>
<glyph name="uni0162" format="1">
  <advance width="1421"/>
  <unicode hex="0162"/>
  <outline>
    <contour>
      <point x="212" y="0" type="line"/>
      <point x="225" y="106" type="line"/>
      <point x="475" y="136" type="line"/>
      <point x="642" y="1394" type="line"/>
      <point x="406" y="1368" type="line"/>
      <point x="239" y="945" type="line"/>
      <point x="51" y="945" type="line"/>
      <point x="150" y="1530" type="line"/>
      <point x="1526" y="1530" type="line"/>
      <point x="1451" y="947" type="line"/>
      <point x="1270" y="945" type="line"/>
      <point x="1237" y="1368" type="line"/>
      <point x="995" y="1394" type="line"/>
      <point x="827" y="136" type="line"/>
      <point x="1111" y="106" type="line"/>
      <point x="1101" y="0" type="line"/>
      <point x="732" y="0" type="line"/>
      <point x="754" y="-57"/>
      <point x="772" y="-163"/>
      <point x="772" y="-238" type="curve" smooth="yes"/>
      <point x="772" y="-388"/>
      <point x="692" y="-484"/>
      <point x="474" y="-484" type="curve" smooth="yes"/>
      <point x="421" y="-484"/>
      <point x="298" y="-472"/>
      <point x="276" y="-456" type="curve"/>
      <point x="311" y="-303" type="line"/>
      <point x="328" y="-312"/>
      <point x="358" y="-319"/>
      <point x="389" y="-319" type="curve" smooth="yes"/>
      <point x="491" y="-319"/>
      <point x="566" y="-282"/>
      <point x="572" y="-154" type="curve" smooth="yes"/>
      <point x="575" y="-93"/>
      <point x="569" y="-37"/>
      <point x="563" y="0" type="curve"/>
    </contour>
  </outline>
</glyph>
<glyph name="uni0163" format="1">
  <advance width="724"/>
  <unicode hex="0163"/>
  <outline>
    <contour>
      <point x="106" y="159" type="curve" smooth="yes"/>
      <point x="106" y="174"/>
      <point x="106" y="198"/>
      <point x="133" y="398" type="curve" smooth="yes"/>
      <point x="214" y="994" type="line"/>
      <point x="95" y="994" type="line"/>
      <point x="119" y="1103" type="line"/>
      <point x="241" y="1150" type="line"/>
      <point x="301" y="1200"/>
      <point x="360" y="1316"/>
      <point x="402" y="1416" type="curve"/>
      <point x="591" y="1416" type="line"/>
      <point x="558" y="1155" type="line"/>
      <point x="766" y="1155" type="line"/>
      <point x="743" y="994" type="line"/>
      <point x="537" y="994" type="line"/>
      <point x="454" y="390" type="line" smooth="yes"/>
      <point x="445" y="324"/>
      <point x="439" y="285"/>
      <point x="439" y="251" type="curve" smooth="yes"/>
      <point x="439" y="197"/>
      <point x="462" y="170"/>
      <point x="512" y="170" type="curve" smooth="yes"/>
      <point x="563" y="170"/>
      <point x="630" y="184"/>
      <point x="681" y="227" type="curve"/>
      <point x="706" y="147" type="line"/>
      <point x="657" y="92"/>
      <point x="558" y="12"/>
      <point x="399" y="-12" type="curve"/>
      <point x="419" y="-72"/>
      <point x="435" y="-168"/>
      <point x="435" y="-238" type="curve" smooth="yes"/>
      <point x="435" y="-388"/>
      <point x="355" y="-484"/>
      <point x="137" y="-484" type="curve" smooth="yes"/>
      <point x="84" y="-484"/>
      <point x="-39" y="-472"/>
      <point x="-61" y="-456" type="curve"/>
      <point x="-26" y="-303" type="line"/>
      <point x="-9" y="-312"/>
      <point x="21" y="-319"/>
      <point x="52" y="-319" type="curve" smooth="yes"/>
      <point x="154" y="-319"/>
      <point x="229" y="-282"/>
      <point x="235" y="-154" type="curve" smooth="yes"/>
      <point x="237" y="-99"/>
      <point x="233" y="-48"/>
      <point x="227" y="-11" type="curve"/>
      <point x="159" y="6"/>
      <point x="106" y="56"/>
    </contour>
  </outline>
</glyph>
<glyph name="Tcaron" format="1">
  <advance width="1421"/>
  <unicode hex="0164"/>
  <outline>
    <contour>
      <point x="212" y="0" type="line"/>
      <point x="225" y="106" type="line"/>
      <point x="475" y="136" type="line"/>
      <point x="642" y="1394" type="line"/>
      <point x="406" y="1368" type="line"/>
      <point x="239" y="945" type="line"/>
      <point x="51" y="945" type="line"/>
      <point x="150" y="1530" type="line"/>
      <point x="1526" y="1530" type="line"/>
      <point x="1451" y="947" type="line"/>
      <point x="1270" y="945" type="line"/>
      <point x="1237" y="1368" type="line"/>
      <point x="995" y="1394" type="line"/>
      <point x="827" y="136" type="line"/>
      <point x="1111" y="106" type="line"/>
      <point x="1101" y="0" type="line"/>
    </contour>
    <contour>
      <point x="767" y="1599" type="line"/>
      <point x="557" y="1956" type="line"/>
      <point x="681" y="2014" type="line"/>
      <point x="882" y="1842" type="line"/>
      <point x="1205" y="2014" type="line"/>
      <point x="1312" y="1957" type="line"/>
      <point x="944" y="1599" type="line"/>
    </contour>
  </outline>
</glyph>
<glyph name="tcaron" format="1">
  <advance width="756"/>
  <unicode hex="0165"/>
  <outline>
    <contour>
      <point x="106" y="159" type="curve" smooth="yes"/>
      <point x="106" y="174"/>
      <point x="106" y="198"/>
      <point x="133" y="398" type="curve" smooth="yes"/>
      <point x="214" y="994" type="line"/>
      <point x="95" y="994" type="line"/>
      <point x="119" y="1103" type="line"/>
      <point x="241" y="1150" type="line"/>
      <point x="301" y="1200"/>
      <point x="360" y="1316"/>
      <point x="402" y="1416" type="curve"/>
      <point x="591" y="1416" type="line"/>
      <point x="558" y="1155" type="line"/>
      <point x="766" y="1155" type="line"/>
      <point x="743" y="994" type="line"/>
      <point x="537" y="994" type="line"/>
      <point x="454" y="390" type="line" smooth="yes"/>
      <point x="445" y="324"/>
      <point x="439" y="285"/>
      <point x="439" y="251" type="curve" smooth="yes"/>
      <point x="439" y="197"/>
      <point x="462" y="170"/>
      <point x="512" y="170" type="curve" smooth="yes"/>
      <point x="563" y="170"/>
      <point x="630" y="184"/>
      <point x="681" y="227" type="curve"/>
      <point x="706" y="147" type="line"/>
      <point x="648" y="81"/>
      <point x="517" y="-20"/>
      <point x="299" y="-20" type="curve" smooth="yes"/>
      <point x="201" y="-20"/>
      <point x="106" y="22"/>
    </contour>
    <contour>
      <point x="693" y="1275" type="line"/>
      <point x="687" y="1300" type="line"/>
      <point x="710" y="1363"/>
      <point x="728" y="1485"/>
      <point x="728" y="1601" type="curve" smooth="yes"/>
      <point x="728" y="1676"/>
      <point x="724" y="1772"/>
      <point x="704" y="1802" type="curve"/>
      <point x="723" y="1844" type="line"/>
      <point x="930" y="1890" type="line"/>
      <point x="955" y="1863"/>
      <point x="968" y="1781"/>
      <point x="968" y="1701" type="curve" smooth="yes"/>
      <point x="968" y="1545"/>
      <point x="918" y="1346"/>
      <point x="823" y="1245" type="curve"/>
    </contour>
  </outline>
</glyph>
<glyph name="Tbar" format="1">
  <advance width="1225"/>
  <unicode hex="0166"/>
  <outline>
    <contour>
      <point x="121" y="0" type="line"/>
      <point x="134" y="106" type="line"/>
      <point x="384" y="136" type="line"/>
      <point x="456" y="680" type="line"/>
      <point x="234" y="680" type="line"/>
      <point x="250" y="830" type="line"/>
      <point x="476" y="830" type="line"/>
      <point x="551" y="1394" type="line"/>
      <point x="315" y="1368" type="line"/>
      <point x="148" y="945" type="line"/>
      <point x="-40" y="945" type="line"/>
      <point x="59" y="1530" type="line"/>
      <point x="1435" y="1530" type="line"/>
      <point x="1360" y="947" type="line"/>
      <point x="1179" y="945" type="line"/>
      <point x="1146" y="1368" type="line"/>
      <point x="904" y="1394" type="line"/>
      <point x="828" y="830" type="line"/>
      <point x="1064" y="830" type="line"/>
      <point x="1048" y="680" type="line"/>
      <point x="808" y="680" type="line"/>
      <point x="736" y="136" type="line"/>
      <point x="1020" y="106" type="line"/>
      <point x="1010" y="0" type="line"/>
    </contour>
  </outline>
</glyph>
<glyph name="Utilde" format="1">
  <advance width="1447"/>
  <unicode hex="0168"/>
  <outline>
    <contour>
      <point x="128" y="428" type="curve" smooth="yes"/>
      <point x="128" y="480"/>
      <point x="128" y="534"/>
      <point x="135" y="593" type="curve" smooth="yes"/>
      <point x="235" y="1394" type="line"/>
      <point x="91" y="1420" type="line"/>
      <point x="104" y="1530" type="line"/>
      <point x="808" y="1530" type="line"/>
      <point x="798" y="1421" type="line"/>
      <point x="601" y="1394" type="line"/>
      <point x="504" y="623" type="line"/>
      <point x="495" y="542"/>
      <point x="487" y="469"/>
      <point x="487" y="422" type="curve" smooth="yes"/>
      <point x="487" y="232"/>
      <point x="562" y="104"/>
      <point x="732" y="104" type="curve" smooth="yes"/>
      <point x="978" y="104"/>
      <point x="1076" y="311"/>
      <point x="1119" y="626" type="curve" smooth="yes"/>
      <point x="1223" y="1394" type="line"/>
      <point x="1055" y="1421" type="line"/>
      <point x="1066" y="1530" type="line"/>
      <point x="1550" y="1530" type="line"/>
      <point x="1535" y="1421" type="line"/>
      <point x="1406" y="1394" type="line"/>
      <point x="1309" y="627" type="line" smooth="yes"/>
      <point x="1249" y="156"/>
      <point x="1038" y="-20"/>
      <point x="670" y="-20" type="curve" smooth="yes"/>
      <point x="248" y="-20"/>
      <point x="128" y="179"/>
    </contour>
    <contour>
      <point x="709" y="1677" type="curve"/>
      <point x="632" y="1801" type="line"/>
      <point x="673" y="1884"/>
      <point x="789" y="1970"/>
      <point x="889" y="1970" type="curve" smooth="yes"/>
      <point x="1044" y="1970"/>
      <point x="1069" y="1820"/>
      <point x="1168" y="1820" type="curve" smooth="yes"/>
      <point x="1242" y="1820"/>
      <point x="1282" y="1872"/>
      <point x="1320" y="1920" type="curve"/>
      <point x="1408" y="1789" type="line"/>
      <point x="1374" y="1702"/>
      <point x="1261" y="1608"/>
      <point x="1157" y="1608" type="curve" smooth="yes"/>
      <point x="980" y="1608"/>
      <point x="976" y="1755"/>
      <point x="856" y="1758" type="curve" smooth="yes"/>
      <point x="794" y="1759"/>
      <point x="747" y="1717"/>
    </contour>
  </outline>
</glyph>
<glyph name="umacron" format="1">
  <advance width="1276"/>
  <unicode hex="016B"/>
  <outline>
    <contour>
      <point x="108" y="235" type="curve" smooth="yes"/>
      <point x="107" y="329"/>
      <point x="132" y="473"/>
      <point x="150" y="597" type="curve" smooth="yes"/>
      <point x="204" y="962" type="line"/>
      <point x="78" y="1042" type="line"/>
      <point x="94" y="1131" type="line"/>
      <point x="497" y="1163" type="line"/>
      <point x="549" y="1139" type="line"/>
      <point x="480" y="589" type="line" smooth="yes"/>
      <point x="465" y="472"/>
      <point x="443" y="340"/>
      <point x="443" y="282" type="curve" smooth="yes"/>
      <point x="443" y="186"/>
      <point x="473" y="148"/>
      <point x="538" y="148" type="curve" smooth="yes"/>
      <point x="617" y="148"/>
      <point x="685" y="194"/>
      <point x="732" y="247" type="curve"/>
      <point x="856" y="1155" type="line"/>
      <point x="1182" y="1155" type="line"/>
      <point x="1054" y="227" type="line" smooth="yes"/>
      <point x="1047" y="175"/>
      <point x="1064" y="151"/>
      <point x="1094" y="151" type="curve" smooth="yes"/>
      <point x="1117" y="151"/>
      <point x="1133" y="159"/>
      <point x="1186" y="197" type="curve"/>
      <point x="1214" y="124" type="line"/>
      <point x="1194" y="91"/>
      <point x="1093" y="-20"/>
      <point x="934" y="-20" type="curve" smooth="yes"/>
      <point x="791" y="-20"/>
      <point x="735" y="47"/>
      <point x="751" y="143" type="curve"/>
      <point x="747" y="146" type="line"/>
      <point x="679" y="68"/>
      <point x="576" y="-20"/>
      <point x="400" y="-20" type="curve" smooth="yes"/>
      <point x="280" y="-20"/>
      <point x="111" y="42"/>
    </contour>
    <contour>
      <point x="403" y="1405" type="line"/>
      <point x="403" y="1614" type="line"/>
      <point x="974" y="1614" type="line"/>
      <point x="974" y="1405" type="line"/>
    </contour>
  </outline>
</glyph>
<glyph name="uring" format="1">
  <advance width="1276"/>
  <unicode hex="016F"/>
  <outline>
    <contour>
      <point x="108" y="235" type="curve" smooth="yes"/>
      <point x="107" y="329"/>
      <point x="132" y="473"/>
      <point x="150" y="597" type="curve" smooth="yes"/>
      <point x="204" y="962" type="line"/>
      <point x="78" y="1042" type="line"/>
      <point x="94" y="1131" type="line"/>
      <point x="497" y="1163" type="line"/>
      <point x="549" y="1139" type="line"/>
      <point x="480" y="589" type="line" smooth="yes"/>
      <point x="465" y="472"/>
      <point x="443" y="340"/>
      <point x="443" y="282" type="curve" smooth="yes"/>
      <point x="443" y="186"/>
      <point x="473" y="148"/>
      <point x="538" y="148" type="curve" smooth="yes"/>
      <point x="617" y="148"/>
      <point x="685" y="194"/>
      <point x="732" y="247" type="curve"/>
      <point x="856" y="1155" type="line"/>
      <point x="1182" y="1155" type="line"/>
      <point x="1054" y="227" type="line" smooth="yes"/>
      <point x="1047" y="175"/>
      <point x="1064" y="151"/>
      <point x="1094" y="151" type="curve" smooth="yes"/>
      <point x="1117" y="151"/>
      <point x="1133" y="159"/>
      <point x="1186" y="197" type="curve"/>
      <point x="1214" y="124" type="line"/>
      <point x="1194" y="91"/>
      <point x="1093" y="-20"/>
      <point x="934" y="-20" type="curve" smooth="yes"/>
      <point x="791" y="-20"/>
      <point x="735" y="47"/>
      <point x="751" y="143" type="curve"/>
      <point x="747" y="146" type="line"/>
      <point x="679" y="68"/>
      <point x="576" y="-20"/>
      <point x="400" y="-20" type="curve" smooth="yes"/>
      <point x="280" y="-20"/>
      <point x="111" y="42"/>
    </contour>
    <contour>
      <point x="716" y="1253" type="curve" smooth="yes"/>
      <point x="527" y="1253"/>
      <point x="407" y="1339"/>
      <point x="407" y="1497" type="curve" smooth="yes"/>
      <point x="407" y="1732"/>
      <point x="638" y="1804"/>
      <point x="793" y="1804" type="curve" smooth="yes"/>
      <point x="968" y="1804"/>
      <point x="1096" y="1716"/>
      <point x="1096" y="1567" type="curve" smooth="yes"/>
      <point x="1096" y="1354"/>
      <point x="898" y="1253"/>
    </contour>
    <contour>
      <point x="738" y="1396" type="curve" smooth="yes"/>
      <point x="815" y="1396"/>
      <point x="903" y="1424"/>
      <point x="903" y="1539" type="curve" smooth="yes"/>
      <point x="903" y="1612"/>
      <point x="837" y="1664"/>
      <point x="768" y="1664" type="curve" smooth="yes"/>
      <point x="692" y="1664"/>
      <point x="601" y="1628"/>
      <point x="601" y="1520" type="curve" smooth="yes"/>
      <point x="601" y="1449"/>
      <point x="671" y="1396"/>
    </contour>
  </outline>
</glyph>
<glyph name="Uhungarumlaut" format="1">
  <advance width="1447"/>
  <unicode hex="0170"/>
  <outline>
    <contour>
      <point x="128" y="428" type="curve" smooth="yes"/>
      <point x="128" y="480"/>
      <point x="128" y="534"/>
      <point x="135" y="593" type="curve" smooth="yes"/>
      <point x="235" y="1394" type="line"/>
      <point x="91" y="1420" type="line"/>
      <point x="104" y="1530" type="line"/>
      <point x="808" y="1530" type="line"/>
      <point x="798" y="1421" type="line"/>
      <point x="601" y="1394" type="line"/>
      <point x="504" y="623" type="line"/>
      <point x="495" y="542"/>
      <point x="487" y="469"/>
      <point x="487" y="422" type="curve" smooth="yes"/>
      <point x="487" y="232"/>
      <point x="562" y="104"/>
      <point x="732" y="104" type="curve" smooth="yes"/>
      <point x="978" y="104"/>
      <point x="1076" y="311"/>
      <point x="1119" y="626" type="curve" smooth="yes"/>
      <point x="1223" y="1394" type="line"/>
      <point x="1055" y="1421" type="line"/>
      <point x="1066" y="1530" type="line"/>
      <point x="1550" y="1530" type="line"/>
      <point x="1535" y="1421" type="line"/>
      <point x="1406" y="1394" type="line"/>
      <point x="1309" y="627" type="line" smooth="yes"/>
      <point x="1249" y="156"/>
      <point x="1038" y="-20"/>
      <point x="670" y="-20" type="curve" smooth="yes"/>
      <point x="248" y="-20"/>
      <point x="128" y="179"/>
    </contour>
    <contour>
      <point x="1153" y="1570" type="curve"/>
      <point x="1054" y="1645" type="line"/>
      <point x="1336" y="2014" type="line"/>
      <point x="1496" y="1881" type="line"/>
      <point x="1428" y="1765"/>
      <point x="1276" y="1608"/>
    </contour>
    <contour>
      <point x="668" y="1570" type="curve"/>
      <point x="564" y="1645" type="line"/>
      <point x="846" y="2014" type="line"/>
      <point x="1009" y="1882" type="line"/>
      <point x="958" y="1766"/>
      <point x="782" y="1607"/>
    </contour>
  </outline>
</glyph>
<glyph name="Uogonek" format="1">
  <advance width="1379"/>
  <unicode hex="0172"/>
  <outline>
    <contour>
      <point x="94" y="428" type="curve" smooth="yes"/>
      <point x="94" y="480"/>
      <point x="94" y="534"/>
      <point x="101" y="593" type="curve" smooth="yes"/>
      <point x="201" y="1394" type="line"/>
      <point x="57" y="1420" type="line"/>
      <point x="70" y="1530" type="line"/>
      <point x="774" y="1530" type="line"/>
      <point x="764" y="1421" type="line"/>
      <point x="567" y="1394" type="line"/>
      <point x="470" y="623" type="line"/>
      <point x="461" y="542"/>
      <point x="453" y="469"/>
      <point x="453" y="422" type="curve" smooth="yes"/>
      <point x="453" y="232"/>
      <point x="528" y="104"/>
      <point x="698" y="104" type="curve" smooth="yes"/>
      <point x="944" y="104"/>
      <point x="1042" y="311"/>
      <point x="1085" y="626" type="curve" smooth="yes"/>
      <point x="1189" y="1394" type="line"/>
      <point x="1021" y="1421" type="line"/>
      <point x="1032" y="1530" type="line"/>
      <point x="1516" y="1530" type="line"/>
      <point x="1501" y="1421" type="line"/>
      <point x="1372" y="1394" type="line"/>
      <point x="1275" y="627" type="line" smooth="yes"/>
      <point x="1232" y="291"/>
      <point x="1113" y="105"/>
      <point x="915" y="26" type="curve"/>
      <point x="831" y="-51"/>
      <point x="764" y="-139"/>
      <point x="764" y="-205" type="curve" smooth="yes"/>
      <point x="764" y="-262"/>
      <point x="792" y="-287"/>
      <point x="831" y="-287" type="curve" smooth="yes"/>
      <point x="886" y="-287"/>
      <point x="931" y="-256"/>
      <point x="984" y="-212" type="curve"/>
      <point x="1020" y="-326" type="line"/>
      <point x="945" y="-409"/>
      <point x="821" y="-480"/>
      <point x="676" y="-480" type="curve" smooth="yes"/>
      <point x="547" y="-480"/>
      <point x="483" y="-411"/>
      <point x="483" y="-306" type="curve" smooth="yes"/>
      <point x="483" y="-276"/>
      <point x="496" y="-226"/>
      <point x="518" y="-192" type="curve" smooth="yes"/>
      <point x="562" y="-121"/>
      <point x="615" y="-65"/>
      <point x="669" y="-19" type="curve"/>
      <point x="658" y="-20"/>
      <point x="647" y="-20"/>
      <point x="636" y="-20" type="curve" smooth="yes"/>
      <point x="214" y="-20"/>
      <point x="94" y="179"/>
    </contour>
  </outline>
</glyph>
<glyph name="uogonek" format="1">
  <advance width="1276"/>
  <unicode hex="0173"/>
  <outline>
    <contour>
      <point x="108" y="235" type="curve" smooth="yes"/>
      <point x="107" y="329"/>
      <point x="132" y="473"/>
      <point x="150" y="597" type="curve" smooth="yes"/>
      <point x="204" y="962" type="line"/>
      <point x="78" y="1042" type="line"/>
      <point x="94" y="1131" type="line"/>
      <point x="497" y="1163" type="line"/>
      <point x="549" y="1139" type="line"/>
      <point x="480" y="589" type="line" smooth="yes"/>
      <point x="465" y="472"/>
      <point x="443" y="340"/>
      <point x="443" y="282" type="curve" smooth="yes"/>
      <point x="443" y="186"/>
      <point x="473" y="148"/>
      <point x="538" y="148" type="curve" smooth="yes"/>
      <point x="617" y="148"/>
      <point x="685" y="194"/>
      <point x="732" y="247" type="curve"/>
      <point x="856" y="1155" type="line"/>
      <point x="1182" y="1155" type="line"/>
      <point x="1054" y="227" type="line" smooth="yes"/>
      <point x="1047" y="175"/>
      <point x="1064" y="151"/>
      <point x="1094" y="151" type="curve" smooth="yes"/>
      <point x="1117" y="151"/>
      <point x="1133" y="159"/>
      <point x="1186" y="197" type="curve"/>
      <point x="1214" y="124" type="line"/>
      <point x="1194" y="91"/>
      <point x="1093" y="-20"/>
      <point x="934" y="-20" type="curve" smooth="yes"/>
      <point x="894" y="-20"/>
      <point x="862" y="-15"/>
      <point x="835" y="-5" type="curve"/>
      <point x="872" y="13"/>
      <point x="907" y="28"/>
      <point x="940" y="45" type="curve"/>
      <point x="1002" y="59" type="line"/>
      <point x="1125" y="39" type="line"/>
      <point x="989" y="-47"/>
      <point x="871" y="-141"/>
      <point x="871" y="-215" type="curve" smooth="yes"/>
      <point x="871" y="-272"/>
      <point x="899" y="-287"/>
      <point x="938" y="-287" type="curve" smooth="yes"/>
      <point x="993" y="-287"/>
      <point x="1035" y="-256"/>
      <point x="1091" y="-212" type="curve"/>
      <point x="1127" y="-326" type="line"/>
      <point x="1046" y="-409"/>
      <point x="928" y="-480"/>
      <point x="783" y="-480" type="curve" smooth="yes"/>
      <point x="654" y="-480"/>
      <point x="590" y="-411"/>
      <point x="590" y="-306" type="curve" smooth="yes"/>
      <point x="590" y="-273"/>
      <point x="609" y="-220"/>
      <point x="635" y="-182" type="curve" smooth="yes"/>
      <point x="701" y="-86"/>
      <point x="770" y="-39"/>
      <point x="835" y="-5" type="curve"/>
      <point x="765" y="19"/>
      <point x="739" y="73"/>
      <point x="751" y="143" type="curve"/>
      <point x="747" y="146" type="line"/>
      <point x="679" y="68"/>
      <point x="576" y="-20"/>
      <point x="400" y="-20" type="curve" smooth="yes"/>
      <point x="280" y="-20"/>
      <point x="111" y="42"/>
    </contour>
  </outline>
</glyph>
